<?xml version="1.0" encoding="utf-8" ?>
<svg baseProfile="full" height="98mm" version="1.1" viewBox="0,0,200,98" width="200mm" xmlns="http://www.w3.org/2000/svg" xmlns:ev="http://www.w3.org/2001/xml-events" xmlns:xlink="http://www.w3.org/1999/xlink"><defs /><rect fill="#222222" height="98" width="200" x="0" y="0" /><text fill="#FFFFFF" style="font-size:12px; font-family:Arial; font-weight:bold;" x="10" y="20">2023 Running</text><text fill="#FFFFFF" style="font-size:4px; font-family:Arial" x="10" y="78">ATHLETE</text><text fill="#FFFFFF" style="font-size:9px; font-family:Arial" x="10" y="88">Yu Song</text><text fill="#FFFFFF" style="font-size:4px; font-family:Arial" x="120" y="78">STATISTICS</text><text fill="#FFFFFF" style="font-size:3px; font-family:Arial" x="120" y="83">Number: 181</text><text fill="#FFFFFF" style="font-size:3px; font-family:Arial" x="120" y="88">Weekly: 3.5</text><text fill="#FFFFFF" style="font-size:3px; font-family:Arial" x="141" y="83">Total: 2157.6 km</text><text fill="#FFFFFF" style="font-size:3px; font-family:Arial" x="141" y="88">Avg: 11.9 km</text><text fill="#FFFFFF" style="font-size:3px; font-family:Arial" x="167" y="83">Min: 1.0 km</text><text fill="#FFFFFF" style="font-size:3px; font-family:Arial" x="167" y="88">Max: 30.6 km</text><text alignment-baseline="hanging" fill="#FFFFFF" style="font-size:10.0px; font-family:Arial;" x="10" y="30">2023</text><text alignment-baseline="hanging" fill="#FFFFFF" style="font-size:4.125px; font-family:Arial;" x="175" y="35">2157.6 km</text><text fill="#FFFFFF" style="font-size:2.5px; font-family:Arial" x="10.0" y="44">Jan</text><text fill="#FFFFFF" style="font-size:2.5px; font-family:Arial" x="25.5" y="44">Feb</text><text fill="#FFFFFF" style="font-size:2.5px; font-family:Arial" x="41.0" y="44">Mar</text><text fill="#FFFFFF" style="font-size:2.5px; font-family:Arial" x="56.5" y="44">Apr</text><text fill="#FFFFFF" style="font-size:2.5px; font-family:Arial" x="72.0" y="44">May</text><text fill="#FFFFFF" style="font-size:2.5px; font-family:Arial" x="87.5" y="44">Jun</text><text fill="#FFFFFF" style="font-size:2.5px; font-family:Arial" x="103.0" y="44">Jul</text><text fill="#FFFFFF" style="font-size:2.5px; font-family:Arial" x="118.5" y="44">Aug</text><text fill="#FFFFFF" style="font-size:2.5px; font-family:Arial" x="134.0" y="44">Sep</text><text fill="#FFFFFF" style="font-size:2.5px; font-family:Arial" x="149.5" y="44">Oct</text><text fill="#FFFFFF" style="font-size:2.5px; font-family:Arial" x="165.0" y="44">Nov</text><text fill="#FFFFFF" style="font-size:2.5px; font-family:Arial" x="180.5" y="44">Dec</text><rect fill="#444444" height="2.6" width="2.6" x="10.0" y="45.5"><title>2022-12-26</title></rect><rect fill="#444444" height="2.6" width="2.6" x="10.0" y="49.0"><title>2022-12-27</title></rect><rect fill="#444444" height="2.6" width="2.6" x="10.0" y="52.5"><title>2022-12-28</title></rect><rect fill="#444444" height="2.6" width="2.6" x="10.0" y="56.0"><title>2022-12-29</title></rect><rect fill="#444444" height="2.6" width="2.6" x="10.0" y="59.5"><title>2022-12-30</title></rect><rect fill="#444444" height="2.6" width="2.6" x="10.0" y="63.0"><title>2022-12-31</title></rect><rect fill="#444444" height="2.6" width="2.6" x="10.0" y="66.5"><title>2023-01-01</title></rect><rect fill="#444444" height="2.6" width="2.6" x="13.5" y="45.5"><title>2023-01-02</title></rect><rect fill="#4dd2ff" height="2.6" width="2.6" x="13.5" y="49.0"><title>2023-01-03 7.3 km</title></rect><rect fill="#444444" height="2.6" width="2.6" x="13.5" y="52.5"><title>2023-01-04</title></rect><rect fill="#444444" height="2.6" width="2.6" x="13.5" y="56.0"><title>2023-01-05</title></rect><rect fill="#ffa700" height="2.6" width="2.6" x="13.5" y="59.5"><title>2023-01-06 11.2 km</title></rect><rect fill="#444444" height="2.6" width="2.6" x="13.5" y="63.0"><title>2023-01-07</title></rect><rect fill="#444444" height="2.6" width="2.6" x="13.5" y="66.5"><title>2023-01-08</title></rect><rect fill="#444444" height="2.6" width="2.6" x="17.0" y="45.5"><title>2023-01-09</title></rect><rect fill="#ffa900" height="2.6" width="2.6" x="17.0" y="49.0"><title>2023-01-10 11.0 km</title></rect><rect fill="#444444" height="2.6" width="2.6" x="17.0" y="52.5"><title>2023-01-11</title></rect><rect fill="#4dd2ff" height="2.6" width="2.6" x="17.0" y="56.0"><title>2023-01-12 8.3 km</title></rect><rect fill="#444444" height="2.6" width="2.6" x="17.0" y="59.5"><title>2023-01-13</title></rect><rect fill="#444444" height="2.6" width="2.6" x="17.0" y="63.0"><title>2023-01-14</title></rect><rect fill="red" height="2.6" width="2.6" x="17.0" y="66.5"><title>2023-01-15 21.2 km</title></rect><rect fill="#444444" height="2.6" width="2.6" x="20.5" y="45.5"><title>2023-01-16</title></rect><rect fill="#444444" height="2.6" width="2.6" x="20.5" y="49.0"><title>2023-01-17</title></rect><rect fill="#4dd2ff" height="2.6" width="2.6" x="20.5" y="52.5"><title>2023-01-18 7.4 km</title></rect><rect fill="#444444" height="2.6" width="2.6" x="20.5" y="56.0"><title>2023-01-19</title></rect><rect fill="#4dd2ff" height="2.6" width="2.6" x="20.5" y="59.5"><title>2023-01-20 6.6 km</title></rect><rect fill="#444444" height="2.6" width="2.6" x="20.5" y="63.0"><title>2023-01-21</title></rect><rect fill="#444444" height="2.6" width="2.6" x="20.5" y="66.5"><title>2023-01-22</title></rect><rect fill="#ffb100" height="2.6" width="2.6" x="24.0" y="45.5"><title>2023-01-23 10.1 km</title></rect><rect fill="#444444" height="2.6" width="2.6" x="24.0" y="49.0"><title>2023-01-24</title></rect><rect fill="#444444" height="2.6" width="2.6" x="24.0" y="52.5"><title>2023-01-25</title></rect><rect fill="#ffb100" height="2.6" width="2.6" x="24.0" y="56.0"><title>2023-01-26 10.1 km</title></rect><rect fill="#444444" height="2.6" width="2.6" x="24.0" y="59.5"><title>2023-01-27</title></rect><rect fill="#444444" height="2.6" width="2.6" x="24.0" y="63.0"><title>2023-01-28</title></rect><rect fill="#444444" height="2.6" width="2.6" x="24.0" y="66.5"><title>2023-01-29</title></rect><rect fill="#4dd2ff" height="2.6" width="2.6" x="27.5" y="45.5"><title>2023-01-30 8.2 km</title></rect><rect fill="#444444" height="2.6" width="2.6" x="27.5" y="49.0"><title>2023-01-31</title></rect><rect fill="#ffb100" height="2.6" width="2.6" x="27.5" y="52.5"><title>2023-02-01 10.1 km</title></rect><rect fill="#444444" height="2.6" width="2.6" x="27.5" y="56.0"><title>2023-02-02</title></rect><rect fill="#ffaa00" height="2.6" width="2.6" x="27.5" y="59.5"><title>2023-02-03 10.9 km</title></rect><rect fill="#444444" height="2.6" width="2.6" x="27.5" y="63.0"><title>2023-02-04</title></rect><rect fill="#444444" height="2.6" width="2.6" x="27.5" y="66.5"><title>2023-02-05</title></rect><rect fill="#ffab00" height="2.6" width="2.6" x="31.0" y="45.5"><title>2023-02-06 10.8 km</title></rect><rect fill="#444444" height="2.6" width="2.6" x="31.0" y="49.0"><title>2023-02-07</title></rect><rect fill="#ffaa00" height="2.6" width="2.6" x="31.0" y="52.5"><title>2023-02-08 10.9 km</title></rect><rect fill="#444444" height="2.6" width="2.6" x="31.0" y="56.0"><title>2023-02-09</title></rect><rect fill="#ffae00" height="2.6" width="2.6" x="31.0" y="59.5"><title>2023-02-10 10.4 km</title></rect><rect fill="#444444" height="2.6" width="2.6" x="31.0" y="63.0"><title>2023-02-11</title></rect><rect fill="#444444" height="2.6" width="2.6" x="31.0" y="66.5"><title>2023-02-12</title></rect><rect fill="#ffa100" height="2.6" width="2.6" x="34.5" y="45.5"><title>2023-02-13 11.9 km</title></rect><rect fill="#444444" height="2.6" width="2.6" x="34.5" y="49.0"><title>2023-02-14</title></rect><rect fill="#444444" height="2.6" width="2.6" x="34.5" y="52.5"><title>2023-02-15</title></rect><rect fill="#444444" height="2.6" width="2.6" x="34.5" y="56.0"><title>2023-02-16</title></rect><rect fill="#444444" height="2.6" width="2.6" x="34.5" y="59.5"><title>2023-02-17</title></rect><rect fill="#444444" height="2.6" width="2.6" x="34.5" y="63.0"><title>2023-02-18</title></rect><rect fill="#444444" height="2.6" width="2.6" x="34.5" y="66.5"><title>2023-02-19</title></rect><rect fill="#444444" height="2.6" width="2.6" x="38.0" y="45.5"><title>2023-02-20</title></rect><rect fill="#ffa900" height="2.6" width="2.6" x="38.0" y="49.0"><title>2023-02-21 11.0 km</title></rect><rect fill="#444444" height="2.6" width="2.6" x="38.0" y="52.5"><title>2023-02-22</title></rect><rect fill="#ffa900" height="2.6" width="2.6" x="38.0" y="56.0"><title>2023-02-23 11.0 km</title></rect><rect fill="#444444" height="2.6" width="2.6" x="38.0" y="59.5"><title>2023-02-24</title></rect><rect fill="#444444" height="2.6" width="2.6" x="38.0" y="63.0"><title>2023-02-25</title></rect><rect fill="#444444" height="2.6" width="2.6" x="38.0" y="66.5"><title>2023-02-26</title></rect><rect fill="#ffab00" height="2.6" width="2.6" x="41.5" y="45.5"><title>2023-02-27 10.8 km</title></rect><rect fill="#444444" height="2.6" width="2.6" x="41.5" y="49.0"><title>2023-02-28</title></rect><rect fill="#ffb100" height="2.6" width="2.6" x="41.5" y="52.5"><title>2023-03-01 10.1 km</title></rect><rect fill="#444444" height="2.6" width="2.6" x="41.5" y="56.0"><title>2023-03-02</title></rect><rect fill="red" height="2.6" width="2.6" x="41.5" y="59.5"><title>2023-03-03 16.2 km</title></rect><rect fill="#444444" height="2.6" width="2.6" x="41.5" y="63.0"><title>2023-03-04</title></rect><rect fill="#444444" height="2.6" width="2.6" x="41.5" y="66.5"><title>2023-03-05</title></rect><rect fill="#ffaa00" height="2.6" width="2.6" x="45.0" y="45.5"><title>2023-03-06 10.9 km</title></rect><rect fill="#444444" height="2.6" width="2.6" x="45.0" y="49.0"><title>2023-03-07</title></rect><rect fill="#4dd2ff" height="2.6" width="2.6" x="45.0" y="52.5"><title>2023-03-08 10.0 km</title></rect><rect fill="#4dd2ff" height="2.6" width="2.6" x="45.0" y="56.0"><title>2023-03-09 9.1 km</title></rect><rect fill="#444444" height="2.6" width="2.6" x="45.0" y="59.5"><title>2023-03-10</title></rect><rect fill="#444444" height="2.6" width="2.6" x="45.0" y="63.0"><title>2023-03-11</title></rect><rect fill="#444444" height="2.6" width="2.6" x="45.0" y="66.5"><title>2023-03-12</title></rect><rect fill="#ffa200" height="2.6" width="2.6" x="48.5" y="45.5"><title>2023-03-13 11.9 km</title></rect><rect fill="#444444" height="2.6" width="2.6" x="48.5" y="49.0"><title>2023-03-14</title></rect><rect fill="#444444" height="2.6" width="2.6" x="48.5" y="52.5"><title>2023-03-15</title></rect><rect fill="#4dd2ff" height="2.6" width="2.6" x="48.5" y="56.0"><title>2023-03-16 9.2 km</title></rect><rect fill="#444444" height="2.6" width="2.6" x="48.5" y="59.5"><title>2023-03-17</title></rect><rect fill="#444444" height="2.6" width="2.6" x="48.5" y="63.0"><title>2023-03-18</title></rect><rect fill="red" height="2.6" width="2.6" x="48.5" y="66.5"><title>2023-03-19 21.8 km</title></rect><rect fill="#444444" height="2.6" width="2.6" x="52.0" y="45.5"><title>2023-03-20</title></rect><rect fill="#444444" height="2.6" width="2.6" x="52.0" y="49.0"><title>2023-03-21</title></rect><rect fill="#444444" height="2.6" width="2.6" x="52.0" y="52.5"><title>2023-03-22</title></rect><rect fill="#444444" height="2.6" width="2.6" x="52.0" y="56.0"><title>2023-03-23</title></rect><rect fill="#4dd2ff" height="2.6" width="2.6" x="52.0" y="59.5"><title>2023-03-24 1.0 km</title></rect><rect fill="#444444" height="2.6" width="2.6" x="52.0" y="63.0"><title>2023-03-25</title></rect><rect fill="#444444" height="2.6" width="2.6" x="52.0" y="66.5"><title>2023-03-26</title></rect><rect fill="#444444" height="2.6" width="2.6" x="55.5" y="45.5"><title>2023-03-27</title></rect><rect fill="#ffb100" height="2.6" width="2.6" x="55.5" y="49.0"><title>2023-03-28 10.1 km</title></rect><rect fill="#444444" height="2.6" width="2.6" x="55.5" y="52.5"><title>2023-03-29</title></rect><rect fill="#ffb000" height="2.6" width="2.6" x="55.5" y="56.0"><title>2023-03-30 10.2 km</title></rect><rect fill="#444444" height="2.6" width="2.6" x="55.5" y="59.5"><title>2023-03-31</title></rect><rect fill="#444444" height="2.6" width="2.6" x="55.5" y="63.0"><title>2023-04-01</title></rect><rect fill="#444444" height="2.6" width="2.6" x="55.5" y="66.5"><title>2023-04-02</title></rect><rect fill="#ffab00" height="2.6" width="2.6" x="59.0" y="45.5"><title>2023-04-03 10.8 km</title></rect><rect fill="#444444" height="2.6" width="2.6" x="59.0" y="49.0"><title>2023-04-04</title></rect><rect fill="#ffaa00" height="2.6" width="2.6" x="59.0" y="52.5"><title>2023-04-05 10.9 km</title></rect><rect fill="#444444" height="2.6" width="2.6" x="59.0" y="56.0"><title>2023-04-06</title></rect><rect fill="#4dd2ff" height="2.6" width="2.6" x="59.0" y="59.5"><title>2023-04-07 8.0 km</title></rect><rect fill="#444444" height="2.6" width="2.6" x="59.0" y="63.0"><title>2023-04-08</title></rect><rect fill="#444444" height="2.6" width="2.6" x="59.0" y="66.5"><title>2023-04-09</title></rect><rect fill="#ff9800" height="2.6" width="2.6" x="62.5" y="45.5"><title>2023-04-10 13.0 km</title></rect><rect fill="#ffb100" height="2.6" width="2.6" x="62.5" y="49.0"><title>2023-04-11 10.1 km</title></rect><rect fill="#444444" height="2.6" width="2.6" x="62.5" y="52.5"><title>2023-04-12</title></rect><rect fill="#444444" height="2.6" width="2.6" x="62.5" y="56.0"><title>2023-04-13</title></rect><rect fill="#ffaa00" height="2.6" width="2.6" x="62.5" y="59.5"><title>2023-04-14 10.9 km</title></rect><rect fill="#444444" height="2.6" width="2.6" x="62.5" y="63.0"><title>2023-04-15</title></rect><rect fill="#ff9d00" height="2.6" width="2.6" x="62.5" y="66.5"><title>2023-04-16 12.4 km</title></rect><rect fill="#444444" height="2.6" width="2.6" x="66.0" y="45.5"><title>2023-04-17</title></rect><rect fill="#ffaa00" height="2.6" width="2.6" x="66.0" y="49.0"><title>2023-04-18 10.9 km</title></rect><rect fill="#444444" height="2.6" width="2.6" x="66.0" y="52.5"><title>2023-04-19</title></rect><rect fill="#ffa700" height="2.6" width="2.6" x="66.0" y="56.0"><title>2023-04-20 11.2 km</title></rect><rect fill="#ffaa00" height="2.6" width="2.6" x="66.0" y="59.5"><title>2023-04-21 10.9 km</title></rect><rect fill="#444444" height="2.6" width="2.6" x="66.0" y="63.0"><title>2023-04-22</title></rect><rect fill="#444444" height="2.6" width="2.6" x="66.0" y="66.5"><title>2023-04-23</title></rect><rect fill="#444444" height="2.6" width="2.6" x="69.5" y="45.5"><title>2023-04-24</title></rect><rect fill="#ffa700" height="2.6" width="2.6" x="69.5" y="49.0"><title>2023-04-25 11.3 km</title></rect><rect fill="#ffaa00" height="2.6" width="2.6" x="69.5" y="52.5"><title>2023-04-26 10.9 km</title></rect><rect fill="#444444" height="2.6" width="2.6" x="69.5" y="56.0"><title>2023-04-27</title></rect><rect fill="#ffa700" height="2.6" width="2.6" x="69.5" y="59.5"><title>2023-04-28 11.3 km</title></rect><rect fill="#444444" height="2.6" width="2.6" x="69.5" y="63.0"><title>2023-04-29</title></rect><rect fill="#4dd2ff" height="2.6" width="2.6" x="69.5" y="66.5"><title>2023-04-30 8.0 km</title></rect><rect fill="#444444" height="2.6" width="2.6" x="73.0" y="45.5"><title>2023-05-01</title></rect><rect fill="#ffa700" height="2.6" width="2.6" x="73.0" y="49.0"><title>2023-05-02 11.3 km</title></rect><rect fill="#ffa200" height="2.6" width="2.6" x="73.0" y="52.5"><title>2023-05-03 11.8 km</title></rect><rect fill="#444444" height="2.6" width="2.6" x="73.0" y="56.0"><title>2023-05-04</title></rect><rect fill="#444444" height="2.6" width="2.6" x="73.0" y="59.5"><title>2023-05-05</title></rect><rect fill="#444444" height="2.6" width="2.6" x="73.0" y="63.0"><title>2023-05-06</title></rect><rect fill="#ffb000" height="2.6" width="2.6" x="73.0" y="66.5"><title>2023-05-07 10.3 km</title></rect><rect fill="#444444" height="2.6" width="2.6" x="76.5" y="45.5"><title>2023-05-08</title></rect><rect fill="#ffaa00" height="2.6" width="2.6" x="76.5" y="49.0"><title>2023-05-09 10.9 km</title></rect><rect fill="#ffb100" height="2.6" width="2.6" x="76.5" y="52.5"><title>2023-05-10 10.1 km</title></rect><rect fill="#444444" height="2.6" width="2.6" x="76.5" y="56.0"><title>2023-05-11</title></rect><rect fill="#ffaa00" height="2.6" width="2.6" x="76.5" y="59.5"><title>2023-05-12 10.9 km</title></rect><rect fill="#444444" height="2.6" width="2.6" x="76.5" y="63.0"><title>2023-05-13</title></rect><rect fill="#4dd2ff" height="2.6" width="2.6" x="76.5" y="66.5"><title>2023-05-14 9.9 km</title></rect><rect fill="#4dd2ff" height="2.6" width="2.6" x="80.0" y="45.5"><title>2023-05-15 10.0 km</title></rect><rect fill="#444444" height="2.6" width="2.6" x="80.0" y="49.0"><title>2023-05-16</title></rect><rect fill="#ffa400" height="2.6" width="2.6" x="80.0" y="52.5"><title>2023-05-17 11.6 km</title></rect><rect fill="#444444" height="2.6" width="2.6" x="80.0" y="56.0"><title>2023-05-18</title></rect><rect fill="#4dd2ff" height="2.6" width="2.6" x="80.0" y="59.5"><title>2023-05-19 9.9 km</title></rect><rect fill="#444444" height="2.6" width="2.6" x="80.0" y="63.0"><title>2023-05-20</title></rect><rect fill="red" height="2.6" width="2.6" x="80.0" y="66.5"><title>2023-05-21 30.6 km</title></rect><rect fill="#444444" height="2.6" width="2.6" x="83.5" y="45.5"><title>2023-05-22</title></rect><rect fill="#ffae00" height="2.6" width="2.6" x="83.5" y="49.0"><title>2023-05-23 10.4 km</title></rect><rect fill="#444444" height="2.6" width="2.6" x="83.5" y="52.5"><title>2023-05-24</title></rect><rect fill="#ffae00" height="2.6" width="2.6" x="83.5" y="56.0"><title>2023-05-25 10.5 km</title></rect><rect fill="#444444" height="2.6" width="2.6" x="83.5" y="59.5"><title>2023-05-26</title></rect><rect fill="#444444" height="2.6" width="2.6" x="83.5" y="63.0"><title>2023-05-27</title></rect><rect fill="red" height="2.6" width="2.6" x="83.5" y="66.5"><title>2023-05-28 22.1 km</title></rect><rect fill="#444444" height="2.6" width="2.6" x="87.0" y="45.5"><title>2023-05-29</title></rect><rect fill="#ffb100" height="2.6" width="2.6" x="87.0" y="49.0"><title>2023-05-30 10.1 km</title></rect><rect fill="#444444" height="2.6" width="2.6" x="87.0" y="52.5"><title>2023-05-31</title></rect><rect fill="#ffb200" height="2.6" width="2.6" x="87.0" y="56.0"><title>2023-06-01 10.0 km</title></rect><rect fill="#ffaf00" height="2.6" width="2.6" x="87.0" y="59.5"><title>2023-06-02 10.4 km</title></rect><rect fill="#444444" height="2.6" width="2.6" x="87.0" y="63.0"><title>2023-06-03</title></rect><rect fill="#ff9700" height="2.6" width="2.6" x="87.0" y="66.5"><title>2023-06-04 13.2 km</title></rect><rect fill="#444444" height="2.6" width="2.6" x="90.5" y="45.5"><title>2023-06-05</title></rect><rect fill="#ffb100" height="2.6" width="2.6" x="90.5" y="49.0"><title>2023-06-06 10.1 km</title></rect><rect fill="#444444" height="2.6" width="2.6" x="90.5" y="52.5"><title>2023-06-07</title></rect><rect fill="#ffa900" height="2.6" width="2.6" x="90.5" y="56.0"><title>2023-06-08 11.0 km</title></rect><rect fill="#444444" height="2.6" width="2.6" x="90.5" y="59.5"><title>2023-06-09</title></rect><rect fill="#444444" height="2.6" width="2.6" x="90.5" y="63.0"><title>2023-06-10</title></rect><rect fill="#ffb000" height="2.6" width="2.6" x="90.5" y="66.5"><title>2023-06-11 10.2 km</title></rect><rect fill="#ffab00" height="2.6" width="2.6" x="94.0" y="45.5"><title>2023-06-12 10.8 km</title></rect><rect fill="#444444" height="2.6" width="2.6" x="94.0" y="49.0"><title>2023-06-13</title></rect><rect fill="#444444" height="2.6" width="2.6" x="94.0" y="52.5"><title>2023-06-14</title></rect><rect fill="#4dd2ff" height="2.6" width="2.6" x="94.0" y="56.0"><title>2023-06-15 8.3 km</title></rect><rect fill="#ffb100" height="2.6" width="2.6" x="94.0" y="59.5"><title>2023-06-16 10.2 km</title></rect><rect fill="#444444" height="2.6" width="2.6" x="94.0" y="63.0"><title>2023-06-17</title></rect><rect fill="#444444" height="2.6" width="2.6" x="94.0" y="66.5"><title>2023-06-18</title></rect><rect fill="#444444" height="2.6" width="2.6" x="97.5" y="45.5"><title>2023-06-19</title></rect><rect fill="#ffaa00" height="2.6" width="2.6" x="97.5" y="49.0"><title>2023-06-20 10.9 km</title></rect><rect fill="#444444" height="2.6" width="2.6" x="97.5" y="52.5"><title>2023-06-21</title></rect><rect fill="#ffab00" height="2.6" width="2.6" x="97.5" y="56.0"><title>2023-06-22 10.8 km</title></rect><rect fill="#ffab00" height="2.6" width="2.6" x="97.5" y="59.5"><title>2023-06-23 10.8 km</title></rect><rect fill="red" height="2.6" width="2.6" x="97.5" y="63.0"><title>2023-06-24 15.1 km</title></rect><rect fill="#444444" height="2.6" width="2.6" x="97.5" y="66.5"><title>2023-06-25</title></rect><rect fill="#ffab00" height="2.6" width="2.6" x="101.0" y="45.5"><title>2023-06-26 10.8 km</title></rect><rect fill="#ffb100" height="2.6" width="2.6" x="101.0" y="49.0"><title>2023-06-27 10.1 km</title></rect><rect fill="#ffae00" height="2.6" width="2.6" x="101.0" y="52.5"><title>2023-06-28 10.4 km</title></rect><rect fill="#444444" height="2.6" width="2.6" x="101.0" y="56.0"><title>2023-06-29</title></rect><rect fill="#4dd2ff" height="2.6" width="2.6" x="101.0" y="59.5"><title>2023-06-30 8.2 km</title></rect><rect fill="red" height="2.6" width="2.6" x="101.0" y="63.0"><title>2023-07-01 21.3 km</title></rect><rect fill="#444444" height="2.6" width="2.6" x="101.0" y="66.5"><title>2023-07-02</title></rect><rect fill="#ffa900" height="2.6" width="2.6" x="104.5" y="45.5"><title>2023-07-03 11.0 km</title></rect><rect fill="#444444" height="2.6" width="2.6" x="104.5" y="49.0"><title>2023-07-04</title></rect><rect fill="#ffaa00" height="2.6" width="2.6" x="104.5" y="52.5"><title>2023-07-05 10.9 km</title></rect><rect fill="#ffa900" height="2.6" width="2.6" x="104.5" y="56.0"><title>2023-07-06 11.0 km</title></rect><rect fill="#444444" height="2.6" width="2.6" x="104.5" y="59.5"><title>2023-07-07</title></rect><rect fill="red" height="2.6" width="2.6" x="104.5" y="63.0"><title>2023-07-08 16.1 km</title></rect><rect fill="#444444" height="2.6" width="2.6" x="104.5" y="66.5"><title>2023-07-09</title></rect><rect fill="#ffb200" height="2.6" width="2.6" x="108.0" y="45.5"><title>2023-07-10 10.0 km</title></rect><rect fill="#ffae00" height="2.6" width="2.6" x="108.0" y="49.0"><title>2023-07-11 10.5 km</title></rect><rect fill="#ffab00" height="2.6" width="2.6" x="108.0" y="52.5"><title>2023-07-12 10.8 km</title></rect><rect fill="#444444" height="2.6" width="2.6" x="108.0" y="56.0"><title>2023-07-13</title></rect><rect fill="#444444" height="2.6" width="2.6" x="108.0" y="59.5"><title>2023-07-14</title></rect><rect fill="red" height="2.6" width="2.6" x="108.0" y="63.0"><title>2023-07-15 16.2 km</title></rect><rect fill="#444444" height="2.6" width="2.6" x="108.0" y="66.5"><title>2023-07-16</title></rect><rect fill="#ffaa00" height="2.6" width="2.6" x="111.5" y="45.5"><title>2023-07-17 10.9 km</title></rect><rect fill="#ffa800" height="2.6" width="2.6" x="111.5" y="49.0"><title>2023-07-18 11.2 km</title></rect><rect fill="#444444" height="2.6" width="2.6" x="111.5" y="52.5"><title>2023-07-19</title></rect><rect fill="#4dd2ff" height="2.6" width="2.6" x="111.5" y="56.0"><title>2023-07-20 6.0 km</title></rect><rect fill="#ff9900" height="2.6" width="2.6" x="111.5" y="59.5"><title>2023-07-21 12.9 km</title></rect><rect fill="#444444" height="2.6" width="2.6" x="111.5" y="63.0"><title>2023-07-22</title></rect><rect fill="#444444" height="2.6" width="2.6" x="111.5" y="66.5"><title>2023-07-23</title></rect><rect fill="#444444" height="2.6" width="2.6" x="115.0" y="45.5"><title>2023-07-24</title></rect><rect fill="#ffab00" height="2.6" width="2.6" x="115.0" y="49.0"><title>2023-07-25 10.8 km</title></rect><rect fill="#ffaa00" height="2.6" width="2.6" x="115.0" y="52.5"><title>2023-07-26 10.9 km</title></rect><rect fill="#ffb100" height="2.6" width="2.6" x="115.0" y="56.0"><title>2023-07-27 10.0 km</title></rect><rect fill="#ffa800" height="2.6" width="2.6" x="115.0" y="59.5"><title>2023-07-28 11.1 km</title></rect><rect fill="#444444" height="2.6" width="2.6" x="115.0" y="63.0"><title>2023-07-29</title></rect><rect fill="red" height="2.6" width="2.6" x="115.0" y="66.5"><title>2023-07-30 22.2 km</title></rect><rect fill="#ffb200" height="2.6" width="2.6" x="118.5" y="45.5"><title>2023-07-31 10.0 km</title></rect><rect fill="#ffad00" height="2.6" width="2.6" x="118.5" y="49.0"><title>2023-08-01 10.5 km</title></rect><rect fill="#ffaa00" height="2.6" width="2.6" x="118.5" y="52.5"><title>2023-08-02 10.9 km</title></rect><rect fill="#ffac00" height="2.6" width="2.6" x="118.5" y="56.0"><title>2023-08-03 10.7 km</title></rect><rect fill="#444444" height="2.6" width="2.6" x="118.5" y="59.5"><title>2023-08-04</title></rect><rect fill="#ffb100" height="2.6" width="2.6" x="118.5" y="63.0"><title>2023-08-05 10.0 km</title></rect><rect fill="#444444" height="2.6" width="2.6" x="118.5" y="66.5"><title>2023-08-06</title></rect><rect fill="#ffb100" height="2.6" width="2.6" x="122.0" y="45.5"><title>2023-08-07 10.1 km</title></rect><rect fill="#ffad00" height="2.6" width="2.6" x="122.0" y="49.0"><title>2023-08-08 10.5 km</title></rect><rect fill="#ffb100" height="2.6" width="2.6" x="122.0" y="52.5"><title>2023-08-09 10.1 km</title></rect><rect fill="#444444" height="2.6" width="2.6" x="122.0" y="56.0"><title>2023-08-10</title></rect><rect fill="#ffb100" height="2.6" width="2.6" x="122.0" y="59.5"><title>2023-08-11 10.1 km</title></rect><rect fill="red" height="2.6" width="2.6" x="122.0" y="63.0"><title>2023-08-12 16.2 km</title></rect><rect fill="#444444" height="2.6" width="2.6" x="122.0" y="66.5"><title>2023-08-13</title></rect><rect fill="#444444" height="2.6" width="2.6" x="125.5" y="45.5"><title>2023-08-14</title></rect><rect fill="#ffac00" height="2.6" width="2.6" x="125.5" y="49.0"><title>2023-08-15 10.7 km</title></rect><rect fill="#ffb100" height="2.6" width="2.6" x="125.5" y="52.5"><title>2023-08-16 10.1 km</title></rect><rect fill="#ffa800" height="2.6" width="2.6" x="125.5" y="56.0"><title>2023-08-17 11.1 km</title></rect><rect fill="#ffb200" height="2.6" width="2.6" x="125.5" y="59.5"><title>2023-08-18 10.0 km</title></rect><rect fill="#444444" height="2.6" width="2.6" x="125.5" y="63.0"><title>2023-08-19</title></rect><rect fill="#ffb100" height="2.6" width="2.6" x="125.5" y="66.5"><title>2023-08-20 10.1 km</title></rect><rect fill="#444444" height="2.6" width="2.6" x="129.0" y="45.5"><title>2023-08-21</title></rect><rect fill="#ffac00" height="2.6" width="2.6" x="129.0" y="49.0"><title>2023-08-22 10.7 km</title></rect><rect fill="#ffae00" height="2.6" width="2.6" x="129.0" y="52.5"><title>2023-08-23 10.5 km</title></rect><rect fill="#ffaf00" height="2.6" width="2.6" x="129.0" y="56.0"><title>2023-08-24 10.3 km</title></rect><rect fill="#ffae00" height="2.6" width="2.6" x="129.0" y="59.5"><title>2023-08-25 10.5 km</title></rect><rect fill="#444444" height="2.6" width="2.6" x="129.0" y="63.0"><title>2023-08-26</title></rect><rect fill="red" height="2.6" width="2.6" x="129.0" y="66.5"><title>2023-08-27 21.1 km</title></rect><rect fill="#444444" height="2.6" width="2.6" x="132.5" y="45.5"><title>2023-08-28</title></rect><rect fill="#ffaf00" height="2.6" width="2.6" x="132.5" y="49.0"><title>2023-08-29 10.3 km</title></rect><rect fill="#ffb100" height="2.6" width="2.6" x="132.5" y="52.5"><title>2023-08-30 10.1 km</title></rect><rect fill="#ffac00" height="2.6" width="2.6" x="132.5" y="56.0"><title>2023-08-31 10.7 km</title></rect><rect fill="#444444" height="2.6" width="2.6" x="132.5" y="59.5"><title>2023-09-01</title></rect><rect fill="red" height="2.6" width="2.6" x="132.5" y="63.0"><title>2023-09-02 16.1 km</title></rect><rect fill="#444444" height="2.6" width="2.6" x="132.5" y="66.5"><title>2023-09-03</title></rect><rect fill="#ffa600" height="2.6" width="2.6" x="136.0" y="45.5"><title>2023-09-04 11.4 km</title></rect><rect fill="#ffa700" height="2.6" width="2.6" x="136.0" y="49.0"><title>2023-09-05 11.3 km</title></rect><rect fill="#ffa700" height="2.6" width="2.6" x="136.0" y="52.5"><title>2023-09-06 11.2 km</title></rect><rect fill="#ffaa00" height="2.6" width="2.6" x="136.0" y="56.0"><title>2023-09-07 10.9 km</title></rect><rect fill="#444444" height="2.6" width="2.6" x="136.0" y="59.5"><title>2023-09-08</title></rect><rect fill="red" height="2.6" width="2.6" x="136.0" y="63.0"><title>2023-09-09 19.1 km</title></rect><rect fill="#444444" height="2.6" width="2.6" x="136.0" y="66.5"><title>2023-09-10</title></rect><rect fill="#ffa700" height="2.6" width="2.6" x="139.5" y="45.5"><title>2023-09-11 11.3 km</title></rect><rect fill="#ffa700" height="2.6" width="2.6" x="139.5" y="49.0"><title>2023-09-12 11.3 km</title></rect><rect fill="#ffa600" height="2.6" width="2.6" x="139.5" y="52.5"><title>2023-09-13 11.3 km</title></rect><rect fill="#ffa700" height="2.6" width="2.6" x="139.5" y="56.0"><title>2023-09-14 11.3 km</title></rect><rect fill="#444444" height="2.6" width="2.6" x="139.5" y="59.5"><title>2023-09-15</title></rect><rect fill="red" height="2.6" width="2.6" x="139.5" y="63.0"><title>2023-09-16 30.5 km</title></rect><rect fill="#444444" height="2.6" width="2.6" x="139.5" y="66.5"><title>2023-09-17</title></rect><rect fill="#444444" height="2.6" width="2.6" x="143.0" y="45.5"><title>2023-09-18</title></rect><rect fill="#ffa400" height="2.6" width="2.6" x="143.0" y="49.0"><title>2023-09-19 11.6 km</title></rect><rect fill="#ffa700" height="2.6" width="2.6" x="143.0" y="52.5"><title>2023-09-20 11.2 km</title></rect><rect fill="#ffa600" height="2.6" width="2.6" x="143.0" y="56.0"><title>2023-09-21 11.4 km</title></rect><rect fill="#444444" height="2.6" width="2.6" x="143.0" y="59.5"><title>2023-09-22</title></rect><rect fill="red" height="2.6" width="2.6" x="143.0" y="63.0"><title>2023-09-23 21.3 km</title></rect><rect fill="#444444" height="2.6" width="2.6" x="143.0" y="66.5"><title>2023-09-24</title></rect><rect fill="#444444" height="2.6" width="2.6" x="146.5" y="45.5"><title>2023-09-25</title></rect><rect fill="#ffa900" height="2.6" width="2.6" x="146.5" y="49.0"><title>2023-09-26 11.0 km</title></rect><rect fill="#ffa700" height="2.6" width="2.6" x="146.5" y="52.5"><title>2023-09-27 11.3 km</title></rect><rect fill="#ffaa00" height="2.6" width="2.6" x="146.5" y="56.0"><title>2023-09-28 10.9 km</title></rect><rect fill="#444444" height="2.6" width="2.6" x="146.5" y="59.5"><title>2023-09-29</title></rect><rect fill="red" height="2.6" width="2.6" x="146.5" y="63.0"><title>2023-09-30 21.2 km</title></rect><rect fill="#444444" height="2.6" width="2.6" x="146.5" y="66.5"><title>2023-10-01</title></rect><rect fill="#ff9400" height="2.6" width="2.6" x="150.0" y="45.5"><title>2023-10-02 13.4 km</title></rect><rect fill="#ffa900" height="2.6" width="2.6" x="150.0" y="49.0"><title>2023-10-03 11.0 km</title></rect><rect fill="#ffa900" height="2.6" width="2.6" x="150.0" y="52.5"><title>2023-10-04 11.0 km</title></rect><rect fill="#ffaa00" height="2.6" width="2.6" x="150.0" y="56.0"><title>2023-10-05 11.0 km</title></rect><rect fill="#444444" height="2.6" width="2.6" x="150.0" y="59.5"><title>2023-10-06</title></rect><rect fill="red" height="2.6" width="2.6" x="150.0" y="63.0"><title>2023-10-07 16.9 km</title></rect><rect fill="#444444" height="2.6" width="2.6" x="150.0" y="66.5"><title>2023-10-08</title></rect><rect fill="#ffa400" height="2.6" width="2.6" x="153.5" y="45.5"><title>2023-10-09 11.6 km</title></rect><rect fill="#444444" height="2.6" width="2.6" x="153.5" y="49.0"><title>2023-10-10</title></rect><rect fill="#ffb200" height="2.6" width="2.6" x="153.5" y="52.5"><title>2023-10-11 10.0 km</title></rect><rect fill="#ffae00" height="2.6" width="2.6" x="153.5" y="56.0"><title>2023-10-12 10.5 km</title></rect><rect fill="#444444" height="2.6" width="2.6" x="153.5" y="59.5"><title>2023-10-13</title></rect><rect fill="#444444" height="2.6" width="2.6" x="153.5" y="63.0"><title>2023-10-14</title></rect><rect fill="red" height="2.6" width="2.6" x="153.5" y="66.5"><title>2023-10-15 21.2 km</title></rect><rect fill="#444444" height="2.6" width="2.6" x="157.0" y="45.5"><title>2023-10-16</title></rect><rect fill="#4dd2ff" height="2.6" width="2.6" x="157.0" y="49.0"><title>2023-10-17 8.3 km</title></rect><rect fill="#ffb100" height="2.6" width="2.6" x="157.0" y="52.5"><title>2023-10-18 10.1 km</title></rect><rect fill="#ffa200" height="2.6" width="2.6" x="157.0" y="56.0"><title>2023-10-19 11.8 km</title></rect><rect fill="#444444" height="2.6" width="2.6" x="157.0" y="59.5"><title>2023-10-20</title></rect><rect fill="red" height="2.6" width="2.6" x="157.0" y="63.0"><title>2023-10-21 26.0 km</title></rect><rect fill="#444444" height="2.6" width="2.6" x="157.0" y="66.5"><title>2023-10-22</title></rect><rect fill="#ffb100" height="2.6" width="2.6" x="160.5" y="45.5"><title>2023-10-23 10.1 km</title></rect><rect fill="#ffa600" height="2.6" width="2.6" x="160.5" y="49.0"><title>2023-10-24 11.4 km</title></rect><rect fill="#444444" height="2.6" width="2.6" x="160.5" y="52.5"><title>2023-10-25</title></rect><rect fill="#ffa400" height="2.6" width="2.6" x="160.5" y="56.0"><title>2023-10-26 11.6 km</title></rect><rect fill="#444444" height="2.6" width="2.6" x="160.5" y="59.5"><title>2023-10-27</title></rect><rect fill="red" height="2.6" width="2.6" x="160.5" y="63.0"><title>2023-10-28 22.0 km</title></rect><rect fill="#ffb100" height="2.6" width="2.6" x="160.5" y="66.5"><title>2023-10-29 10.0 km</title></rect><rect fill="#444444" height="2.6" width="2.6" x="164.0" y="45.5"><title>2023-10-30</title></rect><rect fill="#ffaa00" height="2.6" width="2.6" x="164.0" y="49.0"><title>2023-10-31 10.9 km</title></rect><rect fill="#444444" height="2.6" width="2.6" x="164.0" y="52.5"><title>2023-11-01</title></rect><rect fill="#ffa700" height="2.6" width="2.6" x="164.0" y="56.0"><title>2023-11-02 11.3 km</title></rect><rect fill="#ffb100" height="2.6" width="2.6" x="164.0" y="59.5"><title>2023-11-03 10.1 km</title></rect><rect fill="red" height="2.6" width="2.6" x="164.0" y="63.0"><title>2023-11-04 22.0 km</title></rect><rect fill="#444444" height="2.6" width="2.6" x="164.0" y="66.5"><title>2023-11-05</title></rect><rect fill="#ffa200" height="2.6" width="2.6" x="167.5" y="45.5"><title>2023-11-06 11.9 km</title></rect><rect fill="#ffa700" height="2.6" width="2.6" x="167.5" y="49.0"><title>2023-11-07 11.3 km</title></rect><rect fill="#ffa600" height="2.6" width="2.6" x="167.5" y="52.5"><title>2023-11-08 11.3 km</title></rect><rect fill="#ffa600" height="2.6" width="2.6" x="167.5" y="56.0"><title>2023-11-09 11.3 km</title></rect><rect fill="#444444" height="2.6" width="2.6" x="167.5" y="59.5"><title>2023-11-10</title></rect><rect fill="#ffa700" height="2.6" width="2.6" x="167.5" y="63.0"><title>2023-11-11 11.2 km</title></rect><rect fill="#444444" height="2.6" width="2.6" x="167.5" y="66.5"><title>2023-11-12</title></rect><rect fill="#444444" height="2.6" width="2.6" x="171.0" y="45.5"><title>2023-11-13</title></rect><rect fill="red" height="2.6" width="2.6" x="171.0" y="49.0"><title>2023-11-14 16.1 km</title></rect><rect fill="#ffa400" height="2.6" width="2.6" x="171.0" y="52.5"><title>2023-11-15 11.6 km</title></rect><rect fill="#ffa200" height="2.6" width="2.6" x="171.0" y="56.0"><title>2023-11-16 11.8 km</title></rect><rect fill="#444444" height="2.6" width="2.6" x="171.0" y="59.5"><title>2023-11-17</title></rect><rect fill="#444444" height="2.6" width="2.6" x="171.0" y="63.0"><title>2023-11-18</title></rect><rect fill="red" height="2.6" width="2.6" x="171.0" y="66.5"><title>2023-11-19 27.6 km</title></rect><rect fill="#ffae00" height="2.6" width="2.6" x="174.5" y="45.5"><title>2023-11-20 10.5 km</title></rect><rect fill="#ffb100" height="2.6" width="2.6" x="174.5" y="49.0"><title>2023-11-21 10.1 km</title></rect><rect fill="#444444" height="2.6" width="2.6" x="174.5" y="52.5"><title>2023-11-22</title></rect><rect fill="#444444" height="2.6" width="2.6" x="174.5" y="56.0"><title>2023-11-23</title></rect><rect fill="#444444" height="2.6" width="2.6" x="174.5" y="59.5"><title>2023-11-24</title></rect><rect fill="#ffb000" height="2.6" width="2.6" x="174.5" y="63.0"><title>2023-11-25 10.2 km</title></rect><rect fill="#444444" height="2.6" width="2.6" x="174.5" y="66.5"><title>2023-11-26</title></rect><rect fill="#444444" height="2.6" width="2.6" x="178.0" y="45.5"><title>2023-11-27</title></rect><rect fill="#ff9b00" height="2.6" width="2.6" x="178.0" y="49.0"><title>2023-11-28 12.6 km</title></rect><rect fill="#444444" height="2.6" width="2.6" x="178.0" y="52.5"><title>2023-11-29</title></rect><rect fill="#ffaf00" height="2.6" width="2.6" x="178.0" y="56.0"><title>2023-11-30 10.4 km</title></rect><rect fill="#444444" height="2.6" width="2.6" x="178.0" y="59.5"><title>2023-12-01</title></rect><rect fill="#444444" height="2.6" width="2.6" x="178.0" y="63.0"><title>2023-12-02</title></rect><rect fill="red" height="2.6" width="2.6" x="178.0" y="66.5"><title>2023-12-03 23.6 km</title></rect><rect fill="#444444" height="2.6" width="2.6" x="181.5" y="45.5"><title>2023-12-04</title></rect><rect fill="#444444" height="2.6" width="2.6" x="181.5" y="49.0"><title>2023-12-05</title></rect><rect fill="#444444" height="2.6" width="2.6" x="181.5" y="52.5"><title>2023-12-06</title></rect><rect fill="#444444" height="2.6" width="2.6" x="181.5" y="56.0"><title>2023-12-07</title></rect><rect fill="#ffb100" height="2.6" width="2.6" x="181.5" y="59.5"><title>2023-12-08 10.0 km</title></rect><rect fill="#444444" height="2.6" width="2.6" x="181.5" y="63.0"><title>2023-12-09</title></rect><rect fill="#ffb000" height="2.6" width="2.6" x="181.5" y="66.5"><title>2023-12-10 10.3 km</title></rect><rect fill="#444444" height="2.6" width="2.6" x="185.0" y="45.5"><title>2023-12-11</title></rect><rect fill="#ffad00" height="2.6" width="2.6" x="185.0" y="49.0"><title>2023-12-12 10.6 km</title></rect><rect fill="#444444" height="2.6" width="2.6" x="185.0" y="52.5"><title>2023-12-13</title></rect><rect fill="#444444" height="2.6" width="2.6" x="185.0" y="56.0"><title>2023-12-14</title></rect><rect fill="#444444" height="2.6" width="2.6" x="185.0" y="59.5"><title>2023-12-15</title></rect><rect fill="#444444" height="2.6" width="2.6" x="185.0" y="63.0"><title>2023-12-16</title></rect><rect fill="#444444" height="2.6" width="2.6" x="185.0" y="66.5"><title>2023-12-17</title></rect><rect fill="#444444" height="2.6" width="2.6" x="188.5" y="45.5"><title>2023-12-18</title></rect><rect fill="#444444" height="2.6" width="2.6" x="188.5" y="49.0"><title>2023-12-19</title></rect><rect fill="#444444" height="2.6" width="2.6" x="188.5" y="52.5"><title>2023-12-20</title></rect><rect fill="#444444" height="2.6" width="2.6" x="188.5" y="56.0"><title>2023-12-21</title></rect><rect fill="#4dd2ff" height="2.6" width="2.6" x="188.5" y="59.5"><title>2023-12-22 8.2 km</title></rect><rect fill="#444444" height="2.6" width="2.6" x="188.5" y="63.0"><title>2023-12-23</title></rect><rect fill="#444444" height="2.6" width="2.6" x="188.5" y="66.5"><title>2023-12-24</title></rect><rect fill="#444444" height="2.6" width="2.6" x="192.0" y="45.5"><title>2023-12-25</title></rect><rect fill="red" height="2.6" width="2.6" x="192.0" y="49.0"><title>2023-12-26 18.4 km</title></rect><rect fill="#444444" height="2.6" width="2.6" x="192.0" y="52.5"><title>2023-12-27</title></rect><rect fill="#444444" height="2.6" width="2.6" x="192.0" y="56.0"><title>2023-12-28</title></rect><rect fill="red" height="2.6" width="2.6" x="192.0" y="59.5"><title>2023-12-29 20.2 km</title></rect><rect fill="#444444" height="2.6" width="2.6" x="192.0" y="63.0"><title>2023-12-30</title></rect><rect fill="#444444" height="2.6" width="2.6" x="192.0" y="66.5"><title>2023-12-31</title></rect></svg>