<?xml version="1.0" encoding="utf-8" ?>
<svg baseProfile="full" height="200mm" version="1.1" viewBox="0,0,200,200" width="200mm" xmlns="http://www.w3.org/2000/svg" xmlns:ev="http://www.w3.org/2001/xml-events" xmlns:xlink="http://www.w3.org/1999/xlink"><defs /><rect fill="#1a1a1a" height="200" width="200" x="0" y="0" /><text alignment-baseline="middle" fill="#e1ed5e" style="dominant-baseline: central; font-size:9.0px; font-family:Arial;" text-anchor="middle" x="100.0" y="100.0">2021</text><line stroke="#e1ed5e" stroke-width="0.3" x1="100.0" x2="100.0" y1="15.0" y2="10.0" /><path d="M 100.0 14.0 a86.0,86.0 0 0,1 42.46469731375804,11.215312516191453" fill="none" id="id61" stroke="none" /><text fill="#e1ed5e" style="font-size:6.75px; font-family:Arial;" text-anchor="middle"><textPath startOffset="22.20632615414155" xlink:href="#id61">January</textPath></text><line stroke="#e1ed5e" stroke-width="0.3" x1="143.23703022742887" x2="145.7803849466894" y1="26.818313649435467" y2="22.513508569990506" /><path d="M 143.74570117128098 25.957352633546478 a86.0,86.0 0 0,1 28.547481713284135,27.462654790039114" fill="none" id="id62" stroke="none" /><text fill="#e1ed5e" style="font-size:6.75px; font-family:Arial;" text-anchor="middle"><textPath startOffset="19.985693538727396" xlink:href="#id62">February</textPath></text><line stroke="#e1ed5e" stroke-width="0.3" x1="172.23445277983987" x2="176.4835382374775" y1="55.19839476539836" y2="52.563006222186495" /><path d="M 173.08426987136738 54.67131705675599 a86.0,86.0 0 0,1 12.851231095245387,41.99856678651699" fill="none" id="id63" stroke="none" /><text fill="#e1ed5e" style="font-size:6.75px; font-family:Arial;" text-anchor="middle"><textPath startOffset="22.20632615414155" xlink:href="#id63">March</textPath></text><path d="M 120.6074358757038 95.95851677861258 l 42.89763616715549 -8.412986353685326 a64.71482046305283,64.71482046305283 0 0,0 0.20497425882873255,1.0949806868379512 l -43.036096149894085 7.673327589384812" fill="#8aff24" stroke="none" /><path d="M 120.78858239683441 97.02765380044208 l 46.60354600815368 -6.663363100908283 a68.07749896021073,68.07749896021073 0 0,0 0.15587802495918707,1.1614723426454956 l -46.7113400321707 5.8601724161981235" fill="#4fff2b" stroke="none" /><path d="M 120.87857604477298 97.74499172005257 l 48.65492648503938 -5.255016522616987 a69.937889920976,69.937889920976 0 0,0 0.1189705929379596,1.1980176350226066 l -48.738174203659575 4.416723356889945" fill="#30ff2f" stroke="none" /><path d="M 120.96714384426684 98.82574320788733 l 52.38443078019311 -2.93376981154338 a73.46651878552613,73.46651878552613 0 0,0 0.059845097717447664,1.2632354270726776 l -52.42716948614405 2.0316232778477024" fill="#37ff76" stroke="none" /><line stroke="#e1ed5e" stroke-width="0.3" x1="184.98032266829074" x2="189.97916517819016" y1="98.17113171792111" y2="98.06355123074" /><path d="M 185.9800911702706 98.14961562048488 a86.0,86.0 0 0,1 -9.607161424134198,41.387399972396054" fill="none" id="id64" stroke="none" /><text fill="#e1ed5e" style="font-size:6.75px; font-family:Arial;" text-anchor="middle"><textPath startOffset="21.466115282336823" xlink:href="#id64">April</textPath></text><path d="M 120.99513854157772 99.54816195383933 l 54.71601473791456 -1.1775477043848919 a75.72868431997782,75.72868431997782 0 0,0 0.01682977289076678,1.3034844574503404 l -54.728177517923044 0.23552698887408885" fill="#3cffa0" stroke="none" /><path d="M 120.9764740272857 100.99374915477107 l 52.381568027099696 2.4815485617269384 a73.44031609593789,73.44031609593789 0 0,0 -0.07069032287010583,1.2622232019186117 l -52.33109135334206 -3.3828434799809735" fill="#37ff75" stroke="none" /><path d="M 120.70491114924044 103.5080841355445 l 52.06511554483891 8.82152087210677 a73.8071537501733,73.8071537501733 0 0,0 -0.22301554696509454,1.2507896229255764 l -51.90555355553463 -9.716429245765564" fill="#37ff7c" stroke="none" /><path d="M 120.64145759157962 103.86396538481128 l 52.497925900114836 9.827318034709963 a74.4098156107029,74.4098156107029 0 0,0 -0.24650932663357503,1.256945745681057 l -52.3209866405056 -10.729527507458965" fill="#39ff88" stroke="none" /><path d="M 120.5718875245553 104.21870165774334 l 51.824728713253045 10.627759298884538 a73.90323027866353,73.90323027866353 0 0,0 -0.26628376001923426,1.2439890763815287 l -51.63411091450937 -11.518262194682235" fill="#38ff7e" stroke="none" /><path d="M 119.9155931802556 106.66101706037122 l 25.15610279568956 8.413770475120229 a47.52585609316512,47.52585609316512 0 0,0 -0.2661655449442258,0.7736016629377874 l -25.007546419802104 -8.845544841147317" fill="#ff0000" stroke="none" /><path d="M 119.79798401119884 107.00284435728193 l 50.17977869024498 17.749341541637058 a74.22639678358519,74.22639678358519 0 0,0 -0.4364361521796401,1.2008848489295323 l -49.86681827706012 -18.61047418757272" fill="#38ff84" stroke="none" /><path d="M 118.81262510543309 109.33194174019688 l 48.30825484581057 23.96315332204722 a74.92513517260502,74.92513517260502 0 0,0 -0.5830650122071686,1.1504425844768005 l -47.88861116381713 -24.791150118226714" fill="#3aff91" stroke="none" /><path d="M 118.64920377521936 109.65438752849418 l 55.94761132565807 28.96316258548255 a84.0,84.0 0 0,0 -0.6757899671004277,1.2783399396554627 l -55.44076885033275 -29.921917540224147" fill="#4dd2ff" stroke="none" /><line stroke="#e1ed5e" stroke-width="0.3" x1="174.80103733775053" x2="179.2010983576182" y1="140.37084112569926" y2="142.7455964860345" /><path d="M 175.68104954172406 140.8457921977663 a86.0,86.0 0 0,1 -30.038265399797805,32.042727171017184" fill="none" id="id65" stroke="none" /><text fill="#e1ed5e" style="font-size:6.75px; font-family:Arial;" text-anchor="middle"><textPath startOffset="22.206326154141568" xlink:href="#id65">May</textPath></text><path d="M 118.12598468904814 110.60418214915192 l 46.31888947574314 27.097779755048983 a74.66310827672258,74.66310827672258 0 0,0 -0.6585255015553727,1.1037266189228976 l -45.84558309848954 -27.891068467857984" fill="#39ff8c" stroke="none" /><line stroke="#e1ed5e" stroke-width="0.3" x1="143.8653032363475" x2="146.44561519142675" y1="172.8068346515853" y2="177.08958963109032" /><path d="M 144.38136562736335 173.6633856474863 a86.0,86.0 0 0,1 -40.68145358897372,12.25698825130547" fill="none" id="id66" stroke="none" /><text fill="#e1ed5e" style="font-size:6.75px; font-family:Arial;" text-anchor="middle"><textPath startOffset="21.466115282336833" xlink:href="#id66">June</textPath></text><line stroke="#e1ed5e" stroke-width="0.3" x1="102.19456741930631" x2="102.32365962044197" y1="184.97166512339345" y2="189.96999836594603" /><path d="M 102.22038585953345 185.97133177190398 a86.0,86.0 0 0,1 -42.740103519485714,-10.115201625700543" fill="none" id="id67" stroke="none" /><text fill="#e1ed5e" style="font-size:6.75px; font-family:Arial;" text-anchor="middle"><textPath startOffset="22.20632615414155" xlink:href="#id67">July</textPath></text><line stroke="#e1ed5e" stroke-width="0.3" x1="58.666819895761336" x2="56.23545636021788" y1="174.27360380694188" y2="178.64263932499728" /><path d="M 58.180547188652646 175.14741091055294 a86.0,86.0 0 0,1 -31.652253787137756,-30.449443065178592" fill="none" id="id68" stroke="none" /><text fill="#e1ed5e" style="font-size:6.75px; font-family:Arial;" text-anchor="middle"><textPath startOffset="22.20632615414155" xlink:href="#id68">August</textPath></text><line stroke="#e1ed5e" stroke-width="0.3" x1="26.63291911575756" x2="22.317208475507996" y1="142.92168965132927" y2="145.44649492493687" /><path d="M 25.769776987707644 143.4266507060508 a86.0,86.0 0 0,1 -11.730757126820373,-40.83630448921669" fill="none" id="id69" stroke="none" /><text fill="#e1ed5e" style="font-size:6.75px; font-family:Arial;" text-anchor="middle"><textPath startOffset="21.46611528233685" xlink:href="#id69">September</textPath></text><line stroke="#e1ed5e" stroke-width="0.3" x1="15.007084014347285" x2="10.007500721073583" y1="101.09737516637583" y2="101.16192664675087" /><path d="M 14.007167355692545 101.11028546245083 a86.0,86.0 0 0,1 10.666146001902526,-42.60595125391555" fill="none" id="id70" stroke="none" /><text fill="#e1ed5e" style="font-size:6.75px; font-family:Arial;" text-anchor="middle"><textPath startOffset="22.20632615414155" xlink:href="#id70">October</textPath></text><line stroke="#e1ed5e" stroke-width="0.3" x1="26.266209847984243" x2="21.928928074336255" y1="57.71137044288968" y2="55.22380399835378" /><path d="M 25.398753493254645 57.2138571539825 a86.0,86.0 0 0,1 29.58750427330803,-30.4925239686951" fill="none" id="id71" stroke="none" /><text fill="#e1ed5e" style="font-size:6.75px; font-family:Arial;" text-anchor="middle"><textPath startOffset="21.46611528233685" xlink:href="#id71">November</textPath></text><line stroke="#e1ed5e" stroke-width="0.3" x1="56.76296977257108" x2="54.21961505331056" y1="26.818313649435495" y2="22.513508569990535" /><path d="M 56.25429882871898 25.957352633546506 a86.0,86.0 0 0,1 42.26535254187918,-11.944610805530505" fill="none" id="id72" stroke="none" /><text fill="#e1ed5e" style="font-size:6.75px; font-family:Arial;" text-anchor="middle"><textPath startOffset="22.20632615414155" xlink:href="#id72">December</textPath></text></svg>