<?xml version="1.0" encoding="utf-8" ?>
<svg baseProfile="full" height="200mm" version="1.1" viewBox="0,0,200,200" width="200mm" xmlns="http://www.w3.org/2000/svg" xmlns:ev="http://www.w3.org/2001/xml-events" xmlns:xlink="http://www.w3.org/1999/xlink"><defs /><rect fill="#1a1a1a" height="200" width="200" x="0" y="0" /><text alignment-baseline="middle" fill="#e1ed5e" style="dominant-baseline: central; font-size:9.0px; font-family:Arial;" text-anchor="middle" x="100.0" y="100.0">2021</text><line stroke="#e1ed5e" stroke-width="0.3" x1="100.0" x2="100.0" y1="15.0" y2="10.0" /><path d="M 100.0 14.0 a86.0,86.0 0 0,1 42.46469731375804,11.215312516191453" fill="none" id="id85" stroke="none" /><text fill="#e1ed5e" style="font-size:6.75px; font-family:Arial;" text-anchor="middle"><textPath startOffset="22.20632615414155" xlink:href="#id85">January</textPath></text><line stroke="#e1ed5e" stroke-width="0.3" x1="143.23703022742887" x2="145.7803849466894" y1="26.81831364943548" y2="22.513508569990506" /><path d="M 143.74570117128098 25.957352633546492 a86.0,86.0 0 0,1 28.547481713284135,27.462654790039103" fill="none" id="id86" stroke="none" /><text fill="#e1ed5e" style="font-size:6.75px; font-family:Arial;" text-anchor="middle"><textPath startOffset="19.985693538727396" xlink:href="#id86">February</textPath></text><line stroke="#e1ed5e" stroke-width="0.3" x1="172.23445277983987" x2="176.4835382374775" y1="55.19839476539836" y2="52.563006222186495" /><path d="M 173.08426987136738 54.67131705675599 a86.0,86.0 0 0,1 12.851231095245387,41.99856678651699" fill="none" id="id87" stroke="none" /><text fill="#e1ed5e" style="font-size:6.75px; font-family:Arial;" text-anchor="middle"><textPath startOffset="22.20632615414155" xlink:href="#id87">March</textPath></text><path d="M 120.6074358757038 95.95851677861258 l 42.59248787441665 -8.353141367992903 a64.40385920682634,64.40385920682634 0 0,0 0.20398933678825704,1.0897191939142838 l -42.72996293511476 7.618744096616056" fill="#8fff24" stroke="none" /><path d="M 120.78858239683441 97.02765380044208 l 46.50801346429252 -6.6497038821958485 a67.98099486085522,67.98099486085522 0 0,0 0.1556570581399331,1.1598258831828925 l -46.615586521490286 5.848159656948292" fill="#50ff2b" stroke="none" /><path d="M 120.87857604477298 97.74499172005257 l 48.64331373886576 -5.253762278136028 a69.92620963832056,69.92620963832056 0 0,0 0.11895072373465977,1.1978175548569185 l -48.72654158828264 4.415669192574675" fill="#2fff30" stroke="none" /><path d="M 120.96714384426684 98.82574320788733 l 52.37327709234635 -2.9331451535638076 a73.45534761950935,73.45534761950935 0 0,0 0.059835997796382344,1.2630433421215 l -52.41600669837623 2.0311907048193074" fill="#37ff76" stroke="none" /><line stroke="#e1ed5e" stroke-width="0.3" x1="184.98032266829074" x2="189.97916517819016" y1="98.17113171792111" y2="98.06355123074" /><path d="M 185.9800911702706 98.14961562048488 a86.0,86.0 0 0,1 -9.607161424134198,41.387399972396054" fill="none" id="id88" stroke="none" /><text fill="#e1ed5e" style="font-size:6.75px; font-family:Arial;" text-anchor="middle"><textPath startOffset="21.466115282336823" xlink:href="#id88">April</textPath></text><path d="M 120.99513854157772 99.54816195383933 l 54.62790158185632 -1.1756514141462937 a75.6405507611752,75.6405507611752 0 0,0 0.01681018628640382,1.3019674533572336 l -54.64004477526044 0.2351477027285975" fill="#3bff9f" stroke="none" /><path d="M 120.9764740272857 100.99374915477107 l 52.365201248096305 2.4807731943901885 a73.4239309609231,73.4239309609231 0 0,0 -0.0706745512810654,1.2619415896015402 l -52.31474034592771 -3.381786500327152" fill="#37ff75" stroke="none" /><path d="M 120.70491114924044 103.5080841355445 l 51.966914934576664 8.804882500636413 a73.70755357316008,73.70755357316008 0 0,0 -0.2227145952710405,1.249101726000688 l -51.807653896966436 -9.69810297737032" fill="#37ff7b" stroke="none" /><path d="M 120.64145759157962 103.86396538481128 l 52.422685899286506 9.813233527476692 a74.33326869000291,74.33326869000291 0 0,0 -0.2462557373762605,1.2556526995213646 l -52.246000228934584 -10.714149954066002" fill="#39ff87" stroke="none" /><path d="M 120.5718875245553 104.21870165774334 l 51.889509374212814 10.64104394675433 a73.96935906137884,73.96935906137884 0 0,0 -0.26652203134838365,1.2451022007067045 l -51.69865330413999 -11.532659966877203" fill="#38ff80" stroke="none" /><path d="M 119.9155931802556 106.66101706037122 l 25.04960142345152 8.378149770729971 a47.413555706389985,47.413555706389985 0 0,0 -0.26553661374549353,0.7717736944781032 l -24.901673978762794 -8.808096168297373" fill="#ff0000" stroke="none" /><path d="M 119.79798401119884 107.00284435728193 l 50.088013738628845 17.71688289972393 a74.12906040919228,74.12906040919228 0 0,0 -0.4358638340482479,1.1993100752327934 l -49.77562564357537 -18.576440771962858" fill="#38ff83" stroke="none" /><path d="M 118.81262510543309 109.33194174019688 l 48.26587173300944 23.942129316241978 a74.87782410549792,74.87782410549792 0 0,0 -0.5826968389919162,1.1497161437944894 l -47.846596224231256 -24.769399671739162" fill="#3aff91" stroke="none" /><path d="M 118.64920377521936 109.65438752849418 l 55.94761132565807 28.96316258548255 a84.0,84.0 0 0,0 -0.6757899671004277,1.2783399396554627 l -55.44076885033275 -29.921917540224147" fill="#4dd2ff" stroke="none" /><line stroke="#e1ed5e" stroke-width="0.3" x1="174.80103733775053" x2="179.2010983576182" y1="140.37084112569926" y2="142.7455964860345" /><path d="M 175.68104954172406 140.8457921977663 a86.0,86.0 0 0,1 -30.038265399797805,32.042727171017184" fill="none" id="id89" stroke="none" /><text fill="#e1ed5e" style="font-size:6.75px; font-family:Arial;" text-anchor="middle"><textPath startOffset="22.206326154141568" xlink:href="#id89">May</textPath></text><path d="M 118.12598468904814 110.60418214915192 l 46.28878992303969 27.080170717804883 a74.62823620672935,74.62823620672935 0 0,0 -0.6582179313522031,1.1032111135709664 l -45.815791115989256 -27.872943925261954" fill="#39ff8c" stroke="none" /><line stroke="#e1ed5e" stroke-width="0.3" x1="143.8653032363475" x2="146.44561519142675" y1="172.8068346515853" y2="177.08958963109032" /><path d="M 144.38136562736335 173.6633856474863 a86.0,86.0 0 0,1 -40.68145358897372,12.25698825130547" fill="none" id="id90" stroke="none" /><text fill="#e1ed5e" style="font-size:6.75px; font-family:Arial;" text-anchor="middle"><textPath startOffset="21.466115282336833" xlink:href="#id90">June</textPath></text><line stroke="#e1ed5e" stroke-width="0.3" x1="102.19456741930631" x2="102.32365962044197" y1="184.97166512339345" y2="189.96999836594603" /><path d="M 102.22038585953345 185.97133177190398 a86.0,86.0 0 0,1 -42.740103519485714,-10.115201625700543" fill="none" id="id91" stroke="none" /><text fill="#e1ed5e" style="font-size:6.75px; font-family:Arial;" text-anchor="middle"><textPath startOffset="22.20632615414155" xlink:href="#id91">July</textPath></text><line stroke="#e1ed5e" stroke-width="0.3" x1="58.666819895761336" x2="56.23545636021788" y1="174.27360380694188" y2="178.64263932499728" /><path d="M 58.180547188652646 175.14741091055294 a86.0,86.0 0 0,1 -31.652253787137756,-30.449443065178592" fill="none" id="id92" stroke="none" /><text fill="#e1ed5e" style="font-size:6.75px; font-family:Arial;" text-anchor="middle"><textPath startOffset="22.20632615414155" xlink:href="#id92">August</textPath></text><line stroke="#e1ed5e" stroke-width="0.3" x1="26.63291911575756" x2="22.317208475507996" y1="142.92168965132927" y2="145.44649492493687" /><path d="M 25.769776987707644 143.4266507060508 a86.0,86.0 0 0,1 -11.730757126820373,-40.83630448921669" fill="none" id="id93" stroke="none" /><text fill="#e1ed5e" style="font-size:6.75px; font-family:Arial;" text-anchor="middle"><textPath startOffset="21.46611528233685" xlink:href="#id93">September</textPath></text><line stroke="#e1ed5e" stroke-width="0.3" x1="15.007084014347285" x2="10.007500721073583" y1="101.09737516637583" y2="101.16192664675087" /><path d="M 14.007167355692545 101.11028546245083 a86.0,86.0 0 0,1 10.666146001902534,-42.60595125391555" fill="none" id="id94" stroke="none" /><text fill="#e1ed5e" style="font-size:6.75px; font-family:Arial;" text-anchor="middle"><textPath startOffset="22.20632615414155" xlink:href="#id94">October</textPath></text><line stroke="#e1ed5e" stroke-width="0.3" x1="26.266209847984243" x2="21.928928074336255" y1="57.711370442889674" y2="55.22380399835377" /><path d="M 25.398753493254645 57.213857153982495 a86.0,86.0 0 0,1 29.58750427330803,-30.492523968695096" fill="none" id="id95" stroke="none" /><text fill="#e1ed5e" style="font-size:6.75px; font-family:Arial;" text-anchor="middle"><textPath startOffset="21.46611528233685" xlink:href="#id95">November</textPath></text><line stroke="#e1ed5e" stroke-width="0.3" x1="56.762969772571076" x2="54.21961505331055" y1="26.818313649435495" y2="22.513508569990535" /><path d="M 56.25429882871897 25.957352633546506 a86.0,86.0 0 0,1 42.265352541879196,-11.944610805530505" fill="none" id="id96" stroke="none" /><text fill="#e1ed5e" style="font-size:6.75px; font-family:Arial;" text-anchor="middle"><textPath startOffset="22.20632615414155" xlink:href="#id96">December</textPath></text><path d="M 99.63851952072746 79.00311137660856 l -0.7528494069774042 -43.72987216433525 a64.73635217686414,64.73635217686414 0 0,0 1.1143298862499291,-0.00959138913745353 l 1.071231673995561e-14 43.736352176864145" fill="#89ff24" stroke="none" /></svg>