<?xml version="1.0" encoding="utf-8" ?>
<svg baseProfile="full" height="200mm" version="1.1" viewBox="0,0,200,200" width="200mm" xmlns="http://www.w3.org/2000/svg" xmlns:ev="http://www.w3.org/2001/xml-events" xmlns:xlink="http://www.w3.org/1999/xlink"><defs /><rect fill="#1a1a1a" height="200" width="200" x="0" y="0" /><text alignment-baseline="middle" fill="#e1ed5e" style="dominant-baseline: central; font-size:9.0px; font-family:Arial;" text-anchor="middle" x="100.0" y="100.0">2024</text><line stroke="#e1ed5e" stroke-width="0.3" x1="100.0" x2="100.0" y1="15.0" y2="10.0" /><path d="M 100.0 14.0 a86.0,86.0 0 0,1 42.35913384403234,11.155469271406648" fill="none" id="id121" stroke="none" /><text fill="#e1ed5e" style="font-size:6.75px; font-family:Arial;" text-anchor="middle"><textPath startOffset="22.145653131862478" xlink:href="#id121">January</textPath></text><path d="M 100.36049292484886 79.00309439819443 l 0.2844947724796366 -16.570394230251864 a37.5728362757113,37.5728362757113 0 0,0 0.6447976164936298,0.016607699346268146 l -0.5689057030440078 16.56306881355555" fill="#ffb710" stroke="none" /><path d="M 101.80034050326958 79.07731436759882 l 3.833593888334085 -44.55217200426342 a65.71680302076777,65.71680302076777 0 0,0 1.123132823671174,0.10636184611845416 l -4.597826275390272 44.47979840263978" fill="#35ff67" stroke="none" /><path d="M 103.23170211078529 79.25015418208739 l 3.216028117762046 -20.64920753893941 a41.89814845483753,41.89814845483753 0 0,0 0.709719713609902,0.1167841087944843 l -3.5700253344250186 20.590957431649258" fill="#fff016" stroke="none" /><path d="M 103.94208987418118 79.37332000966035 l 4.663479804927246 -24.401296938372397 a45.84293332450068,45.84293332450068 0 0,0 0.7716970497038572,0.15436102257713158 l -5.08167334016206 24.317646519132406" fill="#dcff1b" stroke="none" /><path d="M 105.3480935250658 79.69241777938227 l 4.650963914876804 -17.660467541155178 a39.26262793547746,39.26262793547746 0 0,0 0.6502986782923889,0.1772417965183651 l -4.953443994103885 17.57802525049267" fill="#ffcd13" stroke="none" /><path d="M 105.69591212413111 79.78721728523813 l 2.694506000416433 -9.561851222967666 a30.934251929382928,30.934251929382928 0 0,0 0.5098848371343302,0.1484200449485663 l -2.858250849932368 9.514187483716585" fill="#ff5a08" stroke="none" /><path d="M 106.72888874123014 80.10723608172694 l 8.854549206258197 -26.176901378016435 a48.633914080355076,48.633914080355076 0 0,0 0.7885508108199721,0.2742989054286549 l -9.302605789123188 26.02104404001919" fill="#bbff1f" stroke="none" /><path d="M 108.73861861582097 80.90454125486305 l 5.07497497600268 -11.0897362097267 a33.19580338511477,33.19580338511477 0 0,0 0.5161335455877367,0.2415765604455656 l -5.264597235461921 11.000983417710602" fill="#ff7a0b" stroke="none" /><path d="M 109.06512990194946 81.05736502329252 l 10.86557072634096 -22.704863836359703 a46.170845616243255,46.170845616243255 0 0,0 0.7119978636058951,0.34827383375758336 l -11.253728839208923 22.5149962525049" fill="#d8ff1c" stroke="none" /><path d="M 109.71004243097381 81.37971332152246 l 8.381198701817894 -16.072053613207725 a39.12609718127919,39.12609718127919 0 0,0 0.5928743675097622,0.3156722069173944 l -8.655861885114216 15.925810938567759" fill="#ffcb13" stroke="none" /><path d="M 110.02825361518725 81.54914285379988 l 8.669741443272237 -15.951347762291302 a39.155162134410915,39.155162134410915 0 0,0 0.587804401264916,0.3260451927708053 l -8.942290032693254 15.800169654087352" fill="#ffcc13" stroke="none" /><path d="M 110.34350942703115 81.72400993836675 l 7.983712954930636 -14.106455806762378 a37.20900268291875,37.20900268291875 0 0,0 0.5531871857623769,0.31938277061215986 l -8.22469260855341 13.967326138874046" fill="#ffb210" stroke="none" /><line stroke="#e1ed5e" stroke-width="0.3" x1="143.13028292997686" x2="145.6673583964461" y1="26.7553504044142" y2="22.446841604673864" /><path d="M 143.63769802327073 25.89364864446614 a86.0,86.0 0 0,1 29.32050498858742,28.57503671076993" fill="none" id="id122" stroke="none" /><text fill="#e1ed5e" style="font-size:6.75px; font-family:Arial;" text-anchor="middle"><textPath startOffset="20.669276256404974" xlink:href="#id122">February</textPath></text><path d="M 110.65571695917076 81.90426304109057 l 8.291777082233724 -14.08125024125001 a37.34121095690769,37.34121095690769 0 0,0 0.5495688160599425,0.33000028364936806 l -8.532278654851101 13.936835957064721" fill="#ffb310" stroke="none" /><path d="M 111.27062007382361 82.28071324371311 l 20.615864105944848 -32.41156257855739 a59.41254016097513,59.41254016097513 0 0,0 0.8558641439429786,0.5547607978466039 l -21.169213882144835 32.05288793900689" fill="#42ff2d" stroke="none" /><path d="M 112.45986205192187 83.09580414077388 l 10.129898447058897 -13.743152746762672 a38.07305157166043,38.07305157166043 0 0,0 0.5227738392254541,0.39229923495729574 l -10.364325275195117 13.56723448454136" fill="#ffbd11" stroke="none" /><path d="M 112.7482090630111 83.31218511350987 l 11.807341203335248 -15.456188655910386 a40.45011758471067,40.45011758471067 0 0,0 0.5481762477592584,0.42626516587199176 l -12.070927395729733 15.251222438417603" fill="#ffdd14" stroke="none" /><path d="M 113.03279911837588 83.53348406188908 l 8.029863628249114 -10.145470379343855 a33.9386737769534,33.9386737769534 0 0,0 0.4537265008592296,0.365489951478425 l -8.202840899463602 10.006132134072022" fill="#ff840c" stroke="none" /><path d="M 113.31354834802062 83.75963576809568 l 18.97604450362048 -23.14768883274013 a50.9316849392203,50.9316849392203 0 0,0 0.67139036169316,0.560097718550106 l -19.37060919947553 22.818528930278156" fill="#9fff22" stroke="none" /><path d="M 113.86319453409587 84.22622945171908 l 11.921014356615146 -13.5639260274056 a39.05798085522176,39.05798085522176 0 0,0 0.4998212113076728,0.4469432092018515 l -12.152100594746194 13.357287288320363" fill="#ffcb12" stroke="none" /><path d="M 114.13192950727249 84.46653392183569 l 10.89770185895017 -11.978483339365452 a37.19394852770694,37.19394852770694 0 0,0 0.468591022272002,0.4337208545572052 l -11.101722652536138 11.789644738675872" fill="#ffb110" stroke="none" /><path d="M 114.39649973595853 84.71141617570332 l 11.497574112364063 -12.210025271204428 a37.77137226325726,37.77137226325726 0 0,0 0.46823464032141254,0.44855819353183934 l -11.705481238550789 12.010854947367008" fill="#ffb911" stroke="none" /><path d="M 114.65682725009322 84.96080404539774 l 12.231245337515741 -12.550335230194147 a38.52467622801497,38.52467622801497 0 0,0 0.46964897089280905,0.4656349012447127 l -12.444886228538511 12.338520318720775" fill="#ffc312" stroke="none" /><path d="M 115.16444852881244 85.47280134310134 l 29.23420551399758 -28.005707577926906 a61.484051538537976,61.484051538537976 0 0,0 0.7235916502861329,0.7684292573096245 l -29.710652998019974 27.499736860672787" fill="#30ff32" stroke="none" /><path d="M 115.8921839302757 86.27271002978787 l 11.280647949713112 -9.74395502449387 a35.90629657845053,35.90629657845053 0 0,0 0.3989111521942136,0.46991633423696194 l -11.446253665414437 9.548871907807357" fill="#ffa00e" stroke="none" /><path d="M 116.1254893667686 86.54754324733833 l 13.953011602578536 -11.640098534925157 a39.17081249378954,39.17081249378954 0 0,0 0.42631494230775746,0.5200349117754571 l -14.150773364124921 11.398861341451203" fill="#ffcc13" stroke="none" /><path d="M 116.35404254752997 86.82634096563983 l 15.101084097716019 -12.164364399464992 a40.39109337219701,40.39109337219701 0 0,0 0.4303258804976997,0.5437026923714343 l -15.307676408855277 11.90334176317888" fill="#ffdc14" stroke="none" /><path d="M 116.57777611688842 87.10902102172516 l 13.2650369747582 -10.31497298443083 a37.803567288264716,37.803567288264716 0 0,0 0.3939636166661974,0.515711020618045 l -13.440152568778705 10.085741050571901" fill="#ffba11" stroke="none" /><path d="M 117.01052211995028 87.68569379921539 l 19.621015117651993 -14.204101815641195 a45.22273193998211,45.22273193998211 0 0,0 0.44982599549948404,0.6327365959227732 l -19.861956211681438 13.865187993008917" fill="#e4ff1a" stroke="none" /><path d="M 117.42321728460499 88.27688183743584 l 14.898199955011785 -10.024173815270812 a38.956626146864956,38.956626146864956 0 0,0 0.36855855035637974,0.5580446198571296 l -15.06808294428889 9.766949317074625" fill="#ffc912" stroke="none" /><path d="M 117.81537515405839 88.88188828441811 l 13.684921178661023 -8.54040294787874 a37.131198039150746,37.131198039150746 0 0,0 0.33282290424375804,0.5436412014698841 l -13.829512047360183 8.3042246302843" fill="#ffb110" stroke="none" /><line stroke="#e1ed5e" stroke-width="0.3" x1="172.87174338648825" x2="177.1583165268699" y1="56.24261187166439" y2="53.66864786411523" /><path d="M 173.72905801456457 55.72781907015455 a86.0,86.0 0 0,1 12.242430191666344,42.057860355516425" fill="none" id="id123" stroke="none" /><text fill="#e1ed5e" style="font-size:6.75px; font-family:Arial;" text-anchor="middle"><textPath startOffset="22.145653131862474" xlink:href="#id123">March</textPath></text><path d="M 118.53625476483649 90.13048839642627 l 17.132684084480967 -9.122189272717375 a40.40987380345136,40.40987380345136 0 0,0 0.32076189984648135,0.6151032369974452 l -17.286754053302396 8.826739792615431" fill="#ffdc14" stroke="none" /><path d="M 118.70294669586156 90.45014215332178 l 16.069195648282626 -8.205045795565228 a39.04277764896824,39.04277764896824 0 0,0 0.29966277571026456,0.5995262875559143 l -16.207678337204626 7.927987651845563" fill="#ffca12" stroke="none" /><path d="M 119.0197475246899 91.09779779509293 l 17.403667016776676 -8.14579492651514 a40.215660296114734,40.215660296114734 0 0,0 0.28728446669186253,0.6277684063132326 l -17.54093594832359 7.845837537987223" fill="#ffda14" stroke="none" /><path d="M 119.16976305983485 91.42560881287824 l 10.962132543317834 -4.903222453929217 a33.0087443277798,33.0087443277798 0 0,0 0.22692115609980573,0.5192400133589025 l -11.04468758143461 4.714320370794465" fill="#ff770b" stroke="none" /><path d="M 119.31412917781788 91.75594674310238 l 39.81189843781025 -16.99333208128558 a64.28695637772847,64.28695637772847 0 0,0 0.4245209230000686,1.0186956737845116 l -40.0977452053468 16.30740389805979" fill="#33ff55" stroke="none" /><path d="M 119.58574465831526 92.42381321644754 l 15.760613148453613 -6.096543742354103 a37.89866185287006,37.89866185287006 0 0,0 0.22950223391320146,0.6087819419604156 l -15.862946066181255 5.82509352019953" fill="#ffbb11" stroke="none" /><path d="M 119.71291397450082 92.76114493625339 l 17.016691188666197 -6.24876471021113 a39.1277367427379,39.1277367427379 0 0,0 0.2261207370316203,0.6324999457185488 l -17.12145209574176 5.955729808111665" fill="#ffcb13" stroke="none" /><path d="M 119.83427380445688 93.10060997987247 l 15.958914775652008 -5.551338981236485 a37.896873240369644,37.896873240369644 0 0,0 0.20845911124222963,0.6162723216310089 l -16.051859308466604 5.276564985131315" fill="#ffbb11" stroke="none" /><path d="M 119.94978838288452 93.4421083053983 l 14.748459037351378 -4.84811142719677 a36.52485840151038,36.52485840151038 0 0,0 0.1906863443830965,0.5973222578626652 l -14.829510097511731 4.5942201356427175" fill="#ffa80f" stroke="none" /><path d="M 120.16314734710363 94.1308016681162 l 14.364800638072326 -4.181384110895179 a35.96099831075486,35.96099831075486 0 0,0 0.16744384006328658,0.5941991172556698 l -14.434462970210195 3.934177069736496" fill="#ffa10e" stroke="none" /><path d="M 120.26092885502905 94.47779374421319 l 31.384656901325574 -8.554027799826372 a53.52949554502998,53.52949554502998 0 0,0 0.2340271799166705,0.88863932086128 l -31.526873562046973 8.014007974592293" fill="#82ff25" stroke="none" /><path d="M 120.35273937422433 94.82641323984039 l 17.537079830064062 -4.45785711458507 a39.09479646252194,39.09479646252194 0 0,0 0.15975338975195982,0.6518483461659101 l -17.611020746332315 4.156152943811065" fill="#ffcb12" stroke="none" /><path d="M 120.43855184770803 95.1765574152323 l 18.25293810055407 -4.307643691557063 a39.75434732204962,39.75434732204962 0 0,0 0.15104595819826813,0.665536361671222 l -18.324194920310003 3.9936729959468145" fill="#ffd413" stroke="none" /><path d="M 120.51834098615036 95.52812308129327 l 18.11171726969421 -3.947364480937187 a39.536881852207614,39.536881852207614 0 0,0 0.13883524641182562,0.6643769130055579 l -18.176810226930403 3.6358711166462245" fill="#ffd113" stroke="none" /><path d="M 120.592083275326 95.88100663000786 l 17.879675518156706 -3.576435853148631 a39.23386108442914,39.23386108442914 0 0,0 0.12643337369857693,0.6615528368493151 l -17.93843518413744 3.268980451266001" fill="#ffcd13" stroke="none" /><path d="M 120.7213421655516 96.59031103205396 l 35.327870057433074 -5.813187574119397 a56.80295452287105,56.80295452287105 0 0,0 0.15006395995556504,0.9635182715360742 l -35.422455509526905 5.205881120651881" fill="#5eff2a" stroke="none" /><path d="M 120.82617615685814 97.30363454192243 l 19.348840811624985 -2.505094820353132 a40.51033420555795,40.51033420555795 0 0,0 0.08337010139466669,0.6904240362911876 l -19.388992999279314 2.1725771071385314" fill="#ffde14" stroke="none" /><path d="M 120.86939407059847 97.66154086499901 l 20.640344923753606 -2.3127937003462153 a41.76951740584943,41.76951740584943 0 0,0 0.07372838463953545,0.7132552403886661 l -20.67700570087481 1.958133937674618" fill="#ffee16" stroke="none" /><path d="M 120.9064616781168 98.02013634271609 l 19.377282761881933 -1.835048824035148 a40.46397933158889,40.46397933158889 0 0,0 0.059552143446328774,0.692086176920617 l -19.405928528026003 1.502141599738869" fill="#ffdd14" stroke="none" /><path d="M 120.93736805541906 98.37931529534042 l 19.63507975243149 -1.5198793537614845 a40.693816037892084,40.693816037892084 0 0,0 0.04793351494547406,0.696942787346748 l -19.65827722854203 1.1825931422604024" fill="#ffe015" stroke="none" /><path d="M 120.99303781780057 99.45929381324524 l 38.39533510726084 -0.9889276347330145 a59.40806862972409,59.40806862972409 0 0,0 0.01750718553839002,1.01970578828121 l -38.4066537243979 0.329674930482738" fill="#42ff2d" stroke="none" /><line stroke="#e1ed5e" stroke-width="0.3" x1="184.99686870605535" x2="189.99668451229388" y1="99.2704041080226" y2="99.22748670261217" /><path d="M 185.99683186730306 99.26182062694052 a86.0,86.0 0 0,1 -10.086455211305974,41.156179273409016" fill="none" id="id124" stroke="none" /><text fill="#e1ed5e" style="font-size:6.75px; font-family:Arial;" text-anchor="middle"><textPath startOffset="21.40746469413373" xlink:href="#id124">April</textPath></text><path d="M 120.99922638620191 99.81974689727618 l 16.81472286432869 -0.14433417269733695 a37.81534232055911,37.81534232055911 0 0,0 0.0,0.6491745508423257 l -16.81472286432869 -0.14433417269733492" fill="#ffba11" stroke="none" /><path d="M 120.99922638620191 100.18025310272382 l 19.652550152451095 0.16869350690664253 a40.653274154549365,40.653274154549365 0 0,0 -0.011980265135405545,0.6977903830934369 l -19.646758455717023 -0.5060308059691505" fill="#ffe015" stroke="none" /><path d="M 120.99303781780057 100.54070618675476 l 15.370411776922895 0.3958872847693976 a36.37550925772581,36.37550925772581 0 0,0 -0.021436110129213815,0.6240889575642288 l -15.361350979796836 -0.6596825068977371" fill="#ffa60f" stroke="none" /><path d="M 120.98066250479742 100.90099992219065 l 15.112367121967724 0.648990068730951 a36.12629591600146,36.12629591600146 0 0,0 -0.03192603004869034,0.6193564538371212 l -15.098999502462462 -0.9083183159448028" fill="#ffa30f" stroke="none" /><path d="M 120.93736805541906 101.62068470465957 l 30.942548406785697 2.3951489410382916 a52.03510980093405,52.03510980093405 0 0,0 -0.07658174935581684,0.88999601133296 l -30.89687303473214 -2.925965999746909" fill="#93ff23" stroke="none" /><path d="M 120.86939407059847 102.33845913500097 l 18.141047927819095 2.0327422589170867 a39.2545791792256,39.2545791792256 0 0,0 -0.08078576270861786,0.6690220046645503 l -18.103480078850815 -2.3438579405050453" fill="#ffcd13" stroke="none" /><path d="M 120.82617615685814 102.69636545807757 l 18.199561322328933 2.356297581086796 a39.35146235633135,39.35146235633135 0 0,0 -0.09248621185029433,0.6691841569938171 l -18.156430593923428 -2.6683700462806983" fill="#ffce13" stroke="none" /><path d="M 120.77682067341334 103.0534771498775 l 17.913110062418312 2.632610307352131 a39.10552813752443,39.10552813752443 0 0,0 -0.10331030239118331,0.6633262511618282 l -17.86527826788886 -2.93972474044541" fill="#ffcb12" stroke="none" /><path d="M 120.7213421655516 103.40968896794604 l 16.83811889434651 2.7707060564089994 a38.06455566228346,38.06455566228346 0 0,0 -0.11162917178755868,0.643847398572627 l -16.78807490506672 -3.0593464879022148" fill="#ffbd11" stroke="none" /><path d="M 120.592083275326 104.11899336999214 l 35.12635033601883 7.0262538380197945 a56.822182107250505,56.822182107250505 0 0,0 -0.19953322783540425,0.9548387270339661 l -35.00055939735906 -7.62820901633917" fill="#5eff2a" stroke="none" /><path d="M 120.43855184770803 104.8234425847677 l 17.557636433032066 4.1435543912301585 a39.039945679175915,39.039945679175915 0 0,0 -0.1595292525428349,0.6509337898656969 l -17.483919653972936 -4.444344005703955" fill="#ffca12" stroke="none" /><path d="M 120.35273937422433 105.17358676015961 l 14.70225565720429 3.737255895337809 a36.1698188201782,36.1698188201782 0 0,0 -0.15813189738473327,0.6004525711436959 l -14.635934279014826 -3.9890889708543082" fill="#ffa30f" stroke="none" /><path d="M 120.26092885502905 105.52220625578681 l 16.32722911331263 4.450058898796234 a37.92280812162565,37.92280812162565 0 0,0 -0.1765785410904253,0.6266149486452731 l -16.248432080147623 -4.729681771344516" fill="#ffbb11" stroke="none" /><path d="M 120.16314734710363 105.8691983318838 l 16.166715505658562 4.705895267460867 a37.83769997681428,37.83769997681428 0 0,0 -0.18688883258065492,0.6220921413623869 l -16.083550353074276 -4.982725012413978" fill="#ffba11" stroke="none" /><path d="M 119.94978838288452 106.5578916946017 l 29.9830205332295 9.856014387732959 a52.561409029180886,52.561409029180886 0 0,0 -0.28912423836039614,0.854744436702096 l -29.809410873296738 -10.369260498909215" fill="#8dff24" stroke="none" /><path d="M 119.58574465831526 107.57618678355244 l 17.06108094121025 6.599592621822437 a39.2930343479845,39.2930343479845 0 0,0 -0.24874609765822117,0.62700265907629 l -16.945276168585902 -6.891496298112291" fill="#ffce13" stroke="none" /><path d="M 119.31412917781788 108.2440532568976 l 15.122974935566269 6.455098732316845 a37.44301281838958,37.44301281838958 0 0,0 -0.257404876484757,0.5889927312277776 l -15.009936177064548 -6.713753533320467" fill="#ffb510" stroke="none" /><path d="M 119.0197475246899 108.90220220490707 l 7.259807670091657 3.3979565587816567 a29.01566692060548,29.01566692060548 0 0,0 -0.21502093414155526,0.44931105365828755 l -7.20040747799019 -3.522080114505048" fill="#ff3e05" stroke="none" /><path d="M 118.8641267826498 109.22738970284198 l 56.592380347949444 27.682169108525912 a84.0,84.0 0 0,0 -0.6447203471530707,1.2898725753450169 l -56.10884008758464 -28.649573540034673" fill="#4dd2ff" stroke="none" /><line stroke="#e1ed5e" stroke-width="0.3" x1="174.33088141563837" x2="178.70328620479359" y1="141.23008692659167" y2="143.65538615756765" /><path d="M 175.20536237346943 141.71514677278685 a86.0,86.0 0 0,1 -30.301960400862466,31.631185727798858" fill="none" id="id125" stroke="none" /><text fill="#e1ed5e" style="font-size:6.75px; font-family:Arial;" text-anchor="middle"><textPath startOffset="22.145653131862474" xlink:href="#id125">May</textPath></text><path d="M 118.00360718960297 110.81064883170644 l 4.668703011867311 2.80342201589329 a26.44572885959392,26.44572885959392 0 0,0 -0.23704444641437206,0.3871942886361322 l -4.619890600997534 -2.8831534206539793" fill="#ff1702" stroke="none" /><path d="M 117.81537515405839 111.11811171558189 l 11.249034038918943 7.020229215245764 a34.259878771819416,34.259878771819416 0 0,0 -0.3156514490185139,0.4962565061692344 l -11.126864898274539 -7.21229939609367" fill="#ff890c" stroke="none" /><path d="M 117.423217284605 111.72311816256416 l 20.201045507715392 13.592164961607564 a45.3480838660528,45.3480838660528 0 0,0 -0.4401145194124355,0.6421402368045073 l -19.964741251487634 -13.936939933482115" fill="#e3ff1b" stroke="none" /><path d="M 117.21940702142032 112.02048342749411 l 13.545870513531233 9.456069643764812 a37.51992315590739,37.51992315590739 0 0,0 -0.3732069262659602,0.5249622797769051 l -13.381548488735312 -9.68720915025122" fill="#ffb610" stroke="none" /><path d="M 116.79662413953412 112.60449989151573 l 14.341670559545753 10.762256957722387 a38.93069126560896,38.93069126560896 0 0,0 -0.40570975255755104,0.5310870895558576 l -14.154808829633897 -11.006864960519122" fill="#ffc912" stroke="none" /><path d="M 116.35404254752997 113.17365903436017 l 3.0553412885776066 2.461166665816408 a24.923321519658174,24.923321519658174 0 0,0 -0.2712525908788685,0.3308840558178833 l -3.0126418784601103 -2.5132530033327845" fill="#ff0000" stroke="none" /><path d="M 116.1254893667686 113.45245675266167 l 11.504281529268985 9.597280815667315 a35.98186545659303,35.98186545659303 0 0,0 -0.3997507060085102,0.47090532651917205 l -11.337836259753361 -9.793352924636043" fill="#ffa10e" stroke="none" /><path d="M 115.89218393027572 113.72728997021213 l 12.460396538886478 10.762993757407049 a37.46522142360306,37.46522142360306 0 0,0 -0.42458610405520475,0.4831010462187149 l -12.273799370872688 -10.975307081437057" fill="#ffb510" stroke="none" /><path d="M 114.13192950727249 115.5334660781643 l 12.726941403545734 13.989138034479048 a39.912192375211156,39.912192375211156 0 0,0 -0.5107524736844071,0.45671801142464 l -12.484923903037949 -14.205551575787075" fill="#ffd614" stroke="none" /><path d="M 113.86319453409587 115.77377054828091 l 7.959478455633064 9.056425381203052 a33.05703686529098,33.05703686529098 0 0,0 -0.429458952147007,0.3709564143159979 l -7.802840023723202 -9.191725927983768" fill="#ff780b" stroke="none" /><path d="M 113.03279911837588 116.46651593811092 l 10.193866873600975 12.879617787437324 a37.425573846510545,37.425573846510545 0 0,0 -0.5071879110969857,0.39439238736767285 l -9.971269017868758 -13.05271122642579" fill="#ffb510" stroke="none" /><path d="M 112.45986205192187 116.90419585922612 l 8.939461823933836 12.128096837520255 a36.066675499320986,36.066675499320986 0 0,0 -0.5015311494515087,0.3630698752235237 l -8.72994966410836 -12.279767484116855" fill="#ffa20f" stroke="none" /><path d="M 112.16784306229584 117.11559508785304 l 10.410234384389438 14.643298371012683 a38.96661256665894,38.96661256665894 0 0,0 -0.5485105692873664,0.3829029768401596 l -10.157328723928313 -14.819846163657965" fill="#ffc912" stroke="none" /><path d="M 111.8722381534696 117.32195027204791 l 8.663896361441326 12.640883715022573 a36.324980954589115,36.324980954589115 0 0,0 -0.5173779351582507,0.3481149646180917 l -8.44562213818607 -12.787748353697786" fill="#ffa60f" stroke="none" /><path d="M 111.5731344415666 117.5232005979908 l 6.648349193210908 10.066448043642954 a33.06374416216753,33.06374416216753 0 0,0 -0.47629798383019517,0.3087305986497481 l -6.474565577123704 -10.179092483996596" fill="#ff780b" stroke="none" /><path d="M 111.27062007382361 117.71928675628689 l 3.226683434261979 5.072882296532943 a27.012122818058362,27.012122818058362 0 0,0 -0.3933941007285762,0.24550701415652174 l -3.1391252047436877 -5.127525107531012" fill="#ff2003" stroke="none" /><line stroke="#e1ed5e" stroke-width="0.3" x1="143.1302829299769" x2="145.66735839644613" y1="173.24464959558577" y2="177.55315839532614" /><path d="M 143.63769802327073 174.10635135553383 a86.0,86.0 0 0,1 -40.68552437913181,11.842963189579606" fill="none" id="id126" stroke="none" /><text fill="#e1ed5e" style="font-size:6.75px; font-family:Arial;" text-anchor="middle"><textPath startOffset="21.407464694133747" xlink:href="#id126">June</textPath></text><path d="M 106.0420521117495 120.11202640906438 l 3.6284990647205912 12.078093281091432 a33.61135768937763,33.61135768937763 0 0,0 -0.5540111873542171,0.16126458239325406 l -3.4206278649847675 -12.138601557787204" fill="#ff800b" stroke="none" /><path d="M 105.69591212413111 120.21278271476187 l 5.471888779540348 19.417802896154143 a41.17405849425325,41.17405849425325 0 0,0 -0.6819573020620991,0.18587049520644755 l -5.137750076543553 -19.508873885504734" fill="#ffe615" stroke="none" /><path d="M 105.3480935250658 120.30758222061773 l 3.870071454037099 14.695291674346135 a36.196349905601004,36.196349905601004 0 0,0 -0.6022291934084942,0.15308430596549522 l -3.6172369674032074 -14.7595612121469" fill="#ffa40f" stroke="none" /><path d="M 104.64783097203109 120.47920084513623 l 4.853636875570295 21.386019629867654 a42.92987976549303,42.92987976549303 0 0,0 -0.7200722430203963,0.1569363939091272 l -4.485802215930763 -21.466187481910502" fill="#fffd17" stroke="none" /><path d="M 104.29559338865022 120.5559693870025 l 3.142653090527284 15.038732691398131 a36.36358517438972,36.36358517438972 0 0,0 -0.612126436087671,0.12244243081821536 l -2.8840301689086543 -15.090464518879207" fill="#ffa60f" stroke="none" /><path d="M 103.58742460773223 120.69131181640829 l 4.178473678252911 24.100325789993228 a45.459872147328674,45.459872147328674 0 0,0 -0.7700523443398023,0.1267118202218264 l -3.7641438308600366 -24.168503608710726" fill="#e1ff1b" stroke="none" /><path d="M 102.875027216393 120.80226474461374 l 2.1849306260203836 15.80906958790954 a36.959342188069286,36.959342188069286 0 0,0 -0.629227834312509,0.08146614073186376 l -1.9132249698170993 -15.844247324841799" fill="#ffae10" stroke="none" /><path d="M 102.51750503828377 120.84855314841334 l 1.8566356944684055 15.37560694605561 a36.48729753900169,36.48729753900169 0 0,0 -0.6224804169444673,0.0697502290885284 l -1.5924193759231389 -15.40521293565111" fill="#ffa80f" stroke="none" /><path d="M 101.80034050326958 120.92268563240118 l 1.9411011192799095 22.55853735759356 a43.64189659169951,43.64189659169951 0 0,0 -0.7469643219937984,0.05781976265485895 l -1.5535678025108752 -22.588534887243476" fill="#f8ff18" stroke="none" /><path d="M 101.08105385017728 120.97215588758144 l 0.7807008670558483 15.145388254970138 a36.16549633996887,36.16549633996887 0 0,0 -0.6202800065115128,0.026637492380206223 l -0.520595099943506 -15.156558315776175" fill="#ffa30f" stroke="none" /><line stroke="#e1ed5e" stroke-width="0.3" x1="101.45913802915013" x2="101.54496967792366" y1="184.9874750549273" y2="189.98673829345242" /><path d="M 101.47630435890484 185.9873277026323 a86.0,86.0 0 0,1 -42.54439059252881,-10.42667462771756" fill="none" id="id127" stroke="none" /><text fill="#e1ed5e" style="font-size:6.75px; font-family:Arial;" text-anchor="middle"><textPath startOffset="22.145653131862474" xlink:href="#id127">July</textPath></text><path d="M 100.0 121.0 l 1.833873190237876e-15 14.97471100659137 a35.97471100659137,35.97471100659137 0 0,0 -0.6175537519694437,-0.005300956227814954 l 0.2570608271205897 -14.97250444855799" fill="#ffa10e" stroke="none" /><path d="M 99.63950707515114 120.99690560180557 l -0.259998168033869 15.143589830891933 a36.14582160246431,36.14582160246431 0 0,0 -0.6203082313096298,-0.015976939653754053 l 0.5199197134142427 -15.136895173888131" fill="#ffa30f" stroke="none" /><path d="M 99.27912038922189 120.98762331915562 l -0.5132681794139621 14.943243018930158 a35.95205524825279,35.95205524825279 0 0,0 -0.6166192454226701,-0.026480283547770482 l 0.7697131854374709 -14.93223016695656" fill="#ffa00e" stroke="none" /><path d="M 98.19965949673042 120.92268563240118 l -1.8107249370104137 21.04336849335737 a42.121128813222484,42.121128813222484 0 0,0 -0.7198710248467411,-0.0681725345000694 l 2.17169552524217 -21.009184203352117" fill="#fff316" stroke="none" /><path d="M 97.48249496171623 120.84855314841334 l -2.0237589948587904 16.759627616338925 a37.88137193203272,37.88137193203272 0 0,0 -0.6449252668050133,-0.08349848764156556 l 2.3111620835545974 -16.722417532496962" fill="#ffbb11" stroke="none" /><path d="M 97.12497278360702 120.80226474461374 l -2.049638908682528 14.830166116746504 a35.97113378159054,35.97113378159054 0 0,0 -0.6109523972724116,-0.08978896309777566 l 2.3039164115626245 -14.792796080349847" fill="#ffa10e" stroke="none" /><path d="M 96.76829788921471 120.74984581791261 l -2.294947829213223 14.735211348039813 a35.91285482428538,35.91285482428538 0 0,0 -0.6083338281232205,-0.10010109991950306 l 2.5475591603895067 -14.693644249624642" fill="#ffa00e" stroke="none" /><path d="M 95.70440661134978 120.55596938700252 l -1.5840708212526233 7.580352319786191 a28.74409592262595,28.74409592262595 0 0,0 -0.4821309944882618,-0.10507820624973876 l 1.7139642323600217 -7.552042655402733" fill="#ff3a05" stroke="none" /><path d="M 95.35216902796893 120.47920084513623 l -4.326377457489411 19.062817347911743 a40.547596965983246,40.547596965983246 0 0,0 -0.677468953260838,-0.15988082831723519 l 4.6529785644901365 -18.98574037594828" fill="#ffde14" stroke="none" /><path d="M 95.00130118170881 120.39639698878247 l -3.5691982552990735 14.563546873511378 a35.994534795137625,35.994534795137625 0 0,0 -0.598871425249334,-0.1522307744298908 l 3.818674973773786 -14.500130867246224" fill="#ffa10e" stroke="none" /><path d="M 94.6519064749342 120.30758222061772 l -3.8862799452279715 14.756837955462577 a36.259994700407404,36.259994700407404 0 0,0 -0.6005666932767182,-0.16368712285402692 l 4.139028039439385 -14.687950338464406" fill="#ffa50f" stroke="none" /><path d="M 93.27111125876986 119.89276391827306 l -7.2940100700466335 21.563444711439555 a43.76367129276937,43.76367129276937 0 0,0 -0.709584641395569,-0.24683037259374213 l 7.6631004834872245 -21.43505590627722" fill="#f6ff19" stroke="none" /><path d="M 92.93061703081489 119.77432235084164 l -5.208333289374673 14.568635172778885 a36.47164717962307,36.47164717962307 0 0,0 -0.5877333839346622,-0.2158238395364422 l 5.457655824963455 -14.477080484233724" fill="#ffa80f" stroke="none" /><path d="M 92.59220618246901 119.65005319985036 l -5.372531936170323 14.251279255883569 a36.23033354310888,36.23033354310888 0 0,0 -0.5800782417287776,-0.2243867254006115 l 5.616382440392629 -14.156952642344917" fill="#ffa40f" stroke="none" /><path d="M 91.26138138417905 119.09545874513695 l -6.414069237174929 14.015898838425223 a36.41381537544301,36.41381537544301 0 0,0 -0.566167699575334,-0.2649950708843001 l 6.6537256506217535 -13.903727535970395" fill="#ffa70f" stroke="none" /><path d="M 90.28995756902619 118.62028667847754 l -8.44825656167209 16.200645901388395 a39.27112384485443,39.27112384485443 0 0,0 -0.5950719440030341,-0.31684229262107577 l 8.725117321461687 -16.053233141044746" fill="#ffcd13" stroke="none" /><line stroke="#e1ed5e" stroke-width="0.3" x1="58.13341422392154" x2="55.67067388415222" y1="173.97424548756322" y2="178.32567169271397" /><path d="M 57.64086615596768 174.84453072859336 a86.0,86.0 0 0,1 -31.369924170532247,-30.572349798747897" fill="none" id="id128" stroke="none" /><text fill="#e1ed5e" style="font-size:6.75px; font-family:Arial;" text-anchor="middle"><textPath startOffset="22.145653131862474" xlink:href="#id128">August</textPath></text><path d="M 89.34428304082925 118.09573695890944 l -4.679198762263127 7.946302468882171 a30.221638899009637,30.221638899009637 0 0,0 -0.444786601277797,-0.2670815743102505 l 4.81491812009835 -7.864806894036001" fill="#ff4f07" stroke="none" /><path d="M 88.72937992617639 117.7192867562869 l -4.128468498582567 6.490638200162849 a28.692375211155642,28.692375211155642 0 0,0 -0.4133264640974951,-0.26791322035932924 l 4.239280594937072 -6.418811138099625" fill="#ff3905" stroke="none" /><path d="M 88.1277618465304 117.32195027204791 l -9.054297091306596 13.210490047163175 a37.01553443079064,37.01553443079064 0 0,0 -0.5210463657413434,-0.36373082978749477 l 9.279738548221706 -13.05311440157055" fill="#ffaf10" stroke="none" /><path d="M 87.54013794807813 116.9041958592261 l -9.078748480305729 12.317065937665625 a36.30143089000033,36.30143089000033 0 0,0 -0.49844805216161786,-0.37404471084220997 l 9.288849521378113 -12.1594021995594" fill="#ffa50f" stroke="none" /><path d="M 86.68645165197938 116.24036423190432 l -5.9032068131647275 7.200952464059503 a30.311367626113743,30.311367626113743 0 0,0 -0.3995697393125041,-0.33333528772472126 l 6.025950886639125 -7.098554992422911" fill="#ff5107" stroke="none" /><path d="M 85.86807049272751 115.53346607816431 l -10.424067536990401 11.457876251010653 a36.49012950879401,36.49012950879401 0 0,0 -0.4597239004249802,-0.4255135789540442 l 10.61922120872935 -11.277244925924231" fill="#ffa80f" stroke="none" /><path d="M 85.60350026404147 115.28858382429668 l -10.381853387051429 11.025168525030109 a36.1438839389222,36.1438839389222 0 0,0 -0.4480594027139145,-0.4292307722861943 l 10.569585275630658 -10.845325622438331" fill="#ffa30f" stroke="none" /><path d="M 85.34317274990678 115.03919595460226 l -15.338080481082887 15.73822178473167 a42.97608558842039,42.97608558842039 0 0,0 -0.5239154834200902,-0.5194376002126248 l 15.60598788463294 -15.472604174290383" fill="#fffe18" stroke="none" /><path d="M 84.58840730492382 114.26474011684316 l -11.293924792496528 10.453488179427797 a36.38922195356232,36.38922195356232 0 0,0 -0.4203861385956838,-0.46207800712889713 l 11.471708631934092 -10.258072596741227" fill="#ffa60f" stroke="none" /><path d="M 84.1078160697243 113.72728997021213 l -15.65200054793708 13.519825285065386 a41.68262064853765,41.68262064853765 0 0,0 -0.46308485736069216,-0.5455127975605831 l 15.881779968804883 -13.249145705055248" fill="#ffed16" stroke="none" /><path d="M 83.8745106332314 113.45245675266167 l -11.695647581270554 9.756925182416516 a36.231078798317384,36.231078798317384 0 0,0 -0.39432039532244173,-0.4810067666939482 l 11.861414795831626 -9.554716134024073" fill="#ffa40f" stroke="none" /><path d="M 83.64595745247003 113.17365903436017 l -11.913648804640221 9.596792154068801 a36.298151767082906,36.298151767082906 0 0,0 -0.3867197645697031,-0.4886077893958301 l 12.076634999851485 -9.39086442075829" fill="#ffa50f" stroke="none" /><path d="M 82.98947788004972 112.3143062007846 l -12.712314108734052 9.20273506901403 a36.69373323175781,36.69373323175781 0 0,0 -0.36498889765160186,-0.5134025933588912 l 12.868418104915614 -8.983155248945636" fill="#ffab0f" stroke="none" /><path d="M 82.78059297857968 112.02048342749411 l -12.586461996909796 8.786327987742704 a36.34987247855321,36.34987247855321 0 0,0 -0.35278462269444305,-0.5147233076073732 l 12.735436356419562 -8.56896994506528" fill="#ffa60f" stroke="none" /><path d="M 82.576782715395 111.72311816256416 l -13.987289287321795 9.411272465397525 a37.85871617369415,37.85871617369415 0 0,0 -0.35817150845474494,-0.5423173145379825 l 14.146785234697267 -9.169775272520482" fill="#ffba11" stroke="none" /><path d="M 82.37810715431573 111.42229804090323 l -14.197065125989122 9.20236609059145 a37.91863469245801,37.91863469245801 0 0,0 -0.34936118908054237,-0.5492538165857442 l 14.352944006695555 -8.957298599327034" fill="#ffbb11" stroke="none" /><line stroke="#e1ed5e" stroke-width="0.3" x1="26.387840678322732" x2="22.057713659400548" y1="142.50000000000003" y2="145.00000000000006" /><path d="M 25.521815274538298 143.00000000000003 a86.0,86.0 0 0,1 -11.493303480769221,-40.785679425670985" fill="none" id="id129" stroke="none" /><text fill="#e1ed5e" style="font-size:6.75px; font-family:Arial;" text-anchor="middle"><textPath startOffset="21.40746469413373" xlink:href="#id129">September</textPath></text><path d="M 81.81346652052679 110.50000000000001 l -8.04451860990444 4.644504984929289 a30.28900996985857,30.28900996985857 0 0,0 -0.2561103608181766,-0.45252246754492076 l 8.123062335743995 -4.505725747285246" fill="#ff5007" stroke="none" /><path d="M 81.63589988554817 110.18625677009913 l -14.734675387213228 8.173076055063428 a37.849624060150376,37.849624060150376 0 0,0 -0.31028518082220935,-0.5708897845646005 l 14.872805917650767 -7.91893143702424" fill="#ffba11" stroke="none" /><path d="M 81.4637452351635 109.86951160357371 l -14.634016904854775 7.791789737555008 a37.57909641946276,37.57909641946276 0 0,0 -0.298292007063658,-0.5720142548199711 l 14.765616980893382 -7.539429239630534" fill="#ffb710" stroke="none" /><path d="M 81.29705330413844 109.54985784667822 l -21.304086152202665 10.878018186938403 a44.920605478453844,44.920605478453844 0 0,0 -0.3447765280761197,-0.6897840127922557 l 21.487682593490522 -10.510702317982394" fill="#e8ff1a" stroke="none" /><path d="M 80.83023694016515 108.57439118712176 l -15.121505890666972 6.763657247105371 a37.56523467258454,37.56523467258454 0 0,0 -0.2582451000382202,-0.5909153271488607 l 15.23538487272216 -6.503079850180661" fill="#ffb710" stroke="none" /><path d="M 80.5471966667186 107.91128576633889 l -15.606415718762884 6.346993408820397 a37.84768639660825,37.84768639660825 0 0,0 -0.23959626566817566,-0.6039391053487336 l 15.713070659397184 -6.0781532862580985" fill="#ffba11" stroke="none" /><path d="M 80.41425534168474 107.57618678355246 l -15.574613586004821 6.02459511587323 a37.699231559073894,37.699231559073894 0 0,0 -0.22829454752803155,-0.6055784103419792 l 15.675738817347288 -5.756348425337106" fill="#ffb811" stroke="none" /><path d="M 80.28708602549918 107.23885506374661 l -15.565065473679379 5.715707640556706 a37.58133218508827,37.58133218508827 0 0,0 -0.2171840039763998,-0.6075023128320985 l 15.660889647699722 -5.447670371343687" fill="#ffb710" stroke="none" /><path d="M 80.16572619554312 106.89939002012753 l -17.187195003041577 5.978598603964258 a39.197343579212344,39.197343579212344 0 0,0 -0.21561260090646614,-0.6374203427315233 l 17.28729302552041 -5.682676586758573" fill="#ffcc13" stroke="none" /><path d="M 79.73907114497094 105.5222062557868 l -16.2938662698846 4.440965707461947 a37.88822827995098,37.88822827995098 0 0,0 -0.16564466237005296,-0.6289797634840298 l 16.367700413059385 -4.160605439605114" fill="#ffbb11" stroke="none" /><path d="M 79.64726062577567 105.17358676015961 l -15.926673191303326 4.04849804445826 a37.43317544963731,37.43317544963731 0 0,0 -0.15296349408013968,-0.6241432547673137 l 15.99382421189976 -3.774498965082846" fill="#ffb510" stroke="none" /><path d="M 79.48165901384964 104.47187691870673 l -14.809211661048312 3.22759875449899 a36.1568513795502,36.1568513795502 0 0,0 -0.1269661423862468,-0.6075789535791298 l 14.862435514258925 -2.9729033496344512" fill="#ffa30f" stroke="none" /><path d="M 79.2786578344484 103.40968896794605 l -31.0499512862094 5.109257668253559 a52.46750687290915,52.46750687290915 0 0,0 -0.13861042821591393,-0.8899783815582434 l 31.13308320656358 -4.575491104763865" fill="#8eff24" stroke="none" /><path d="M 79.17382384314188 102.69636545807758 l -16.17535124819131 2.0942230608921792 a37.310357391275545,37.310357391275545 0 0,0 -0.0767845622551121,-0.6358863250754907 l 16.208917896706083 -1.8162430588932894" fill="#ffb310" stroke="none" /><path d="M 79.03789590574601 101.26102812881392 l -14.934297751947838 0.8984102676243727 a35.961296412838266,35.961296412838266 0 0,0 -0.03178021440492062,-0.6165276693029507 l 14.947519555809333 -0.6419108049446912" fill="#ffa10e" stroke="none" /><path d="M 79.01933749520258 100.90099992219065 l -16.001829193028318 0.6871873971820405 a37.01657778808254,37.01657778808254 0 0,0 -0.021813892211097165,-0.6350876706819566 l 16.011267772236263 -0.41239346193596405" fill="#ffaf10" stroke="none" /><path d="M 79.00696218219943 100.54070618675478 l -14.937860055370999 0.3847462867888196 a35.942814083667315,35.942814083667315 0 0,0 -0.01059212207110501,-0.6169380088194696 l 14.94226360904077 -0.1282613620002976" fill="#ffa00e" stroke="none" /><line stroke="#e1ed5e" stroke-width="0.3" x1="15.003131293944662" x2="10.003315487706104" y1="100.72959589197737" y2="100.7725132973878" /><path d="M 14.003168132696942 100.73817937305945 a86.0,86.0 0 0,1 10.791469493833604,-42.45332614584628" fill="none" id="id130" stroke="none" /><text fill="#e1ed5e" style="font-size:6.75px; font-family:Arial;" text-anchor="middle"><textPath startOffset="22.145653131862435" xlink:href="#id130">October</textPath></text><path d="M 79.00696218219943 99.45929381324524 l -17.898075367831037 -0.46099093263116686 a38.90401112914445,38.90401112914445 0 0,0 0.022926157847675026,-0.6674700711027515 l 17.887524522986514 0.7681672682980568" fill="#ffc812" stroke="none" /><path d="M 79.03789590574601 98.7389718711861 l -16.443394279020836 -0.9891937672758205 a37.47312112881322,37.47312112881322 0 0,0 0.04413983711945685,-0.6417835443542466 l 16.423990480736315 1.271320735784392" fill="#ffb510" stroke="none" /><path d="M 79.0935383218832 98.0201363427161 l -16.215598019203394 -1.5356339917122497 a37.28814878606207,37.28814878606207 0 0,0 0.06581821258509883,-0.6367315012916073 l 16.186847414136633 1.8137700152867697" fill="#ffb310" stroke="none" /><path d="M 79.13060592940154 97.66154086499901 l -16.60189098567747 -1.8602765131759669 a37.70578980490875,37.70578980490875 0 0,0 0.07759836053807734,-0.6426257422748892 l 16.567510538879727 2.144995932374292" fill="#ffb811" stroke="none" /><path d="M 79.17382384314186 97.30363454192245 l -16.376678407602405 -2.1202888923880754 a37.51336491007254,37.51336491007254 0 0,0 0.08816620289416814,-0.6379267241973451 l 16.33786768815303 2.4011039247854873" fill="#ffb610" stroke="none" /><path d="M 79.407916724674 95.88100663000787 l -21.063533115759363 -4.213296541801645 a42.48078897684741,42.48078897684741 0 0,0 0.14917288691141584,-0.7138462650640757 l 20.98810251802358 4.574259258151129" fill="#fff717" stroke="none" /><path d="M 79.48165901384962 95.52812308129327 l -17.747781938036315 -3.868046469279153 a39.16440329899639,39.16440329899639 0 0,0 0.14880447603977107,-0.6556599776996652 l 17.678766600438884 4.172140780917826" fill="#ffcc13" stroke="none" /><path d="M 79.56144815229197 95.17655741523228 l -16.884529874028924 -3.9847030760795605 a38.348348845682494,38.348348845682494 0 0,0 0.15670317468875597,-0.6394024278196067 l 16.813639172823873 4.273961328507284" fill="#ffc111" stroke="none" /><path d="M 79.73907114497095 94.47779374421319 l -18.28096872888698 -4.982559318915193 a39.94781557417773,39.94781557417773 0 0,0 0.18600750691283785,-0.6600750219820702 l 18.192742729899557 5.295642264800277" fill="#ffd614" stroke="none" /><path d="M 79.83685265289637 94.1308016681162 l -21.63056331199444 -6.296341732914091 a43.52831969792322,43.52831969792322 0 0,0 0.21499607157748055,-0.715651998598766 l 21.51929092041333 6.666731335103581" fill="#f9ff18" stroke="none" /><path d="M 80.16572619554312 93.10060997987247 l -14.918149650025526 -5.18930684475208 a36.7949388890729,36.7949388890729 0 0,0 0.2126394060391137,-0.5947902635685934 l 14.82687007394247 5.444632064701595" fill="#ffac0f" stroke="none" /><path d="M 80.28708602549916 92.7611449362534 l -17.669118244953765 -6.488344962336285 a39.82276175019045,39.82276175019045 0 0,0 0.24115397049487405,-0.6396895575528843 l 17.555133590644456 6.790702800083314" fill="#ffd513" stroke="none" /><path d="M 80.41425534168474 92.42381321644754 l -8.83066980941448 -3.415892786675211 a30.46831837302507,30.46831837302507 0 0,0 0.19288088647922455,-0.48618583304825747 l 8.770730247969125 3.5669796369370514" fill="#ff5307" stroke="none" /><path d="M 80.5471966667186 92.08871423366112 l -19.348376728467247 -7.8688163752624805 a41.88726772879335,41.88726772879335 0 0,0 0.2766038798554683,-0.6637486175463092 l 19.210447004075302 8.199797502250053" fill="#fff016" stroke="none" /><path d="M 80.9802524753101 91.09779779509293 l -14.1086879247391 -6.603578338193842 a36.5776224702726,36.5776224702726 0 0,0 0.2710588928993464,-0.5664088348340853 l 13.99324977387985 6.8447996750930145" fill="#ffa90f" stroke="none" /><path d="M 81.1358732173502 90.77261029715801 l -15.291460025406359 -7.4798193632599395 a38.02282137060713,38.02282137060713 0 0,0 0.2918343642118483,-0.5838642205141052 l 15.160805747982765 7.741215439937815" fill="#ffbd11" stroke="none" /><path d="M 81.29705330413844 90.45014215332179 l -14.754067964186369 -7.533532229409925 a37.566128978834755,37.566128978834755 0 0,0 0.29818907526754446,-0.5718168695288547 l 14.622570819943885 7.785695342043266" fill="#ffb710" stroke="none" /><path d="M 81.63589988554816 89.8137432299009 l -14.224645976264016 -7.890171338368759 a37.2663873339737,37.2663873339737 0 0,0 0.3151079522239993,-0.5567655585189858 l 14.087104659018648 8.13319366698685" fill="#ffb210" stroke="none" /><line stroke="#e1ed5e" stroke-width="0.3" x1="26.387840678322718" x2="22.05771365940052" y1="57.49999999999999" y2="54.99999999999999" /><path d="M 25.521815274538284 56.99999999999999 a86.0,86.0 0 0,1 29.574782752854787,-30.34633250058573" fill="none" id="id131" stroke="none" /><text fill="#e1ed5e" style="font-size:6.75px; font-family:Arial;" text-anchor="middle"><textPath startOffset="21.40746469413373" xlink:href="#id131">November</textPath></text><path d="M 81.81346652052679 89.5 l -14.769819296585199 -8.527359146765596 a38.05471829353119,38.05471829353119 0 0,0 0.3314861156900988,-0.5629358942286984 l 14.62125947076532 8.779646209287867" fill="#ffbd11" stroke="none" /><path d="M 82.37810715431573 88.57770195909679 l -14.435206700664994 -9.356726582151463 a38.20242787585704,38.20242787585704 0 0,0 0.36142327584887046,-0.5472409048265982 l 14.272458985895394 9.603147365317122" fill="#ffbf11" stroke="none" /><path d="M 82.576782715395 88.27688183743585 l -13.507595765740273 -9.088513256035789 a37.28054718293531,37.28054718293531 0 0,0 0.36181705395348446,-0.5279018947517918 l 13.349588974971475 9.319049885857616" fill="#ffb310" stroke="none" /><path d="M 82.78059297857968 87.97951657250589 l -14.026430295359946 -9.791537693634737 a38.10599185187638,38.10599185187638 0 0,0 0.37903649301889886,-0.533162295471559 l 13.856278703811075 10.030877215815817" fill="#ffbe11" stroke="none" /><path d="M 82.98947788004972 87.6856937992154 l -14.53336086203714 -10.521032483284364 a38.94187009373654,38.94187009373654 0 0,0 0.3966470174609301,-0.5381278574511372 l 14.350611824992392 10.768966650004364" fill="#ffc912" stroke="none" /><path d="M 83.8745106332314 86.54754324733833 l -13.076184255458905 -10.908617976512701 a38.02893246331688,38.02893246331688 0 0,0 0.42249317560536226,-0.4976958985191373 l 12.886996516346429 11.131480657481395" fill="#ffbd11" stroke="none" /><path d="M 84.10781606972428 86.27271002978789 l -12.549393731434314 -10.839867412657885 a37.582822695505286,37.582822695505286 0 0,0 0.42591885651124595,-0.4846174738636976 l 12.361463810964475 11.053697164332883" fill="#ffb711" stroke="none" /><path d="M 84.83555147118756 85.47280134310135 l -16.386791898351717 -15.698175954391605 a43.69272299691961,43.69272299691961 0 0,0 0.5235078952231829,-0.5371652190273846 l 16.114897201977733 15.97716386548672" fill="#f7ff18" stroke="none" /><line stroke="#e1ed5e" stroke-width="0.3" x1="56.869717070023135" x2="54.33264160355391" y1="26.7553504044142" y2="22.446841604673864" /><path d="M 56.362301976729285 25.89364864446614 a86.0,86.0 0 0,1 42.16139366436587,-11.88097634709845" fill="none" id="id132" stroke="none" /><text fill="#e1ed5e" style="font-size:6.75px; font-family:Arial;" text-anchor="middle"><textPath startOffset="22.145653131862474" xlink:href="#id132">December</textPath></text></svg>