<?xml version="1.0" encoding="utf-8" ?>
<svg baseProfile="full" height="200mm" version="1.1" viewBox="0,0,200,200" width="200mm" xmlns="http://www.w3.org/2000/svg" xmlns:ev="http://www.w3.org/2001/xml-events" xmlns:xlink="http://www.w3.org/1999/xlink"><defs /><rect fill="#1a1a1a" height="200" width="200" x="0" y="0" /><text alignment-baseline="middle" fill="#e1ed5e" style="dominant-baseline: central; font-size:9.0px; font-family:Arial;" text-anchor="middle" x="100.0" y="100.0">2023</text><line stroke="#e1ed5e" stroke-width="0.3" x1="100.0" x2="100.0" y1="15.0" y2="10.0" /><path d="M 100.0 14.0 a86.0,86.0 0 0,1 42.46469731375804,11.215312516191453" fill="none" id="id109" stroke="none" /><text fill="#e1ed5e" style="font-size:6.75px; font-family:Arial;" text-anchor="middle"><textPath startOffset="22.20632615414155" xlink:href="#id109">January</textPath></text><path d="M 100.72285384407766 79.0124445844662 l 0.5145486052170261 -14.939558604350099 a35.94841702522183,35.94841702522183 0 0,0 0.6182428747500142,0.026622838695168703 l -0.7716323123563718 14.928488039130736" fill="#ffb410" stroke="none" /><path d="M 101.80526077348638 79.07773832637324 l 1.9862807130219222 -23.020211509313135 a44.10574493506833,44.10574493506833 0 0,0 0.7558356834808486,0.0717757055670665 l -2.382241523593015 22.982610259230892" fill="#e4ff1b" stroke="none" /><path d="M 103.2404852339499 79.25152402106235 l 3.4923638238662256 -22.36122730942813 a43.63230195676445,43.63230195676445 0 0,0 0.7410651322336899,0.12228209650963405 l -3.8767581622387906 22.297798949978873" fill="#e9ff1a" stroke="none" /><path d="M 103.95276090670814 79.375362276772 l 3.225739986745337 -16.83120233835723 a38.13752521856087,38.13752521856087 0 0,0 0.6436771427263135,0.12911557943073232 l -3.514983538938776 16.77318280284929" fill="#ffd013" stroke="none" /><path d="M 105.01212808612495 79.60689891045804 l 10.43085897237593 -42.44056772277688 a64.70359948028545,64.70359948028545 0 0,0 1.0792902746680106,0.27513512241328997 l -11.159858135728966 42.25472960419473" fill="#35ff61" stroke="none" /><path d="M 106.0581310904928 79.89281104454417 l 4.392096586950101 -14.577551173002869 a36.22483203948786,36.22483203948786 0 0,0 0.5954924710061253,0.18502240945041976 l -4.642374430666945 14.499788628669927" fill="#ffb711" stroke="none" /><path d="M 106.74666289553966 80.11325718540242 l 4.358123718805745 -12.846185868777567 a34.56531362422549,34.56531362422549 0 0,0 0.5617982654830984,0.19600038362894498 l -4.578603988352117 12.769264631976414" fill="#ffa10e" stroke="none" /><path d="M 107.76421540070413 80.48803036053334 l 7.713775704412648 -19.385211458263424 a41.86357493095501,41.86357493095501 0 0,0 0.6672578002898024,0.27219121058380585 l -8.046317374290838 19.24955936149604" fill="#ffff18" stroke="none" /><path d="M 108.76106565485865 80.91482961587045 l 8.689391956818437 -18.929035868872322 a41.82820039043882,41.82820039043882 0 0,0 0.6517665976132498,0.3060131568153574 l -9.013936765731284 18.776657729416964" fill="#ffff18" stroke="none" /><path d="M 110.05341064243156 81.56283822128135 l 8.104770964302881 -14.863510381007607 a37.92959696006163,37.92959696006163 0 0,0 0.5705259995661922,0.31749710106319246 l -8.359421052941109 14.721797882384235" fill="#ffcd13" stroke="none" /><line stroke="#e1ed5e" stroke-width="0.3" x1="143.23703022742887" x2="145.7803849466894" y1="26.81831364943548" y2="22.513508569990506" /><path d="M 143.74570117128098 25.957352633546492 a86.0,86.0 0 0,1 28.547481713284135,27.462654790039103" fill="none" id="id110" stroke="none" /><text fill="#e1ed5e" style="font-size:6.75px; font-family:Arial;" text-anchor="middle"><textPath startOffset="19.985693538727396" xlink:href="#id110">February</textPath></text><path d="M 110.68208982089419 81.91981866633111 l 10.55714310525423 -17.868700311350743 a41.75436632040793,41.75436632040793 0 0,0 0.6156540816115703,0.37092469557043484 l -10.863159253083438 17.684329006321693" fill="#fffe18" stroke="none" /><path d="M 111.2981086023043 82.29822771554956 l 12.067969796916165 -18.907983698887975 a43.430955008128706,43.430955008128706 0 0,0 0.6267148318639216,0.4076327598514906 l -12.391651654564367 18.69745201487696" fill="#ecff1a" stroke="none" /><path d="M 112.19680574252982 82.90503203632743 l 12.876202248118013 -18.047205930139707 a43.16975927292196,43.16975927292196 0 0,0 0.6011999186307375,0.4367973087185907 l -13.184947483102539 17.82288938660444" fill="#efff19" stroke="none" /><path d="M 112.77801427241765 83.33499621200491 l 13.673620746744687 -17.833047974596955 a43.4718825288422,43.4718825288422 0 0,0 0.5899081565073127,0.4604326731220888 l -13.97856145841143 17.595036912251643" fill="#ebff1a" stroke="none" /><path d="M 113.34407831869373 83.78471172551755 l 13.575219665247317 -16.4961636918028 a42.36375448057926,42.36375448057926 0 0,0 0.5590854885908078,0.4682180182568974 l -13.857162690797242 16.26004451615208" fill="#f9ff18" stroke="none" /><path d="M 114.16331599549186 84.49514656593476 l 16.518566854047105 -18.083191682959704 a45.49213899099641,45.49213899099641 0 0,0 0.5736171311488049,0.533114608349488 l -16.827391868990755 17.796172488535575" fill="#d3ff1c" stroke="none" /><path d="M 116.15771136456269 86.58626213691792 l 17.384828571897415 -14.432460637309 a43.594870756915924,43.594870756915924 0 0,0 0.47435684312806453,0.581505401090525 l -17.630683907101886 14.131071066610373" fill="#eaff1a" stroke="none" /><path d="M 116.60985879189232 87.15038557335679 l 17.85699987941957 -13.814419866059225 a43.57677215479136,43.57677215479136 0 0,0 0.45387088179165574,0.5972408782910671 l -18.09214670143534 13.504994211887125" fill="#eaff1a" stroke="none" /><path d="M 117.45458315368197 88.32363383020206 l 18.50035839874933 -12.375944875585644 a43.25819562421243,43.25819562421243 0 0,0 0.408693883818516,0.6224688239312869 l -18.710648917925774 12.055657987676684" fill="#eeff19" stroke="none" /><line stroke="#e1ed5e" stroke-width="0.3" x1="172.23445277983987" x2="176.4835382374775" y1="55.19839476539836" y2="52.563006222186495" /><path d="M 173.08426987136738 54.67131705675599 a86.0,86.0 0 0,1 12.851231095245387,41.99856678651699" fill="none" id="id111" stroke="none" /><text fill="#e1ed5e" style="font-size:6.75px; font-family:Arial;" text-anchor="middle"><textPath startOffset="22.20632615414155" xlink:href="#id111">March</textPath></text><path d="M 117.84615892207809 88.93136811851018 l 17.72812522558835 -10.995424445550194 a41.86110693975621,41.86110693975621 0 0,0 0.37452574572529085,0.6156218510581623 l -17.914766769599865 10.68863482128495" fill="#ffff18" stroke="none" /><path d="M 118.21658344932153 89.55222093294921 l 28.877901325479847 -16.56237756152588 a54.290321948798976,54.290321948798976 0 0,0 0.45795788976206886,0.8146559855721691 l -29.158716856534348 16.06283806601892" fill="#70ff27" stroke="none" /><path d="M 118.73160827565052 90.50648371742162 l 19.975522769363938 -10.123954541078302 a43.39455213794634,43.39455213794634 0 0,0 0.33194763301582647,0.669186172440777 l -20.146830415333174 9.778608780138574" fill="#ecff1a" stroke="none" /><path d="M 119.04729006885535 91.15688171328212 l 18.60866801707421 -8.639478468505322 a41.5164108356566,41.5164108356566 0 0,0 0.29535502794499485,0.6507756532842408 l -18.754625361982548 8.31788080637902" fill="#fffb17" stroke="none" /><path d="M 119.196687751892 91.48605970444005 l 17.065588569688835 -7.5687745755306555 a39.66870809148543,39.66870809148543 0 0,0 0.2714648514897751,0.626578305099527 l -17.19334413102129 7.273897125844526" fill="#ffe415" stroke="none" /><path d="M 119.7369772167798 92.82701384747503 l 22.929395685449332 -8.33320299917377 a45.39670999797598,45.39670999797598 0 0,0 0.26059207293459624,0.7367288818920406 l -23.06944083919374 7.9372764908551146" fill="#d4ff1c" stroke="none" /><path d="M 120.08093135843002 93.85539295169968 l 18.019817357997802 -5.513922375943743 a39.84455246440021,39.84455246440021 0 0,0 0.19503738216970148,0.6575690943998688 l -18.112060637279207 5.202923894797345" fill="#ffe615" stroke="none" /><path d="M 120.37134235888165 94.90015583598534 l 43.56680255654819 -10.906689399676273 a65.91126984023347,65.91126984023347 0 0,0 0.2660530369338142,1.1029616010447627 l -43.748088393742826 10.155142566972104" fill="#36ff70" stroke="none" /><path d="M 120.73433829027371 96.67025291283417 l 2.121411117567359 -0.34067942706976423 a23.148592004492006,23.148592004492006 0 0,0 0.059794032924849284,0.39396796806090445 l -2.1269610439315083 0.3041123466167776" fill="#ff0000" stroke="none" /><path d="M 120.91429891909075 98.10471618934814 l 20.730296347982744 -1.8786092333452824 a41.8152434366451,41.8152434366451 0 0,0 0.05879126888954433,0.7174023932758294 l -20.75956210069178 1.5214929228616842" fill="#fffe18" stroke="none" /><path d="M 120.96714384426684 98.82574320788733 l 20.946951669254737 -1.1731259371506568 a41.97977618323202,41.97977618323202 0 0,0 0.03419630941240481,0.7218300441055905 l -20.96404158690064 0.8123847864220667" fill="#fdff18" stroke="none" /><line stroke="#e1ed5e" stroke-width="0.3" x1="184.98032266829074" x2="189.97916517819016" y1="98.17113171792111" y2="98.06355123074" /><path d="M 185.9800911702706 98.14961562048488 a86.0,86.0 0 0,1 -9.607161424134198,41.387399972396054" fill="none" id="id112" stroke="none" /><text fill="#e1ed5e" style="font-size:6.75px; font-family:Arial;" text-anchor="middle"><textPath startOffset="21.466115282336823" xlink:href="#id112">April</textPath></text><path d="M 120.99824983174949 100.27111621757518 l 22.196291148760633 0.2865845748415961 a43.1981411717082,43.1981411717082 0 0,0 -0.01599963972179738,0.7434403884948422 l -22.18806944635383 -0.6686147791265531" fill="#efff19" stroke="none" /><path d="M 120.9764740272857 100.99374915477107 l 22.30228645225773 1.0565588040470635 a43.32729937777894,43.32729937777894 0 0,0 -0.04170489650539969,0.7446689428687159 l -22.2807952048648 -1.4402994632512027" fill="#edff1a" stroke="none" /><path d="M 120.92983693683757 101.71520430193887 l 16.463690883415392 1.3492027441133327 a37.51888209139402,37.51888209139402 0 0,0 -0.05828898454593037,0.643214087321599 l -16.43802730259239 -1.6323982199835023" fill="#ffc812" stroke="none" /><path d="M 120.81339534386255 102.79330883721812 l 26.538536507976968 3.5616643670984294 a47.776470511422616,47.776470511422616 0 0,0 -0.11640611679972857,0.8141441097765253 l -26.473296340160637 -4.017953948855364" fill="#b8ff1f" stroke="none" /><path d="M 120.76222939487914 103.15116336523771 l 20.527103697832136 3.115477434374072 a41.76218162587082,41.76218162587082 0 0,0 -0.11398738023048335,0.7097995255046712 l -20.470434563240364 -3.4683561895719484" fill="#fffe18" stroke="none" /><path d="M 120.5718875245553 104.21870165774334 l 21.86648691934526 4.4841867089519285 a43.3215407316484,43.3215407316484 0 0,0 -0.1560936201618271,0.7292174271541549 l -21.78605926045899 -4.859917955522253" fill="#edff1a" stroke="none" /><path d="M 120.41448212921028 104.9243191809786 l 24.718942749876003 5.962628057194568 a46.42791898720954,46.42791898720954 0 0,0 -0.19408790418583402,0.7752846982632111 l -24.612643531395108 -6.387240594855174" fill="#c8ff1d" stroke="none" /><path d="M 120.23288151984713 105.62410040840565 l 21.515262134715893 5.98056161402979 a43.33100136457714,43.33100136457714 0 0,0 -0.2059406184420606,0.7169063096677659 l -21.409128879387733 -6.3500253992021385" fill="#edff1a" stroke="none" /><path d="M 120.02730092923936 106.31721596034902 l 22.00961941819718 6.942499119631677 a44.078597031881486,44.078597031881486 0 0,0 -0.23447242156159134,0.7216319117617307 l -21.886854745619342 -7.320329931371203" fill="#e4ff1a" stroke="none" /><path d="M 119.9155931802556 106.66101706037122 l 21.21511746021901 7.0956590678101295 a43.37028355782478,43.37028355782478 0 0,0 -0.24289252433296346,0.7059593711819907 l -21.089834104942817 -7.4597911420814205" fill="#ecff1a" stroke="none" /><path d="M 119.41010516605496 108.01547362559984 l 21.411173065663917 8.841821903217642 a44.164976723839615,44.164976723839615 0 0,0 -0.2962187446293964,0.700173610701293 l -21.25580333984221 -9.2090700395851" fill="#e3ff1b" stroke="none" /><path d="M 119.26925614724726 108.34839909993367 l 20.61209411179205 8.930183221173031 a43.463450225579614,43.463450225579614 0 0,0 -0.3033312437570124,0.6839318775623834 l -20.455321783303763 -9.283663435228103" fill="#ebff1a" stroke="none" /><path d="M 118.97047184881838 109.00673069616215 l 20.99328614879668 9.967115013085994 a44.23922212573697,44.23922212573697 0 0,0 -0.3325246258307551,0.6850992197521433 l -20.818608266351212 -10.327003188803413" fill="#e2ff1b" stroke="none" /><path d="M 118.64920377521936 109.65438752849418 l 14.656929183254007 7.58765232116005 a37.504485476067664,37.504485476067664 0 0,0 -0.30172803578559804,0.5707557345272085 l -14.524148639243515 -7.838823070773392" fill="#ffc812" stroke="none" /><line stroke="#e1ed5e" stroke-width="0.3" x1="174.80103733775053" x2="179.2010983576182" y1="140.37084112569926" y2="142.7455964860345" /><path d="M 175.68104954172406 140.8457921977663 a86.0,86.0 0 0,1 -30.038265399797805,32.042727171017184" fill="none" id="id113" stroke="none" /><text fill="#e1ed5e" style="font-size:6.75px; font-family:Arial;" text-anchor="middle"><textPath startOffset="22.206326154141568" xlink:href="#id113">May</textPath></text><path d="M 118.30583269289576 110.29060199501025 l 20.21600446049887 11.364402773826349 a44.191301963293526,44.191301963293526 0 0,0 -0.3784627355012272,0.6598816800653012 l -20.017389728845263 -11.710704299749967" fill="#e2ff1b" stroke="none" /><path d="M 118.12598468904814 110.60418214915192 l 20.918120786153228 12.23765587578561 a45.234850908521096,45.234850908521096 0 0,0 -0.39896949872369186,0.6686958285435977 l -20.704370411731308 -12.595913798215312" fill="#d6ff1c" stroke="none" /><path d="M 117.35343817320211 111.8261652097733 l 17.44991477367142 11.891912884939435 a42.11674969476564,42.11674969476564 0 0,0 -0.4134242178742079,0.5955684204829921 l -17.242629648635077 -12.190522567609447" fill="#fcff18" stroke="none" /><path d="M 116.93607887273984 112.41649034213515 l 18.02725238503211 13.21647158211261 a43.35300761943314,43.35300761943314 0 0,0 -0.4464094977421069,0.5980384734230626 l -17.797081620594913 -13.524822935044988" fill="#edff1a" stroke="none" /><path d="M 116.71984013943494 112.70617746262583 l 16.469742831638264 12.5161169866112 a41.68587956464113,41.68587956464113 0 0,0 -0.4390777322841548,0.5675671572512171 l -16.251858282136038 -12.79776213797567" fill="#fffd17" stroke="none" /><path d="M 116.27256486870786 113.27417163493432 l 17.354774737751917 14.156972819788432 a43.396608797278674,43.396608797278674 0 0,0 -0.4771643124926996,0.5747751531619324 l -17.108514425365673 -14.453609230064135" fill="#ecff1a" stroke="none" /><path d="M 115.80600337817218 113.82643327865902 l 15.25533555786592 13.344732010223035 a41.26837772017681,41.26837772017681 0 0,0 -0.47230901782924667,0.5306441884446795 l -15.023367690388335 -13.605350368408581" fill="#fff817" stroke="none" /><path d="M 115.56566222782051 114.09645910891815 l 15.22566103310924 13.788549758960363 a41.54129641357787,41.54129641357787 0 0,0 -0.484556655858111,0.525890548832166 l -14.986057969255407 -14.048591562593863" fill="#fffb17" stroke="none" /><path d="M 115.07121518719521 114.62390073753431 l 17.143050940202787 16.634244297766916 a44.88686414948975,44.88686414948975 0 0,0 -0.5428304744105479,0.5498844046597499 l -16.854179840736705 -16.926869196407328" fill="#daff1c" stroke="none" /><path d="M 114.55890576462653 115.13401014063108 l 14.182150435279654 14.74237226158621 a41.456562049085605,41.456562049085605 0 0,0 -0.5185311085547039,0.4903035282183997 l -13.926283492334143 -14.984310426550532" fill="#fffa17" stroke="none" /><path d="M 114.0293411484842 115.62618273729858 l 42.088023445452606 46.878548211895726 a84.0,84.0 0 0,0 -1.0842305883736492,0.9567074329108447 l -41.27485050417237 -47.59607878657886" fill="#4dd2ff" stroke="none" /><path d="M 113.48314897796784 116.09983520530334 l 13.755389549747632 16.424909737151523 a42.424014599016715,42.424014599016715 0 0,0 -0.5638957019829373,0.46404777290802207 l -13.470623719220002 -16.659252628916725" fill="#f8ff18" stroke="none" /><path d="M 112.92097659922987 116.55440617244103 l 13.233622372479894 16.954969170038765 a42.50813196570928,42.50813196570928 0 0,0 -0.5806838983985422,0.44524365166030305 l -12.939809745587858 -17.18025216352644" fill="#f7ff18" stroke="none" /><path d="M 112.04921762599082 117.19931262002967 l 26.06173057568825 37.20107524851752 a66.42173268651942,66.42173268651942 0 0,0 -0.9420597996237623,0.6479573203410997 l -25.417513891441605 -37.64417335822371" fill="#37ff75" stroke="none" /><path d="M 111.45004920935366 117.60387380957326 l 11.284945601523624 17.350035330401393 a41.69719119096898,41.69719119096898 0 0,0 -0.6050425218769844,0.3861667640580213 l -10.98462127759971 -17.541716523283224" fill="#fffd17" stroke="none" /><line stroke="#e1ed5e" stroke-width="0.3" x1="143.8653032363475" x2="146.44561519142675" y1="172.8068346515853" y2="177.08958963109032" /><path d="M 144.38136562736335 173.6633856474863 a86.0,86.0 0 0,1 -40.68145358897372,12.25698825130547" fill="none" id="id114" stroke="none" /><text fill="#e1ed5e" style="font-size:6.75px; font-family:Arial;" text-anchor="middle"><textPath startOffset="21.466115282336833" xlink:href="#id114">June</textPath></text><path d="M 110.8373102113329 117.98757091392108 l 10.646229216656037 17.670418144919545 a41.62973276486834,41.62973276486834 0 0,0 -0.6169766836633092,0.3645206998016031 l -10.340484661964346 -17.851057417014896" fill="#fffc17" stroke="none" /><path d="M 110.5260780823613 118.17145234162733 l 10.67366625873694 18.426237788990846 a42.294445061079514,42.294445061079514 0 0,0 -0.6331100455873307,0.35949640704170027 l -10.35490744622841 -18.607237361827174" fill="#faff18" stroke="none" /><path d="M 109.89434966115114 118.52300852407294 l 12.76037183857862 23.888429702901057 a48.08291275194077,48.08291275194077 0 0,0 -0.7333997327367334,0.38368007755586675 l -12.34728120331539 -24.104539199401643" fill="#b5ff20" stroke="none" /><path d="M 109.2508944713604 118.85261126421891 l 9.12049129324281 18.586859619090912 a41.70397816676569,41.70397816676569 0 0,0 -0.6471808656449436,0.31068614462600996 l -8.799197759597634 -18.74110004021648" fill="#fffd17" stroke="none" /><path d="M 108.59647513512805 119.15986991738527 l 9.30028028106558 20.728514603885447 a43.71929864652229,43.71929864652229 0 0,0 -0.6892645666822275,0.3021533304150553 l -8.942095039725599 -20.885532487594958" fill="#e8ff1a" stroke="none" /><path d="M 107.59598834532513 119.57807347666477 l 7.5694799275779445 19.5097500766264 a41.92671437245774,41.92671437245774 0 0,0 -0.6750795559526738,0.25525732379991384 l -7.232530150864997 -19.637155650532947" fill="#feff18" stroke="none" /><path d="M 107.2578585660854 119.70592522655815 l 7.690645125875807 20.880990779108437 a43.25223131214865,43.25223131214865 0 0,0 -0.7008518226020136,0.2513005284716042 l -7.330073742644058 -21.01027884862" fill="#eeff19" stroke="none" /><path d="M 106.2309692047433 120.05430185196036 l 5.062710789298049 16.294275741319794 a38.062662818863814,38.062662818863814 0 0,0 -0.6273542924310258,0.18901670204373502 l -4.781481522426778 -16.379007812469254" fill="#ffcf13" stroke="none" /><path d="M 105.88484417918355 120.15858648285463 l 5.850590429301124 20.04124995560901 a41.87776588034812,41.87776588034812 0 0,0 -0.6937128332945475,0.19605017599923907 l -5.504746427901971 -20.13898892494677" fill="#ffff18" stroke="none" /><path d="M 104.48393922423573 120.51570834832081 l 4.7655010153515285 21.803959437305448 a43.318661408583125,43.318661408583125 0 0,0 -0.7298339183717332,0.1529437936370678 l -4.389475635550418 -21.882759211669057" fill="#edff1a" stroke="none" /><path d="M 103.7750983002368 120.6578951692458 l 4.005901314603506 21.92088333441068 a43.283903865866634,43.283903865866634 0 0,0 -0.734076518120634,0.12762861212069418 l -3.6279758250108216 -21.986590525052378" fill="#edff19" stroke="none" /><path d="M 103.41894727170886 120.7198165907248 l 3.63132421063612 22.006882717507434 a43.30447045919,43.30447045919 0 0,0 -0.7365144663546228,0.11502841245956544 l -3.25197388067298 -22.066129437314107" fill="#edff1a" stroke="none" /><path d="M 103.06178313531738 120.77559828337769 l 4.521188250864269 30.678329167080772 a52.00969241517097,52.00969241517097 0 0,0 -0.8868182778590422,0.12290493260471197 l -3.992441381818397 -30.751608665178086" fill="#88ff25" stroke="none" /><path d="M 102.34483914955558 120.86867818915974 l 2.4893927320609515 22.155181016002388 a43.29459849439479,43.29459849439479 0 0,0 -0.7413012553158342,0.07683890611145072 l -2.1076588801395144 -22.194749290569597" fill="#edff19" stroke="none" /><path d="M 101.98527174616119 120.90594882070398 l 1.9620503364469173 20.66141524288527 a41.75436632040793,41.75436632040793 0 0,0 -0.716098680447434,0.06178800733510809 l -1.6061073382579416 -20.692127502499037" fill="#fffe18" stroke="none" /><path d="M 101.62511606390274 120.93702456842531 l 1.6555257807310713 21.32880519412707 a42.392959043098436,42.392959043098436 0 0,0 -0.7280228434149952,0.050208717726437035 l -1.2881401765371459 -21.354142256369794" fill="#f8ff18" stroke="none" /><path d="M 100.90346689309514 120.98055641714683 l 0.7277208423418167 16.899333340683082 a37.914994678802046,37.914994678802046 0 0,0 -0.6522817116102396,0.02246590102199597 l -0.43671877905692474 -16.909356040131172" fill="#ffcd13" stroke="none" /><line stroke="#e1ed5e" stroke-width="0.3" x1="102.19456741930631" x2="102.32365962044197" y1="184.97166512339345" y2="189.96999836594603" /><path d="M 102.22038585953345 185.97133177190398 a86.0,86.0 0 0,1 -42.740103519485714,-10.115201625700543" fill="none" id="id115" stroke="none" /><text fill="#e1ed5e" style="font-size:6.75px; font-family:Arial;" text-anchor="middle"><textPath startOffset="22.20632615414155" xlink:href="#id115">July</textPath></text><path d="M 100.54218724476979 120.99299961872073 l 1.1316297146323482 43.815678802802786 a64.83028969515739,64.83028969515739 0 0,0 -1.1158228577031362,0.019209902410798962 l -0.37724716703654393 -43.828666182492746" fill="#35ff63" stroke="none" /><path d="M 99.81925306533755 120.99922214144158 l -0.19512894374264003 22.67012739955395 a43.670967152212384,43.670967152212384 0 0,0 -0.7516403766753693,-0.012940170730748272 l 0.5853290103106773 -22.663409751544044" fill="#e9ff1a" stroke="none" /><path d="M 99.09653310690486 120.98055641714683 l -0.9626849978331715 22.355735515427313 a43.37645353582178,43.37645353582178 0 0,0 -0.7456865369685509,-0.03854347642613359 l 1.3473596032152113 -22.335852232238977" fill="#ecff1a" stroke="none" /><path d="M 98.73552117531835 120.96189622390904 l -1.3626907722297372 22.590004668484486 a43.631067961165044,43.631067961165044 0 0,0 -0.7492851377991161,-0.05167509003412597 l 1.7513386708077834 -22.563201233934073" fill="#e9ff1a" stroke="none" /><path d="M 98.01472825383883 120.90594882070398 l -3.1269575719654177 32.928497114024054 a54.07663504416921,54.07663504416921 0 0,0 -0.9259140593875665,-0.09597477808969178 l 3.6933042279585773 -32.8697929674786" fill="#72ff27" stroke="none" /><path d="M 97.2962882734958 120.8252237178851 l -2.6572585340577106 20.467419993610534 a41.63919339779709,41.63919339779709 0 0,0 -0.7099906972282479,-0.0983982411858637 l 3.009177822472789 -20.418647186932066" fill="#fffc17" stroke="none" /><path d="M 96.93821686468263 120.77559828337769 l -3.13760755166525 21.290101611828486 a42.52006058983684,42.52006058983684 0 0,0 -0.7231733676134572,-0.11294480720974853 l 3.5036167828872244 -21.23293849727163" fill="#f7ff19" stroke="none" /><path d="M 96.58105272829116 120.7198165907248 l -3.6216138923227392 21.948035359387777 a43.24482733855224,43.24482733855224 0 0,0 -0.7334137969113806,-0.1275133895436575 l 3.99887666070617 -21.882443391323115" fill="#eeff19" stroke="none" /><path d="M 95.51606077576429 120.51570834832081 l -7.094917996334761 32.46191821274447 a54.22821083696241,54.22821083696241 0 0,0 -0.9102072216430884,-0.20716020026566717 l 7.652645367370712 -32.33498127890112" fill="#70ff27" stroke="none" /><path d="M 94.81253420990036 120.34920634021253 l -5.535812207602627 21.715687279936652 a43.4101827488721,43.4101827488721 0 0,0 -0.7224892261919341,-0.19081597123968197 l 5.90879187660605 -21.61717995939339" fill="#ecff1a" stroke="none" /><path d="M 94.46302465271185 120.25689768951611 l -6.057699245031954 22.161954161593147 a43.97494140153172,43.97494140153172 0 0,0 -0.7284529284770901,-0.20586807390725706 l 6.4382833416136585 -22.054397294347368" fill="#e5ff1a" stroke="none" /><path d="M 93.76903079525671 120.05430185196036 l -3.6797912720786488 11.843365373447503 a33.4018614399227,33.4018614399227 0 0,0 -0.547597520380732,-0.1753234334661711 l 3.883110137550321 -11.778269093321624" fill="#ff920d" stroke="none" /><path d="M 93.42475214034765 119.94407469862007 l -8.305982951887872 25.19374903787659 a47.5276147322099,47.5276147322099 0 0,0 -0.7747686211492407,-0.2628435816597915 l 8.738421305974338 -25.047042469318676" fill="#bbff1f" stroke="none" /><path d="M 92.06813273071674 119.44442032107085 l -8.4235662904976 20.649786234968037 a43.301796802057964,43.301796802057964 0 0,0 -0.6877326232632308,-0.28747229230079874 l 8.777770373258294 -20.50172889964726" fill="#edff1a" stroke="none" /><path d="M 91.7346041902142 119.30500536409082 l -8.808449707539626 20.57338484045129 a43.37974419075352,43.37974419075352 0 0,0 -0.683911259056874,-0.29980659767130496 l 9.161281641254243 -20.418713689485532" fill="#ecff1a" stroke="none" /><path d="M 91.40352486487194 119.15986991738527 l -8.458374528119855 18.852070543316636 a41.662639314185725,41.662639314185725 0 0,0 -0.6517862093099306,-0.29920308059938666 l 8.781628733197204 -18.703680392383173" fill="#fffd17" stroke="none" /><path d="M 91.07499286063937 119.00905698771935 l -9.742680699728538 20.75059097908581 a43.92393625008978,43.92393625008978 0 0,0 -0.6816311616890101,-0.32722438026820927 l 10.098424529417791 -20.579812322318038" fill="#e6ff1a" stroke="none" /><path d="M 90.42595943632237 118.69057910512821 l -20.79611680511316 40.59847706307895 a66.6148529978258,66.6148529978258 0 0,0 -1.0160639734316073,-0.5315566487503783 l 21.491871681071267 -40.23449099538386" fill="#37ff78" stroke="none" /><path d="M 90.10565033884886 118.52300852407294 l -9.694022043159414 18.14797931015326 a41.57481996069495,41.57481996069495 0 0,0 -0.6283285455329943,-0.3426148212191879 l 10.004973400561049 -17.978423837174308" fill="#fffc17" stroke="none" /><line stroke="#e1ed5e" stroke-width="0.3" x1="58.666819895761336" x2="56.23545636021788" y1="174.27360380694188" y2="178.64263932499728" /><path d="M 58.180547188652646 175.14741091055294 a86.0,86.0 0 0,1 -31.652253787137756,-30.449443065178592" fill="none" id="id116" stroke="none" /><text fill="#e1ed5e" style="font-size:6.75px; font-family:Arial;" text-anchor="middle"><textPath startOffset="22.20632615414155" xlink:href="#id116">August</textPath></text><path d="M 89.7882731507175 118.34994917583269 l -10.530024483657268 18.921913692683756 a42.65456611017165,42.65456611017165 0 0,0 -0.6385007358653972,-0.3625573816699605 l 10.854173986443872 -18.737853145219162" fill="#f5ff19" stroke="none" /><path d="M 89.4739219176387 118.17145234162733 l -11.216220325511125 19.36286349991581 a43.376864867688255,43.376864867688255 0 0,0 -0.6428701905183234,-0.37981904006150546 l 11.54785838705783 -19.166925887560556" fill="#ecff1a" stroke="none" /><path d="M 89.1626897886671 117.98757091392108 l -11.33218911404353 18.808961940174257 a42.958951691357456,42.958951691357456 0 0,0 -0.6301071747638678,-0.38706329109368487 l 11.654275488739705 -18.611110182252194" fill="#f1ff19" stroke="none" /><path d="M 88.54995079064634 117.60387380957326 l -11.268461406130132 17.324691710452374 a41.666958298783626,41.666958298783626 0 0,0 -0.5978718458081155,-0.3962368584463144 l 11.56500795067821 -17.12815683091474" fill="#fffd17" stroke="none" /><path d="M 87.95078237400918 117.19931262002967 l -11.892821124006181 16.976068886385878 a41.72742408315433,41.72742408315433 0 0,0 -0.5847257422348826,-0.4171862916532367 l 12.18327419408995 -16.76883833288842" fill="#fffd18" stroke="none" /><path d="M 87.65650970185807 116.9893568818739 l -12.726058631107113 17.515917018711967 a42.650864123373445,42.650864123373445 0 0,0 -0.5902372447089509,-0.43664340305606203 l 13.025680846234629 -17.29426366691614" fill="#f5ff19" stroke="none" /><path d="M 87.36589467227662 116.77436683061367 l -12.519734260435424 16.62251577446591 a41.80989612238102,41.80989612238102 0 0,0 -0.5711456220086991,-0.4379301080575407 l 12.804008610937611 -16.404546324581002" fill="#fffe18" stroke="none" /><path d="M 86.79598089348748 116.32954008644616 l -13.076083376437213 16.171320712791733 a41.796527836720834,41.796527836720834 0 0,0 -0.5555552115401059,-0.4571841170912618 l 13.352508716522008 -15.94384147684329" fill="#fffe18" stroke="none" /><path d="M 86.51685102203217 116.09983520530335 l -21.32706669729181 25.466028729637483 a54.21689921063456,54.21689921063456 0 0,0 -0.7103305107517951,-0.6053590715540151 l 21.76226268462066 -25.095145267860516" fill="#70ff27" stroke="none" /><path d="M 85.70375840098266 115.38237550388516 l -14.92050798415603 16.0540695210957 a42.91699584097779,42.91699584097779 0 0,0 -0.53679794776301,-0.5075759648484679 l 15.194641766309857 -15.794858919501301" fill="#f2ff19" stroke="none" /><path d="M 85.44109423537348 115.13401014063109 l -14.368650739601218 14.936239681464114 a41.72557308975522,41.72557308975522 0 0,0 -0.5133239902326447,-0.5023955648210193 l 14.623624682209657 -14.686694013720524" fill="#fffd18" stroke="none" /><path d="M 85.18274418774928 114.88116024355367 l -16.085943616077127 16.155319692982445 a43.79806869895077,43.79806869895077 0 0,0 -0.5296633405028739,-0.5365461675282376 l 16.361647581635534 -15.876033031473543" fill="#e7ff1a" stroke="none" /><path d="M 84.9287848128048 114.62390073753433 l -14.788213542661834 14.349298596511813 a41.60566985068,41.60566985068 0 0,0 -0.49430200253498513,-0.5182736734645678 l 15.033022096575777 -14.092617806464746" fill="#fffc17" stroke="none" /><path d="M 84.43433777217949 114.09645910891817 l -15.45341254330142 13.99480438554995 a41.84856131782895,41.84856131782895 0 0,0 -0.4789491127470982,-0.5381044054760533 l 15.692020505696858 -13.726725810333031" fill="#ffff18" stroke="none" /><path d="M 83.95833913139862 113.55231037782056 l -16.813469611954613 14.204349573008368 a43.01036817466587,43.01036817466587 0 0,0 -0.4729174313134327,-0.5696595111988505 l 17.055483043161583 -13.912828804695756" fill="#f1ff19" stroke="none" /><path d="M 83.72743513129214 113.27417163493432 l -16.654993145128834 13.586133431997194 a42.4935296844497,42.4935296844497 0 0,0 -0.45747742453424445,-0.5707734274761552 l 16.88638848171794 -13.29743217094278" fill="#f7ff18" stroke="none" /><path d="M 83.50135304334701 112.99209946851258 l -16.627696643283862 13.09372152088413 a42.16425852534262,42.16425852534262 0 0,0 -0.44411650204098696,-0.5740804463949213 l 16.85061996254292 -12.805563080375958" fill="#fbff18" stroke="none" /><path d="M 83.28015986056508 112.70617746262583 l -17.155354416804986 13.037144843271996 a42.54700282709045,42.54700282709045 0 0,0 -0.4381099998690797,-0.5869199397375793 l 17.37722568336915 -12.739912024025108" fill="#f6ff19" stroke="none" /><path d="M 82.85270091963577 112.12312394758628 l -35.488833242049715 25.090570948357794 a64.4625590065356,64.4625590065356 0 0,0 -0.6327739731245079,-0.9115581027988588 l 35.91546812233636 -24.47597158337192" fill="#34ff5f" stroke="none" /><path d="M 82.44556493220864 111.52570212397912 l -17.656670989993955 11.59282708591192 a42.12230267496295,42.12230267496295 0 0,0 -0.3927305717675146,-0.6095265687853448 l 17.853606425138516 -11.287178917205125" fill="#fcff18" stroke="none" /><path d="M 82.24976979558568 111.22182372390057 l -17.473246832743005 11.046712836010549 a41.672305613047705,41.672305613047705 0 0,0 -0.3780975126594813,-0.609613579276007 l 17.66080898507044 -10.74430292536928" fill="#fffd17" stroke="none" /><path d="M 82.05923443525364 110.91462005526583 l -18.746314267018885 11.404691562503727 a42.94290974856524,42.94290974856524 0 0,0 -0.37875467326662454,-0.6348146183229667 l 18.93984981598374 -11.080314850294648" fill="#f2ff19" stroke="none" /><line stroke="#e1ed5e" stroke-width="0.3" x1="26.63291911575756" x2="22.317208475507996" y1="142.92168965132927" y2="145.44649492493687" /><path d="M 25.769776987707644 143.4266507060508 a86.0,86.0 0 0,1 -11.730757126820373,-40.83630448921669" fill="none" id="id117" stroke="none" /><text fill="#e1ed5e" style="font-size:6.75px; font-family:Arial;" text-anchor="middle"><textPath startOffset="21.46611528233685" xlink:href="#id117">September</textPath></text><path d="M 81.69416730710424 110.29060199501025 l -28.857493889566328 16.222205740261888 a54.10460561108898,54.10460561108898 0 0,0 -0.44938664647122684,-0.815767296520446 l 29.13245694548907 -15.72306792534362" fill="#72ff27" stroke="none" /><path d="M 81.35079622478065 109.6543875284942 l -20.808532715026097 10.772236774910166 a44.43151977331044,44.43151977331044 0 0,0 -0.34576466975105646,-0.682226496121563 l 20.99087605456342 -10.412456067085918" fill="#e0ff1b" stroke="none" /><path d="M 81.18737489456691 109.33194174019688 l -20.729434352453126 10.282768757692473 a44.13967981405188,44.13967981405188 0 0,0 -0.3317764148912913,-0.6835576836040884 l 20.903364023959135 -9.9244221181231" fill="#e3ff1b" stroke="none" /><path d="M 81.02952815118164 109.00673069616217 l -20.885342441088802 9.915865897438387 a44.11973021852822,44.11973021852822 0 0,0 -0.31981632559233025,-0.6888559131298729 l 21.052933383520962 -9.554889917029687" fill="#e3ff1b" stroke="none" /><path d="M 80.87730276802145 108.67885076344099 l -20.349508384957566 9.235639943464438 a43.3472489733026,43.3472489733026 0 0,0 -0.3025202756862081,-0.6821033586520536 l 20.505469745375052 -8.883988248319689" fill="#edff1a" stroke="none" /><path d="M 80.58989483394504 108.01547362559985 l -36.24410471277481 14.967135052765492 a60.21288382812857,60.21288382812857 0 0,0 -0.3873620568192277,-0.9614008576942491 l 36.49636938385143 -14.341034827228437" fill="#33ff2f" stroke="none" /><path d="M 80.32549172779594 107.34259656027581 l -21.781449887110536 8.12891467508078 a44.24888842459895,44.24888842459895 0 0,0 -0.2601744856154632,-0.7158884439184771 l 21.918148633731224 -7.752778434156186" fill="#e2ff1b" stroke="none" /><path d="M 80.20201598880116 107.00284435728193 l -21.84737737834551 7.727745577974705 a44.17382035896867,44.17382035896867 0 0,0 -0.24739268126101918,-0.7190389336916784 l 21.977160890549758 -7.35053394119373" fill="#e3ff1b" stroke="none" /><path d="M 80.0844068197444 106.66101706037122 l -22.107451397706388 7.394111216704415 a44.311205202368754,44.311205202368754 0 0,0 -0.2357097613292227,-0.7254400519944599 l 22.23145341005186 -7.012472264732152" fill="#e1ff1b" stroke="none" /><path d="M 79.97269907076064 106.31721596034903 l -22.10102051475268 6.971329787727898 a44.174437356768365,44.174437356768365 0 0,0 -0.22249870533100732,-0.7271386427106684 l 22.21774599258982 -6.589864172465182" fill="#e3ff1b" stroke="none" /><path d="M 79.76711848015287 105.62410040840567 l -60.374069831678106 16.78207972820764 a83.66311920136327,83.66311920136327 0 0,0 -0.3737427691203466,-1.3908358796195992 l 60.654000677140225 -15.740352915412505" fill="#4dd5ff" stroke="none" /><path d="M 79.50377843672027 104.57218783832718 l -23.23594736857629 5.183351265139958 a44.807065767395095,44.807065767395095 0 0,0 -0.16144617634415018,-0.7542227876802499 l 23.32172758364488 -4.782614658043544" fill="#dbff1b" stroke="none" /><path d="M 79.4281124754447 104.21870165774334 l -22.649008688712517 4.644659387101153 a44.120347216327914,44.120347216327914 0 0,0 -0.14616454823699052,-0.7452898824756142 l 22.725603169925176 -4.254105777557584" fill="#e3ff1b" stroke="none" /><path d="M 79.35854240842038 103.8639653848113 l -22.996490208786735 4.304814315785141 a44.39593956686102,44.39593956686102 0 0,0 -0.13414668148627185,-0.7523658302584404 l 23.067183332612196 -3.908329734793486" fill="#e0ff1b" stroke="none" /><path d="M 79.23777060512086 103.15116336523772 l -43.24476012061741 6.563423476295526 a64.7400023504678,64.7400023504678 0 0,0 -0.15773731702139504,-1.103214427862591 l 43.351331488655404 -5.818063576452534" fill="#35ff62" stroke="none" /><path d="M 79.10278846688536 102.07522291339032 l -22.587628821389888 2.2430918505574087 a43.698732053198924,43.698732053198924 0 0,0 -0.0678899416864535,-0.7491598493324257 l 22.622893359353416 -1.8539506126764167" fill="#e8ff1a" stroke="none" /><path d="M 79.07016306316243 101.71520430193888 l -23.072001873223893 1.8907551447591409 a44.14934611291386,44.14934611291386 0 0,0 -0.05555131700107303,-0.7579535847527508 l 23.101129748889303 -1.4933284235096294" fill="#e3ff1b" stroke="none" /><path d="M 79.04373962182676 101.35467743843564 l -22.425487687611177 1.4496528325237048 a43.47229386070867,43.47229386070867 0 0,0 -0.04184446162926085,-0.7471609719098605 l 22.447118500127967 -1.0634201442784068" fill="#ebff1a" stroke="none" /><path d="M 79.0095281055655 100.63252640178507 l -43.62065951925051 1.3144639600274577 a64.64046003878272,64.64046003878272 0 0,0 -0.023941402199711075,-1.1124628842870132 l 43.63682298413523 -0.5634112599503156" fill="#35ff61" stroke="none" /><line stroke="#e1ed5e" stroke-width="0.3" x1="15.007084014347285" x2="10.007500721073583" y1="101.09737516637583" y2="101.16192664675087" /><path d="M 14.007167355692545 101.11028546245083 a86.0,86.0 0 0,1 10.666146001902534,-42.60595125391555" fill="none" id="id118" stroke="none" /><text fill="#e1ed5e" style="font-size:6.75px; font-family:Arial;" text-anchor="middle"><textPath startOffset="22.20632615414155" xlink:href="#id118">October</textPath></text><path d="M 79.00019446554 99.90962569577889 l -27.575021641762525 -0.11867126058225684 a48.57527699610214,48.57527699610214 0 0,0 0.010795260571228772,-0.8361048280361979 l 27.568893374073582 0.5933123466789267" fill="#afff20" stroke="none" /><path d="M 79.00486145842228 99.54816195383935 l -22.661606501763135 -0.48770223565519977 a43.666853833547705,43.666853833547705 0 0,0 0.02264085936668353,-0.7513398980042909 l 22.64985394794081 0.8777122810844851" fill="#e9ff1a" stroke="none" /><path d="M 79.01574976396665 99.18683210126434 l -22.654991740093198 -0.877911377435401 a43.671995481878554,43.671995481878554 0 0,0 0.0355747744732326,-0.7509272628626892 l 22.636523357386466 1.2677497469210994" fill="#e9ff1a" stroke="none" /><path d="M 79.03285615573316 98.82574320788736 l -22.514959619008486 -1.2609416167091259 a43.55024124940422,43.55024124940422 0 0,0 0.04836028035958729,-0.7481121323960555 l 22.489918747644484 1.648312813358193" fill="#eaff1a" stroke="none" /><line stroke="#e1ed5e" stroke-width="0.3" x1="26.266209847984243" x2="21.928928074336255" y1="57.711370442889674" y2="55.22380399835377" /><path d="M 25.398753493254645 57.213857153982495 a86.0,86.0 0 0,1 29.58750427330803,-30.492523968695096" fill="none" id="id119" stroke="none" /><text fill="#e1ed5e" style="font-size:6.75px; font-family:Arial;" text-anchor="middle"><textPath startOffset="21.46611528233685" xlink:href="#id119">November</textPath></text><line stroke="#e1ed5e" stroke-width="0.3" x1="56.762969772571076" x2="54.21961505331055" y1="26.818313649435495" y2="22.513508569990535" /><path d="M 56.25429882871897 25.957352633546506 a86.0,86.0 0 0,1 42.265352541879196,-11.944610805530505" fill="none" id="id120" stroke="none" /><text fill="#e1ed5e" style="font-size:6.75px; font-family:Arial;" text-anchor="middle"><textPath startOffset="22.20632615414155" xlink:href="#id120">December</textPath></text></svg>