<?xml version="1.0" encoding="utf-8" ?>
<svg baseProfile="full" height="200mm" version="1.1" viewBox="0,0,200,200" width="200mm" xmlns="http://www.w3.org/2000/svg" xmlns:ev="http://www.w3.org/2001/xml-events" xmlns:xlink="http://www.w3.org/1999/xlink"><defs /><rect fill="#1a1a1a" height="200" width="200" x="0" y="0" /><text alignment-baseline="middle" fill="#e1ed5e" style="dominant-baseline: central; font-size:9.0px; font-family:Arial;" text-anchor="middle" x="100.0" y="100.0">2017</text><line stroke="#e1ed5e" stroke-width="0.3" x1="100.0" x2="100.0" y1="15.0" y2="10.0" /><path d="M 100.0 14.0 a86.0,86.0 0 0,1 42.46469731375804,11.215312516191453" fill="none" id="id37" stroke="none" /><text fill="#e1ed5e" style="font-size:6.75px; font-family:Arial;" text-anchor="middle"><textPath startOffset="22.20632615414155" xlink:href="#id37">January</textPath></text><line stroke="#e1ed5e" stroke-width="0.3" x1="143.23703022742887" x2="145.7803849466894" y1="26.81831364943548" y2="22.513508569990506" /><path d="M 143.74570117128098 25.957352633546492 a86.0,86.0 0 0,1 28.547481713284135,27.462654790039103" fill="none" id="id38" stroke="none" /><text fill="#e1ed5e" style="font-size:6.75px; font-family:Arial;" text-anchor="middle"><textPath startOffset="19.985693538727396" xlink:href="#id38">February</textPath></text><line stroke="#e1ed5e" stroke-width="0.3" x1="172.23445277983987" x2="176.4835382374775" y1="55.19839476539836" y2="52.563006222186495" /><path d="M 173.08426987136738 54.67131705675599 a86.0,86.0 0 0,1 12.851231095245387,41.99856678651699" fill="none" id="id39" stroke="none" /><text fill="#e1ed5e" style="font-size:6.75px; font-family:Arial;" text-anchor="middle"><textPath startOffset="22.20632615414155" xlink:href="#id39">March</textPath></text><line stroke="#e1ed5e" stroke-width="0.3" x1="184.98032266829074" x2="189.97916517819016" y1="98.17113171792111" y2="98.06355123074" /><path d="M 185.9800911702706 98.14961562048488 a86.0,86.0 0 0,1 -9.607161424134198,41.387399972396054" fill="none" id="id40" stroke="none" /><text fill="#e1ed5e" style="font-size:6.75px; font-family:Arial;" text-anchor="middle"><textPath startOffset="21.466115282336823" xlink:href="#id40">April</textPath></text><path d="M 118.81262510543309 109.33194174019688 l 28.640996349576263 14.207273456921637 a52.97113215036638,52.97113215036638 0 0,0 -0.4122196609019145,0.81334849824884 l -28.39219801888808 -14.698176166873171" fill="#edff1a" stroke="none" /><line stroke="#e1ed5e" stroke-width="0.3" x1="174.80103733775053" x2="179.2010983576182" y1="140.37084112569926" y2="142.7455964860345" /><path d="M 175.68104954172406 140.8457921977663 a86.0,86.0 0 0,1 -30.038265399797805,32.042727171017184" fill="none" id="id41" stroke="none" /><text fill="#e1ed5e" style="font-size:6.75px; font-family:Arial;" text-anchor="middle"><textPath startOffset="22.206326154141568" xlink:href="#id41">May</textPath></text><path d="M 118.48025628344425 109.97397251340804 l 34.76611334827089 18.76360660887198 a60.50639910593376,60.50639910593376 0 0,0 -0.5025592087246161,0.9122909420251104 l -34.437977730094765 -19.3592680692949" fill="#7cff26" stroke="none" /><path d="M 117.75023020441432 111.22182372390056 l 35.30261652910346 22.31856911824926 a62.76593422021107,62.76593422021107 0 0,0 -0.5852030793292047,0.9082481747749079 l -34.913208586397204 -22.92293889294562" fill="#5cff2a" stroke="none" /><path d="M 117.35343817320211 111.8261652097733 l 31.419577012270228 21.412074360117376 a59.021924570347245,59.021924570347245 0 0,0 -0.5793679042131527,0.8346226773192026 l -31.04634820089494 -21.949738299623597" fill="#91ff24" stroke="none" /><path d="M 116.498646956653 112.99209946851258 l 29.78503136615568 23.45465608171085 a58.91133056744663,58.91133056744663 0 0,0 -0.6342284103959543,0.7912974590451198 l -29.37688504370487 -23.96388137433422" fill="#92ff23" stroke="none" /><path d="M 115.56566222782051 114.09645910891815 l 32.78940968928404 29.69450101932965 a65.23696167865378,65.23696167865378 0 0,0 -0.7609537187919847,0.825864971563977 l -32.27340956249633 -30.25451724569496" fill="#3bff2e" stroke="none" /><path d="M 114.81725581225074 114.88116024355365 l 26.712657757432222 26.8278651361944 a58.85895445243488,58.85895445243488 0 0,0 -0.7241054136141671,0.7086895512087229 l -26.24690239144226 -27.283704790325697" fill="#93ff23" stroke="none" /><path d="M 114.29624159901734 115.38237550388516 l 14.954331654419626 16.0904628901718 a42.96668002339845,42.96668002339845 0 0,0 -0.5460869645789592,0.4988374945459195 l -14.675145140373802 -16.345493151304304" fill="#ff6609" stroke="none" /><path d="M 113.20401910651253 116.32954008644616 l 20.132597352411988 24.89818083861612 a53.01938296136853,53.01938296136853 0 0,0 -0.7146066232364144,0.5677267203993454 l -19.701033236458223 -25.241041473020594" fill="#ecff1a" stroke="none" /><path d="M 111.45004920935366 117.60387380957326 l 20.67167812456261 31.781663683998936 a58.91295851036077,58.91295851036077 0 0,0 -0.8548500263505279,0.5456057326460364 l -20.12154629616515 -32.13278384546878" fill="#92ff23" stroke="none" /><line stroke="#e1ed5e" stroke-width="0.3" x1="143.8653032363475" x2="146.44561519142675" y1="172.8068346515853" y2="177.08958963109032" /><path d="M 144.38136562736335 173.6633856474863 a86.0,86.0 0 0,1 -40.68145358897372,12.25698825130547" fill="none" id="id42" stroke="none" /><text fill="#e1ed5e" style="font-size:6.75px; font-family:Arial;" text-anchor="middle"><textPath startOffset="21.466115282336833" xlink:href="#id42">June</textPath></text><path d="M 110.21172684928248 118.3499491758327 l 19.238407345401825 34.5704308607603 a60.56300048133633,60.56300048133633 0 0,0 -0.9153007046459143,0.49909492337013195 l -18.640483828887263 -34.8964664358902" fill="#7bff26" stroke="none" /><path d="M 108.92500713936063 119.00905698771935 l 16.2953869740774 34.7069682735702 a59.34205632693087,59.34205632693087 0 0,0 -0.9283697476366327,0.42616901747927727 l -15.695549230673347 -34.98232436138355" fill="#8cff24" stroke="none" /><path d="M 104.83641907484287 120.43548508189849 l 11.612895967963215 49.068362075025895 a71.423838702429,71.423838702429 0 0,0 -1.1988316188390709,0.272850173387117 l -10.766544199731284 -49.2609889819907" fill="#38ff82" stroke="none" /><path d="M 102.70371172650421 120.8252237178851 l 6.097901571587458 46.968825556763456 a68.36301276057557,68.36301276057557 0 0,0 -1.1682671693980538,0.1414608844882333 l -5.288506979138023 -47.06683196997704" fill="#33ff53" stroke="none" /><line stroke="#e1ed5e" stroke-width="0.3" x1="102.19456741930631" x2="102.32365962044197" y1="184.97166512339345" y2="189.96999836594603" /><path d="M 102.22038585953345 185.97133177190398 a86.0,86.0 0 0,1 -42.740103519485714,-10.115201625700543" fill="none" id="id43" stroke="none" /><text fill="#e1ed5e" style="font-size:6.75px; font-family:Arial;" text-anchor="middle"><textPath startOffset="22.20632615414155" xlink:href="#id43">July</textPath></text><path d="M 93.76903079525671 120.05430185196036 l -11.72615684480634 37.74049930308807 a60.52022320275266,60.52022320275266 0 0,0 -0.9921819542399879,-0.3176653296742191 l 12.374060144137268 -37.53306112675415" fill="#7bff26" stroke="none" /><path d="M 93.42475214034765 119.94407469862007 l -13.797544310444769 41.850780420554386 a65.06654117137111,65.06654117137111 0 0,0 -1.0606784007641175,-0.359839702119683 l 14.515892444146111 -41.607077731536585" fill="#3dff2e" stroke="none" /><path d="M 92.06813273071674 119.44442032107085 l -15.369510934023097 37.677285887997996 a61.69151924218348,61.69151924218348 0 0,0 -0.9798039225823656,-0.4095581191038813 l 16.015786316102925 -37.407142725874145" fill="#6bff28" stroke="none" /><line stroke="#e1ed5e" stroke-width="0.3" x1="58.666819895761336" x2="56.23545636021788" y1="174.27360380694188" y2="178.64263932499728" /><path d="M 58.180547188652646 175.14741091055294 a86.0,86.0 0 0,1 -31.652253787137756,-30.449443065178592" fill="none" id="id44" stroke="none" /><text fill="#e1ed5e" style="font-size:6.75px; font-family:Arial;" text-anchor="middle"><textPath startOffset="22.20632615414155" xlink:href="#id44">August</textPath></text><path d="M 85.18274418774928 114.88116024355367 l -32.57997943683726 32.720491626419026 a67.17451280067064,67.17451280067064 0 0,0 -0.8123617753836855,-0.8229181895328594 l 33.138381837276484 -32.1548329429055" fill="#31ff40" stroke="none" /><path d="M 83.72743513129214 113.27417163493432 l -40.34033171949628 32.90719633783828 a73.0598303306497,73.0598303306497 0 0,0 -0.7865485231462326,-0.9813402199891018 l 40.90079815469737 -32.20792828427092" fill="#3bff9a" stroke="none" /><line stroke="#e1ed5e" stroke-width="0.3" x1="26.63291911575756" x2="22.317208475507996" y1="142.92168965132927" y2="145.44649492493687" /><path d="M 25.769776987707644 143.4266507060508 a86.0,86.0 0 0,1 -11.730757126820373,-40.83630448921669" fill="none" id="id45" stroke="none" /><text fill="#e1ed5e" style="font-size:6.75px; font-family:Arial;" text-anchor="middle"><textPath startOffset="21.46611528233685" xlink:href="#id45">September</textPath></text><path d="M 80.32549172779594 107.34259656027581 l -35.37364222823457 13.20156926698963 a58.75680065368708,58.75680065368708 0 0,0 -0.34547806579441553,-0.9506072601410763 l 35.59564455503421 -12.590714209842437" fill="#95ff23" stroke="none" /><path d="M 80.0844068197444 106.66101706037122 l -35.57546386059111 11.898654966548978 a58.512552817812924,58.512552817812924 0 0,0 -0.3112526458367,-0.9579371439938554 l 35.775008757444056 -11.28451892257732" fill="#98ff23" stroke="none" /><path d="M 79.97269907076064 106.31721596034903 l -38.64624925351433 12.190194947113119 a61.52324560315201,61.52324560315201 0 0,0 -0.3098815358734959,-1.0127107888602604 l 38.85035756189396 -11.52315718570081" fill="#6dff28" stroke="none" /><path d="M 79.86692584326677 105.97154293290107 l -42.48032572613457 12.599818929907299 a65.30951941586527,65.30951941586527 0 0,0 -0.3103986151968239,-1.0805382999728492 l 42.6909169782175 -11.866723154429852" fill="#3aff2e" stroke="none" /><path d="M 79.58551787078972 104.9243191809786 l -42.73563758597103 10.30856029283404 a64.9613595694043,64.9613595694043 0 0,0 -0.2528526079802296,-1.089282417411256 l 42.90675075988182 -9.571409218074209" fill="#3fff2d" stroke="none" /><path d="M 79.50377843672027 104.57218783832718 l -46.446574673521624 10.361054265469658 a68.58818912708307,68.58818912708307 0 0,0 -0.24713291725955244,-1.1545227146521142 l 46.61804162950562 -9.560017731401379" fill="#33ff57" stroke="none" /><path d="M 79.35854240842038 103.8639653848113 l -48.323398623546325 9.045869882463652 a70.16277673667977,70.16277673667977 0 0,0 -0.21200370472873994,-1.1890293636702958 l 48.471948770614254 -8.212721768060142" fill="#36ff6f" stroke="none" /><path d="M 79.29508885075956 103.50808413554451 l -44.591759312703 7.555291703178898 a66.22728635815064,66.22728635815064 0 0,0 -0.18076342226007694,-1.1256140029656785 l 44.715204489324364 -6.786598470520006" fill="#30ff31" stroke="none" /><path d="M 79.1416061653843 102.43462659150553 l -50.14683480610671 5.853222374973532 a71.48727813263304,71.48727813263304 0 0,0 -0.132141505193476,-1.2234662237768523 l 50.24015861280124 -4.989159829311897" fill="#38ff83" stroke="none" /><path d="M 79.07016306316243 101.71520430193888 l -50.32152320722649 4.123858840640996 a71.4902159792664,71.4902159792664 0 0,0 -0.0899532156191496,-1.2273401589606703 l 50.38505298150998 -3.2570455451835656" fill="#38ff83" stroke="none" /><path d="M 79.0235259727143 100.99374915477108 l -31.539504011894635 1.494167008857158 a52.57487685433904,52.57487685433904 0 0,0 -0.035044578170072026,-0.9043448454868785 l 31.56055072291591 -0.9510449163562827" fill="#f4ff19" stroke="none" /><line stroke="#e1ed5e" stroke-width="0.3" x1="15.007084014347285" x2="10.007500721073583" y1="101.09737516637583" y2="101.16192664675087" /><path d="M 14.007167355692545 101.11028546245083 a86.0,86.0 0 0,1 10.666146001902534,-42.60595125391555" fill="none" id="id46" stroke="none" /><text fill="#e1ed5e" style="font-size:6.75px; font-family:Arial;" text-anchor="middle"><textPath startOffset="22.20632615414155" xlink:href="#id46">October</textPath></text><path d="M 79.00175016825051 100.2711162175752 l -62.994749495248485 0.8133486527256131 a84.0,84.0 0 0,0 -0.006222810841987947,-1.4459620871852985 l 62.99941660337998 0.27112291266336075" fill="#4dd2ff" stroke="none" /><line stroke="#e1ed5e" stroke-width="0.3" x1="26.266209847984243" x2="21.928928074336255" y1="57.711370442889674" y2="55.22380399835377" /><path d="M 25.398753493254645 57.213857153982495 a86.0,86.0 0 0,1 29.58750427330803,-30.492523968695096" fill="none" id="id47" stroke="none" /><text fill="#e1ed5e" style="font-size:6.75px; font-family:Arial;" text-anchor="middle"><textPath startOffset="21.46611528233685" xlink:href="#id47">November</textPath></text><line stroke="#e1ed5e" stroke-width="0.3" x1="56.762969772571076" x2="54.21961505331055" y1="26.818313649435495" y2="22.513508569990535" /><path d="M 56.25429882871897 25.957352633546506 a86.0,86.0 0 0,1 42.265352541879196,-11.944610805530505" fill="none" id="id48" stroke="none" /><text fill="#e1ed5e" style="font-size:6.75px; font-family:Arial;" text-anchor="middle"><textPath startOffset="22.20632615414155" xlink:href="#id48">December</textPath></text><path d="M 91.56875222667455 80.76684994638697 l -6.664395388979649 -15.202650898052864 a37.59923974851622,37.59923974851622 0 0,0 0.5949922887222945,-0.254744646650441 l 6.401719342467047 15.31511507266609" fill="#ff0000" stroke="none" /></svg>