<?xml version="1.0" encoding="utf-8" ?>
<svg baseProfile="full" height="200mm" version="1.1" viewBox="0,0,200,200" width="200mm" xmlns="http://www.w3.org/2000/svg" xmlns:ev="http://www.w3.org/2001/xml-events" xmlns:xlink="http://www.w3.org/1999/xlink"><defs /><rect fill="#1a1a1a" height="200" width="200" x="0" y="0" /><text alignment-baseline="middle" fill="#e1ed5e" style="dominant-baseline: central; font-size:9.0px; font-family:Arial;" text-anchor="middle" x="100.0" y="100.0">2025</text><line stroke="#e1ed5e" stroke-width="0.3" x1="100.0" x2="100.0" y1="15.0" y2="10.0" /><path d="M 100.0 14.0 a86.0,86.0 0 0,1 42.46469731375804,11.215312516191453" fill="none" id="id133" stroke="none" /><text fill="#e1ed5e" style="font-size:6.75px; font-family:Arial;" text-anchor="middle"><textPath startOffset="22.20632615414155" xlink:href="#id133">January</textPath></text><path d="M 100.36148047927253 79.00311137660856 l 0.2875028168052691 -16.699835729774968 a37.70231035728709,37.70231035728709 0 0,0 0.6487909883209629,0.016756357108467967 l -0.5749204403210999 16.69241258052414" fill="#ff700a" stroke="none" /><path d="M 100.72285384407766 79.0124445844662 l 0.5500156372168916 -15.969319054018147 a36.97878807201003,36.97878807201003 0 0,0 0.6359632533018313,0.02738591547141641 l -0.8248197229080545 15.957485412022535" fill="#ff6409" stroke="none" /><path d="M 101.08401301168833 79.027996857942 l 0.9512560354858985 -18.403602493701214 a39.42817063061914,39.42817063061914 0 0,0 0.6774847765883237,0.040867731854480616 l -1.2679028609138343 18.38450149246643" fill="#ff8b0c" stroke="none" /><path d="M 102.52436894288641 79.15227682838746 l 2.0511939613285577 -16.939965925965428 a38.06369954728049,38.06369954728049 0 0,0 0.6497750317239344,0.08435944778604404 l -2.3424837215603382 16.902148155015247" fill="#ff750a" stroke="none" /><path d="M 102.88285421437855 79.19881850522331 l 2.90891585208639 -20.989228761720607 a42.189844630066524,42.189844630066524 0 0,0 0.7184951024098711,0.10588750116172525 l -3.269779934924917 20.936046776397916" fill="#ffb510" stroke="none" /><path d="M 103.95276090670814 79.375362276772 l 2.806645914055526 -14.644461570275206 a35.91098641841484,35.91098641841484 0 0,0 0.6060980883740985,0.12157757465306653 l -3.05831041189675 14.593980039544931" fill="#ff5307" stroke="none" /><path d="M 104.66035177308747 79.52364482259891 l 4.452505241375249 -19.563132396599944 a41.06342323960127,41.06342323960127 0 0,0 0.687863791805922,0.1627951355326886 l -4.788592720143695 19.48359134892639" fill="#ffa40f" stroke="none" /><path d="M 105.36241919743992 79.69619591428918 l 4.743001975713211 -17.958495848104434 a39.57427362962018,39.57427362962018 0 0,0 0.6571253689089045,0.17961718637742322 l -5.051425233845826 17.874192120900716" fill="#ff8d0d" stroke="none" /><path d="M 106.0581310904928 79.89281104454417 l 13.35855954673351 -44.33761451620056 a67.30631894407958,67.30631894407958 0 0,0 1.106434562309236,0.3437746043569536 l -14.119779481753463 44.101099776961085" fill="#35ff63" stroke="none" /><path d="M 106.74666289553966 80.11325718540242 l 5.007932284983635 -14.761588495881625 a36.58794023252354,36.58794023252354 0 0,0 0.5946724969341741,0.20746955747976992 l -5.261286785981083 14.673198085229648" fill="#ff5e08" stroke="none" /><path d="M 108.43124777332544 80.76684994638697 l 10.163348998878352 -23.184375741049656 a46.31420434015601,46.31420434015601 0 0,0 0.7273929885889004,0.3263600309831486 l -10.560924105934031 23.005995379549976" fill="#fff216" stroke="none" /><path d="M 109.73455568895987 81.39251694778311 l 6.966407150997446 -13.316201287341773 a36.02837467321304,36.02837467321304 0 0,0 0.547039320480377,0.2922094598292187 l -7.194591518006134 13.1943131010108" fill="#ff5507" stroke="none" /><line stroke="#e1ed5e" stroke-width="0.3" x1="143.23703022742887" x2="145.7803849466894" y1="26.81831364943548" y2="22.513508569990506" /><path d="M 143.74570117128098 25.957352633546492 a86.0,86.0 0 0,1 28.547481713284135,27.462654790039103" fill="none" id="id134" stroke="none" /><text fill="#e1ed5e" style="font-size:6.75px; font-family:Arial;" text-anchor="middle"><textPath startOffset="19.985693538727396" xlink:href="#id134">February</textPath></text><path d="M 111.90073688211348 82.69761687909136 l 8.443252717910001 -12.275575433610285 a35.89893515271313,35.89893515271313 0 0,0 0.5061217533725805,0.35457063234796543 l -8.653305610866232 12.128419958498384" fill="#ff5307" stroke="none" /><path d="M 112.48926042617603 83.11751280151076 l 6.053017968740746 -8.182229762405525 a31.177814618801676,31.177814618801676 0 0,0 0.4287006613612904,0.3228884502405447 l -6.192964783860419 8.076824722659133" fill="#ff0400" stroke="none" /><path d="M 113.06298171725822 83.55741782278167 l 39.188945151774654 -49.32774653165496 a84.0,84.0 0 0,0 1.1243864057420354,0.9091756109434814 l -40.032234956081176 48.64586482344735" fill="#4dd2ff" stroke="none" /><path d="M 113.89432698308785 84.25364557470407 l 6.562317399594523 -7.4370335282218445 a30.918340453569684,30.918340453569684 0 0,0 0.3960330411322218,0.3555623746069242 l -6.689361428322735 7.322972144845623" fill="#ff0000" stroke="none" /><path d="M 114.94478906791727 85.2469230424477 l 23.178732875831386 -22.881395538046476 a53.5701077599949,53.5701077599949 0 0,0 0.6421671676412432,0.6618097143419686 l -23.569164307175736 22.479021628154396" fill="#a9ff21" stroke="none" /><path d="M 115.4437574822437 85.77008943001954 l 11.606643472418444 -10.694385664891124 a36.78239707538948,36.78239707538948 0 0,0 0.42502297922520904,0.46932098923310966 l -11.789010092259689 10.493011888388466" fill="#ff6109" stroke="none" /><path d="M 115.9244219780498 86.31012108654704 l 11.704445076897285 -10.06205663682792 a36.434993304852384,36.434993304852384 0 0,0 0.4047570112233335,0.4791046343551622 l -11.875912701607737 9.859093052843651" fill="#ff5c08" stroke="none" /><path d="M 116.15771136456269 86.58626213691792 l 11.475023520833807 -9.526284633277434 a35.913962039575765,35.913962039575765 0 0,0 0.39078068959779394,0.47905091901804325 l -11.63730270250801 9.327349544651291" fill="#ff5307" stroke="none" /><path d="M 117.04232023915458 87.72973835380427 l 12.574517339982533 -9.053498330686509 a36.49465450912878,36.49465450912878 0 0,0 0.36266542098440463,0.5129645186019831 l -12.72849538077082 8.835707311752733" fill="#ff5c08" stroke="none" /><path d="M 117.45458315368197 88.32363383020206 l 14.587964011330364 -9.758721131773141 a38.55110629343876,38.55110629343876 0 0,0 0.3642223428234536,0.5547356159787524 l -14.753782989511743 9.506167451816715" fill="#ff7d0b" stroke="none" /><line stroke="#e1ed5e" stroke-width="0.3" x1="172.23445277983987" x2="176.4835382374775" y1="55.19839476539836" y2="52.563006222186495" /><path d="M 173.08426987136738 54.67131705675599 a86.0,86.0 0 0,1 12.851231095245387,41.99856678651699" fill="none" id="id135" stroke="none" /><text fill="#e1ed5e" style="font-size:6.75px; font-family:Arial;" text-anchor="middle"><textPath startOffset="22.20632615414155" xlink:href="#id135">March</textPath></text><path d="M 118.03404312379186 89.2402003453031 l 20.95839276648599 -12.504578463291503 a45.40530085655381,45.40530085655381 0 0,0 0.3946808761489552,0.6746375550242905 l -21.170533317105274 12.141961495913318" fill="#ffe515" stroke="none" /><path d="M 118.3937258080291 89.86733742301442 l 14.310922563429134 -7.883544150543947 a37.33868945142299,37.33868945142299 0 0,0 0.30527383640982236,0.5656260558067322 l -14.444504499057421 7.636037111404756" fill="#ff6a09" stroke="none" /><path d="M 118.56541770881063 90.18545643968196 l 18.025082200809802 -9.52889707158087 a41.38880741354758,41.38880741354758 0 0,0 0.3275442554706786,0.6327112463267638 l -18.186435889440595 9.217213102993762" fill="#ffa90f" stroke="none" /><path d="M 119.34039704204932 91.81776055985345 l 14.463060416320513 -6.118810441499633 a36.70413823885737,36.70413823885737 0 0,0 0.24116071802349318,0.5839898073904553 l -14.566242821230203 5.868946063655875" fill="#ff6008" stroke="none" /><path d="M 119.7369772167798 92.82701384747503 l 14.018375898597862 -5.094681677802438 a35.91544985015622,35.91544985015622 0 0,0 0.2061665157507676,0.5828605027090062 l -14.103995495158438 4.852623548666816" fill="#ff5307" stroke="none" /><path d="M 120.37134235888165 94.90015583598534 l 15.713761331559283 -3.933846508967663 a37.19868647580182,37.19868647580182 0 0,0 0.15015373745378321,0.6224841804984895 l -15.779147869273887 3.6627770968097675" fill="#ff6809" stroke="none" /><path d="M 120.45610955862082 95.25157060432595 l 15.167552990619864 -3.520808992282258 a36.57083041084827,36.57083041084827 0 0,0 0.13706331549192088,0.6144279679349206 l -15.225910693113821 3.2592028547973735" fill="#ff5e08" stroke="none" /><path d="M 120.67395015179393 96.31383870115 l 14.983110210118587 -2.6714856419517314 a36.21940955174392,36.21940955174392 0 0,0 0.10415346284126042,0.614719633478601 l -15.026875534480071 2.4131802201572925" fill="#ff5808" stroke="none" /><path d="M 120.78858239683441 97.02765380044208 l 19.207644484958 -2.7463041008519204 a40.40298412293566,40.40298412293566 0 0,0 0.09251129174445084,0.6893165779571635 l -19.252071775760285 2.415269180830093" fill="#ff9a0e" stroke="none" /><path d="M 120.87857604477298 97.74499172005257 l 15.961245152466468 -1.7239077942814756 a37.05407128738124,37.05407128738124 0 0,0 0.063032282455279,0.6347264823377738 l -15.988554560603976 1.4489057812392667" fill="#ff6509" stroke="none" /><line stroke="#e1ed5e" stroke-width="0.3" x1="184.98032266829074" x2="189.97916517819016" y1="98.17113171792111" y2="98.06355123074" /><path d="M 185.9800911702706 98.14961562048488 a86.0,86.0 0 0,1 -9.607161424134198,41.387399972396054" fill="none" id="id136" stroke="none" /><text fill="#e1ed5e" style="font-size:6.75px; font-family:Arial;" text-anchor="middle"><textPath startOffset="21.466115282336823" xlink:href="#id136">April</textPath></text><line stroke="#e1ed5e" stroke-width="0.3" x1="174.80103733775053" x2="179.2010983576182" y1="140.37084112569926" y2="142.7455964860345" /><path d="M 175.68104954172406 140.8457921977663 a86.0,86.0 0 0,1 -30.038265399797805,32.042727171017184" fill="none" id="id137" stroke="none" /><text fill="#e1ed5e" style="font-size:6.75px; font-family:Arial;" text-anchor="middle"><textPath startOffset="22.206326154141568" xlink:href="#id137">May</textPath></text><line stroke="#e1ed5e" stroke-width="0.3" x1="143.8653032363475" x2="146.44561519142675" y1="172.8068346515853" y2="177.08958963109032" /><path d="M 144.38136562736335 173.6633856474863 a86.0,86.0 0 0,1 -40.68145358897372,12.25698825130547" fill="none" id="id138" stroke="none" /><text fill="#e1ed5e" style="font-size:6.75px; font-family:Arial;" text-anchor="middle"><textPath startOffset="21.466115282336833" xlink:href="#id138">June</textPath></text><line stroke="#e1ed5e" stroke-width="0.3" x1="102.19456741930631" x2="102.32365962044197" y1="184.97166512339345" y2="189.96999836594603" /><path d="M 102.22038585953345 185.97133177190398 a86.0,86.0 0 0,1 -42.740103519485714,-10.115201625700543" fill="none" id="id139" stroke="none" /><text fill="#e1ed5e" style="font-size:6.75px; font-family:Arial;" text-anchor="middle"><textPath startOffset="22.20632615414155" xlink:href="#id139">July</textPath></text><line stroke="#e1ed5e" stroke-width="0.3" x1="58.666819895761336" x2="56.23545636021788" y1="174.27360380694188" y2="178.64263932499728" /><path d="M 58.180547188652646 175.14741091055294 a86.0,86.0 0 0,1 -31.652253787137756,-30.449443065178592" fill="none" id="id140" stroke="none" /><text fill="#e1ed5e" style="font-size:6.75px; font-family:Arial;" text-anchor="middle"><textPath startOffset="22.20632615414155" xlink:href="#id140">August</textPath></text><line stroke="#e1ed5e" stroke-width="0.3" x1="26.63291911575756" x2="22.317208475507996" y1="142.92168965132927" y2="145.44649492493687" /><path d="M 25.769776987707644 143.4266507060508 a86.0,86.0 0 0,1 -11.730757126820373,-40.83630448921669" fill="none" id="id141" stroke="none" /><text fill="#e1ed5e" style="font-size:6.75px; font-family:Arial;" text-anchor="middle"><textPath startOffset="21.46611528233685" xlink:href="#id141">September</textPath></text><line stroke="#e1ed5e" stroke-width="0.3" x1="15.007084014347285" x2="10.007500721073583" y1="101.09737516637583" y2="101.16192664675087" /><path d="M 14.007167355692545 101.11028546245083 a86.0,86.0 0 0,1 10.666146001902534,-42.60595125391555" fill="none" id="id142" stroke="none" /><text fill="#e1ed5e" style="font-size:6.75px; font-family:Arial;" text-anchor="middle"><textPath startOffset="22.20632615414155" xlink:href="#id142">October</textPath></text><line stroke="#e1ed5e" stroke-width="0.3" x1="26.266209847984243" x2="21.928928074336255" y1="57.711370442889674" y2="55.22380399835377" /><path d="M 25.398753493254645 57.213857153982495 a86.0,86.0 0 0,1 29.58750427330803,-30.492523968695096" fill="none" id="id143" stroke="none" /><text fill="#e1ed5e" style="font-size:6.75px; font-family:Arial;" text-anchor="middle"><textPath startOffset="21.46611528233685" xlink:href="#id143">November</textPath></text><line stroke="#e1ed5e" stroke-width="0.3" x1="56.762969772571076" x2="54.21961505331055" y1="26.818313649435495" y2="22.513508569990535" /><path d="M 56.25429882871897 25.957352633546506 a86.0,86.0 0 0,1 42.265352541879196,-11.944610805530505" fill="none" id="id144" stroke="none" /><text fill="#e1ed5e" style="font-size:6.75px; font-family:Arial;" text-anchor="middle"><textPath startOffset="22.20632615414155" xlink:href="#id144">December</textPath></text></svg>