<?xml version="1.0" encoding="utf-8" ?>
<svg baseProfile="full" height="200mm" version="1.1" viewBox="0,0,200,200" width="200mm" xmlns="http://www.w3.org/2000/svg" xmlns:ev="http://www.w3.org/2001/xml-events" xmlns:xlink="http://www.w3.org/1999/xlink"><defs /><rect fill="#1a1a1a" height="200" width="200" x="0" y="0" /><text alignment-baseline="middle" fill="#e1ed5e" style="dominant-baseline: central; font-size:9.0px; font-family:Arial;" text-anchor="middle" x="100.0" y="100.0">2016</text><line stroke="#e1ed5e" stroke-width="0.3" x1="100.0" x2="100.0" y1="15.0" y2="10.0" /><path d="M 100.0 14.0 a86.0,86.0 0 0,1 42.35913384403234,11.155469271406648" fill="none" id="id25" stroke="none" /><text fill="#e1ed5e" style="font-size:6.75px; font-family:Arial;" text-anchor="middle"><textPath startOffset="22.145653131862478" xlink:href="#id25">January</textPath></text><line stroke="#e1ed5e" stroke-width="0.3" x1="143.13028292997686" x2="145.6673583964461" y1="26.7553504044142" y2="22.446841604673864" /><path d="M 143.63769802327073 25.89364864446614 a86.0,86.0 0 0,1 29.32050498858742,28.57503671076993" fill="none" id="id26" stroke="none" /><text fill="#e1ed5e" style="font-size:6.75px; font-family:Arial;" text-anchor="middle"><textPath startOffset="20.669276256404974" xlink:href="#id26">February</textPath></text><line stroke="#e1ed5e" stroke-width="0.3" x1="172.87174338648825" x2="177.1583165268699" y1="56.24261187166439" y2="53.66864786411523" /><path d="M 173.72905801456457 55.72781907015455 a86.0,86.0 0 0,1 12.242430191666344,42.057860355516425" fill="none" id="id27" stroke="none" /><text fill="#e1ed5e" style="font-size:6.75px; font-family:Arial;" text-anchor="middle"><textPath startOffset="22.145653131862474" xlink:href="#id27">March</textPath></text><line stroke="#e1ed5e" stroke-width="0.3" x1="184.99686870605535" x2="189.99668451229388" y1="99.2704041080226" y2="99.22748670261217" /><path d="M 185.99683186730306 99.26182062694052 a86.0,86.0 0 0,1 -10.086455211305974,41.156179273409016" fill="none" id="id28" stroke="none" /><text fill="#e1ed5e" style="font-size:6.75px; font-family:Arial;" text-anchor="middle"><textPath startOffset="21.40746469413373" xlink:href="#id28">April</textPath></text><path d="M 119.16976305983485 108.57439118712176 l 10.084910595976517 4.51085223469616 a32.047769440574996,32.047769440574996 0 0,0 -0.22893634680141134,0.5002672341935182 l -10.005989784320048 -4.683308451104367" fill="#ff870c" stroke="none" /><line stroke="#e1ed5e" stroke-width="0.3" x1="174.33088141563837" x2="178.70328620479359" y1="141.23008692659167" y2="143.65538615756765" /><path d="M 175.20536237346943 141.71514677278685 a86.0,86.0 0 0,1 -30.301960400862466,31.631185727798858" fill="none" id="id29" stroke="none" /><text fill="#e1ed5e" style="font-size:6.75px; font-family:Arial;" text-anchor="middle"><textPath startOffset="22.145653131862474" xlink:href="#id29">May</textPath></text><path d="M 118.36410011445183 110.18625677009912 l 10.249991258000673 5.685497366848934 a32.72122865136315,32.72122865136315 0 0,0 -0.2766761173327913,0.48886018873351433 l -10.150881775646502 -5.8606143256815715" fill="#ff900d" stroke="none" /><path d="M 118.00360718960297 110.81064883170644 l 10.754366567023613 6.457688125448405 a33.54424713498074,33.54424713498074 0 0,0 -0.30067151995373265,0.49112433150246404 l -10.641927082614476 -6.641349573075426" fill="#ff9b0e" stroke="none" /><path d="M 117.81537515405839 111.11811171558189 l 7.2345934703829995 4.514921393738609 a29.527828438315755,29.527828438315755 0 0,0 -0.2720529717866679,0.42771245844618466 l -7.156022806970442 -4.638447526863466" fill="#ff6409" stroke="none" /><path d="M 114.39649973595853 115.28858382429668 l 7.585400052855443 8.055431992211512 a32.06473129104381,32.06473129104381 0 0,0 -0.403970156687031,0.37390874610525826 l -7.446000124854445 -8.18445848444915" fill="#ff870c" stroke="none" /><path d="M 113.59037401385872 116.0094264158162 l 9.506309682804398 11.198408903067886 a35.689257494703085,35.689257494703085 0 0,0 -0.47046202234470286,0.3924761516016023 l -9.3126733262978 -11.359947238581357" fill="#ffb711" stroke="none" /><path d="M 113.03279911837588 116.46651593811092 l 7.5326213416152 9.517220993805843 a33.13745771243284,33.13745771243284 0 0,0 -0.44907575833471264,0.34920402589151545 l -7.368135638645256 -9.64512607131815" fill="#ff950d" stroke="none" /><path d="M 111.8722381534696 117.32195027204791 l 4.937317896953575 7.203694365188261 a29.73328807051635,29.73328807051635 0 0,0 -0.42349222995107283,0.28494447216880603 l -4.8129293789054985 -7.287388511414187" fill="#ff6709" stroke="none" /><path d="M 110.96478420261333 117.91015095944535 l 2.677385516907218 4.373308028534845 a26.127788638252543,26.127788638252543 0 0,0 -0.38453541007974484,0.23090246515315446 l -2.601917350270037 -4.4186244942239234" fill="#ff3405" stroke="none" /><line stroke="#e1ed5e" stroke-width="0.3" x1="143.1302829299769" x2="145.66735839644613" y1="173.24464959558577" y2="177.55315839532614" /><path d="M 143.63769802327073 174.10635135553383 a86.0,86.0 0 0,1 -40.68552437913181,11.842963189579606" fill="none" id="id30" stroke="none" /><text fill="#e1ed5e" style="font-size:6.75px; font-family:Arial;" text-anchor="middle"><textPath startOffset="21.407464694133747" xlink:href="#id30">June</textPath></text><path d="M 109.3889696526874 118.78422872680471 l 6.598733215019723 13.201886746179357 a35.759169817505004,35.759169817505004 0 0,0 -0.5514400304902929,0.26973695192512004 l -6.371132935267361 -13.3132174482017" fill="#ffb811" stroke="none" /><path d="M 108.07796709384702 119.3841803445677 l 3.0766192533838903 7.382766204208546 a28.99817622063282,28.99817622063282 0 0,0 -0.4611338848806558,0.1875391365105382 l -2.9494309073127933 -7.434492597298376" fill="#ff5d08" stroke="none" /><path d="M 107.407793817531 119.65005319985036 l 11.120769776394186 29.499163058815714 a52.52573776440704,52.52573776440704 0 0,0 -0.8464418798498021,0.3108251827225418 l -10.612738744890256 -29.68571909054698" fill="#7fff26" stroke="none" /><path d="M 105.69591212413111 120.21278271476187 l 2.8285467416008934 10.037514526305662 a31.42844065693516,31.42844065693516 0 0,0 -0.5205426761953456,0.14187622114750517 l -2.6558226644708527 -10.084591241597309" fill="#ff7e0b" stroke="none" /><path d="M 103.94208987418118 120.62667999033965 l 1.7610588674350756 9.214604147065122 a30.381378252777225,30.381378252777225 0 0,0 -0.5131056958622549,0.09350495023614044 l -1.6026184380217636 -9.243477271232626" fill="#ff700a" stroke="none" /><path d="M 102.51750503828377 120.84855314841334 l 1.4104417237675637 11.680480790916 a32.76532946258209,32.76532946258209 0 0,0 -0.5589829151745114,0.06263520157209043 l -1.209722906992253 -11.702971752995062" fill="#ff900d" stroke="none" /><path d="M 100.72087961077811 120.9876233191556 l 0.3905240632979723 11.369682003791244 a32.37638685661442,32.37638685661442 0 0,0 -0.5556199410294665,0.0143107987613038 l -0.19529080819776193 -11.374710519902592" fill="#ff8b0c" stroke="none" /><line stroke="#e1ed5e" stroke-width="0.3" x1="101.45913802915013" x2="101.54496967792366" y1="184.9874750549273" y2="189.98673829345242" /><path d="M 101.47630435890484 185.9873277026323 a86.0,86.0 0 0,1 -42.54439059252881,-10.42667462771756" fill="none" id="id31" stroke="none" /><text fill="#e1ed5e" style="font-size:6.75px; font-family:Arial;" text-anchor="middle"><textPath startOffset="22.145653131862474" xlink:href="#id31">July</textPath></text><path d="M 100.0 121.0 l 1.7945981964597322e-15 14.654006344598308 a35.65400634459831,35.65400634459831 0 0,0 -0.6120484299877988,-0.0052536996598617075 l 0.2515555051389449 -14.65184704313288" fill="#ffb610" stroke="none" /><path d="M 98.19965949673042 120.92268563240118 l -0.7560936967914464 8.78695485541641 a29.81942477202758,29.81942477202758 0 0,0 -0.5096287890613519,-0.048262376183164535 l 0.9068220492378136 -8.77268072372806" fill="#ff6809" stroke="none" /><path d="M 91.59046798132341 119.24265499422711 l -4.914241212866501 11.244745606246427 a33.27167757266438,33.27167757266438 0 0,0 -0.5213934835082192,-0.23321267331585233 l 5.106548099230355 -11.15872918202072" fill="#ff970d" stroke="none" /><path d="M 89.97174638481275 118.45085714620012 l -6.9766837558042 12.836312310411644 a35.60975803902747,35.60975803902747 0 0,0 -0.5345801514361121,-0.29652259859122576 l 7.196008095396415 -12.71465679638727" fill="#ffb610" stroke="none" /><line stroke="#e1ed5e" stroke-width="0.3" x1="58.13341422392154" x2="55.67067388415222" y1="173.97424548756322" y2="178.32567169271397" /><path d="M 57.64086615596768 174.84453072859336 a86.0,86.0 0 0,1 -31.369924170532247,-30.572349798747897" fill="none" id="id32" stroke="none" /><text fill="#e1ed5e" style="font-size:6.75px; font-family:Arial;" text-anchor="middle"><textPath startOffset="22.145653131862474" xlink:href="#id32">August</textPath></text><path d="M 89.03521579738668 117.91015095944536 l -6.137517003838165 10.025172773460081 a32.75470986924509,32.75470986924509 0 0,0 -0.4770269156714653,-0.29770007613713134 l 6.3087080482993425 -9.918336900481403" fill="#ff900d" stroke="none" /><path d="M 87.83215693770417 117.11559508785305 l -7.091069171931127 9.974476829242642 a33.238196354782445,33.238196354782445 0 0,0 -0.46219926269122374,-0.33459662239769516 l 7.261249444996305 -9.85127943547188" fill="#ff970d" stroke="none" /><path d="M 87.2517909369889 116.68781488649013 l -7.097194971469738 9.290456040673137 a32.691139803574984,32.691139803574984 0 0,0 -0.4430272993636617,-0.34450070761184637 l 7.255632215468629 -9.167254281440497" fill="#ff8f0d" stroke="none" /><path d="M 86.68645165197938 116.24036423190432 l -7.145245671162275 8.716037918123115 a32.270485911948214,32.270485911948214 0 0,0 -0.4253951785473488,-0.3548797876480038 l 7.293815183871517 -8.59209594656324" fill="#ff8a0c" stroke="none" /><path d="M 82.18462484594161 111.11811171558189 l -10.831744756947225 6.75980984071356 a33.76799606681728,33.76799606681728 0 0,0 -0.3026770779009003,-0.4944002596856313 l 10.94618979930353 -6.572872464903372" fill="#ff9e0e" stroke="none" /><line stroke="#e1ed5e" stroke-width="0.3" x1="26.387840678322732" x2="22.057713659400548" y1="142.50000000000003" y2="145.00000000000006" /><path d="M 25.521815274538298 143.00000000000003 a86.0,86.0 0 0,1 -11.493303480769221,-40.785679425670985" fill="none" id="id33" stroke="none" /><text fill="#e1ed5e" style="font-size:6.75px; font-family:Arial;" text-anchor="middle"><textPath startOffset="21.40746469413373" xlink:href="#id33">September</textPath></text><path d="M 81.4637452351635 109.86951160357371 l -10.668430800832482 5.68033849968873 a33.086424666674475,33.086424666674475 0 0,0 -0.26263047706680187,-0.5036285689020163 l 10.764369346874233 -5.496363687682211" fill="#ff940d" stroke="none" /><path d="M 80.68587082218212 108.24405325689762 l -13.57431011488773 5.794065809671768 a35.759169817505004,35.759169817505004 0 0,0 -0.2361367940247097,-0.5666423430778197 l 13.671772753448925 -5.560190957152667" fill="#ffb811" stroke="none" /><path d="M 80.41425534168474 107.57618678355246 l -8.615462474044168 3.332645966173862 a30.237571259672002,30.237571259672002 0 0,0 -0.18310910762879776,-0.4857186626560596 l 8.671402265487401 -3.184259023323657" fill="#ff6e0a" stroke="none" /><path d="M 80.16572619554312 106.89939002012753 l -12.50738481968618 4.350717694713216 a34.24248539688857,34.24248539688857 0 0,0 -0.18835744118742626,-0.5568453059466866 l 12.580227682445974 -4.1353707142923675" fill="#ffa40f" stroke="none" /><path d="M 79.83685265289637 105.86919833188381 l -9.40589687452395 2.7379194971640723 a30.796279864679786,30.796279864679786 0 0,0 -0.14339555636484722,-0.5088602422052195 l 9.451510922963374 -2.576051331055857" fill="#ff760a" stroke="none" /><path d="M 79.64726062577567 105.17358676015961 l -61.05821812267298 15.520760280478815 a84.0,84.0 0 0,0 -0.34324989393482586,-1.4005767015676016 l 61.3156555431241 -14.470327754303112" fill="#4dd2ff" stroke="none" /><path d="M 79.2786578344484 103.40968896794605 l -7.143983912911128 1.1755398342648171 a28.240055251852457,28.240055251852457 0 0,0 -0.0746055298716979,-0.4790210201723175 l 7.163110934921094 -1.0527306321610497" fill="#ff5207" stroke="none" /><path d="M 79.0935383218832 101.97986365728391 l -8.644904010470569 0.8186813978643739 a29.683582473925107,29.683582473925107 0 0,0 -0.04368628569627895,-0.5077008601486941 l 8.657683918864588 -0.6701594903400178" fill="#ff6609" stroke="none" /><line stroke="#e1ed5e" stroke-width="0.3" x1="15.003131293944662" x2="10.003315487706104" y1="100.72959589197737" y2="100.7725132973878" /><path d="M 14.003168132696942 100.73817937305945 a86.0,86.0 0 0,1 10.791469493833604,-42.45332614584628" fill="none" id="id34" stroke="none" /><text fill="#e1ed5e" style="font-size:6.75px; font-family:Arial;" text-anchor="middle"><textPath startOffset="22.145653131862435" xlink:href="#id34">October</textPath></text><path d="M 79.13060592940154 97.66154086499901 l -1.5027077716303439 -0.16838154015964643 a22.512112095707447,22.512112095707447 0 0,0 0.04632983422214104,-0.38367748880295655 l 1.4995958511485346 0.19415270588603928" fill="#ff0000" stroke="none" /><line stroke="#e1ed5e" stroke-width="0.3" x1="26.387840678322718" x2="22.05771365940052" y1="57.49999999999999" y2="54.99999999999999" /><path d="M 25.521815274538284 56.99999999999999 a86.0,86.0 0 0,1 29.574782752854787,-30.34633250058573" fill="none" id="id35" stroke="none" /><text fill="#e1ed5e" style="font-size:6.75px; font-family:Arial;" text-anchor="middle"><textPath startOffset="21.40746469413373" xlink:href="#id35">November</textPath></text><line stroke="#e1ed5e" stroke-width="0.3" x1="56.869717070023135" x2="54.33264160355391" y1="26.7553504044142" y2="22.446841604673864" /><path d="M 56.362301976729285 25.89364864446614 a86.0,86.0 0 0,1 42.16139366436587,-11.88097634709845" fill="none" id="id36" stroke="none" /><text fill="#e1ed5e" style="font-size:6.75px; font-family:Arial;" text-anchor="middle"><textPath startOffset="22.145653131862474" xlink:href="#id36">December</textPath></text><path d="M 89.65649057296885 81.72400993836675 l -2.4045054257966028 -4.248530692122663 a25.881768059278684,25.881768059278684 0 0,0 0.38854180007063593,-0.21551758685531358 l 2.3312194375698643 4.289181194411122" fill="#ff3104" stroke="none" /><path d="M 99.63950707515114 79.00309439819443 l -0.10452847396813811 -6.088259572722494 a27.089156823954955,27.089156823954955 0 0,0 0.4650213988169888,-0.003991649426895731 l 1.4914132827925397e-15 6.089156823954955" fill="#ff4206" stroke="none" /></svg>