<?xml version="1.0" encoding="utf-8" ?>
<svg baseProfile="full" height="200mm" version="1.1" viewBox="0,0,200,200" width="200mm" xmlns="http://www.w3.org/2000/svg" xmlns:ev="http://www.w3.org/2001/xml-events" xmlns:xlink="http://www.w3.org/1999/xlink"><defs /><rect fill="#1a1a1a" height="200" width="200" x="0" y="0" /><text alignment-baseline="middle" fill="#e1ed5e" style="dominant-baseline: central; font-size:9.0px; font-family:Arial;" text-anchor="middle" x="100.0" y="100.0">2026</text><line stroke="#e1ed5e" stroke-width="0.3" x1="100.0" x2="100.0" y1="15.0" y2="10.0" /><path d="M 100.0 14.0 a86.0,86.0 0 0,1 42.46469731375804,11.215312516191453" fill="none" id="id145" stroke="none" /><text fill="#e1ed5e" style="font-size:6.75px; font-family:Arial;" text-anchor="middle"><textPath startOffset="22.20632615414155" xlink:href="#id145">January</textPath></text><path d="M 102.16513564639614 79.11191278185805 l 1.611465251334839 -15.546567151538484 a36.629861498220485,36.629861498220485 0 0,0 0.6266031379041875,0.0704061635180771 l -1.878835092748752 15.516525034549808" fill="#ff0000" stroke="none" /><path d="M 102.88285421437855 79.19881850522331 l 4.218280400130955 -30.436924545592362 a51.72784185926847,51.72784185926847 0 0,0 0.8809276583026401,0.129825837544408 l -4.741577038862251 30.359804223886986" fill="#f7ff19" stroke="none" /><path d="M 103.95276090670814 79.375362276772 l 5.740862187905412 -29.95455724215149 a51.49972128124866,51.49972128124866 0 0,0 0.8692014821502504,0.1743536402963421 l -6.255630079522788 29.851299645777942" fill="#faff18" stroke="none" /><path d="M 105.36241919743992 79.69619591428918 l 7.68511478452481 -29.098259426582164 a51.09600788988466,51.09600788988466 0 0,0 0.8484421811164146,0.23191129818818573 l -8.184854854864936 28.961661587567686" fill="#fffd18" stroke="none" /><path d="M 106.0581310904928 79.89281104454417 l 18.174393271478365 -60.321566866367476 a84.0,84.0 0 0,0 1.380858509157127,0.4290394604699177 l -19.21003715334621 59.99978727101504" fill="#4dd2ff" stroke="none" /><path d="M 107.08798089147638 80.2323363322302 l 10.507410176228472 -29.3041069894479 a52.130954933321895,52.130954933321895 0 0,0 0.8420829184636232,0.3101462455002378 l -11.010275420464671 29.11889747614134" fill="#f0ff19" stroke="none" /><path d="M 108.76106565485865 80.91482961587045 l 12.986508222957442 -28.28990580530481 a52.1282535054243,52.1282535054243 0 0,0 0.8122619216129972,0.3813678634405805 l -13.471548355870038 28.062172959224227" fill="#f0ff19" stroke="none" /><path d="M 109.41281617654863 81.2277094730956 l 13.796261195317552 -27.514339862368452 a51.77946914797821,51.77946914797821 0 0,0 0.7933095788849326,0.40636397861607515 l -14.267831261791239 27.272783358439877" fill="#f6ff19" stroke="none" /><path d="M 110.05341064243156 81.56283822128135 l 14.948418482781896 -27.41421988074473 a52.22490459242742,52.22490459242742 0 0,0 0.7855518719647177,0.4371587662493994 l -15.41809444381865 27.15284571693515" fill="#efff19" stroke="none" /><line stroke="#e1ed5e" stroke-width="0.3" x1="143.23703022742887" x2="145.7803849466894" y1="26.81831364943548" y2="22.513508569990506" /><path d="M 143.74570117128098 25.957352633546492 a86.0,86.0 0 0,1 28.547481713284135,27.462654790039103" fill="none" id="id146" stroke="none" /><text fill="#e1ed5e" style="font-size:6.75px; font-family:Arial;" text-anchor="middle"><textPath startOffset="19.985693538727396" xlink:href="#id146">February</textPath></text><path d="M 110.68208982089419 81.91981866633111 l 16.97701544194599 -28.734781568161893 a54.37524119891943,54.37524119891943 0 0,0 0.801744634940524,0.48304217176971653 l -17.46912214310415 28.43829278693356" fill="#ceff1d" stroke="none" /><path d="M 110.99172775467656 82.1063720568725 l 15.876049812980796 -25.84490217556308 a51.331632434286696,51.331632434286696 0 0,0 0.7489061454920087,0.46896495960231405 l -16.318575110845067 25.56779287463782" fill="#fdff18" stroke="none" /><path d="M 111.60114157652 82.49532879139004 l 17.45203820084299 -26.33294220321858 a52.591098151880274,52.591098151880274 0 0,0 0.7502879105861011,0.5065977464408002 l -17.90273080583563 26.02863254447911" fill="#e9ff1a" stroke="none" /><path d="M 112.19680574252982 82.90503203632743 l 17.77421674721453 -24.912232947475104 a51.60297585866815,51.60297585866815 0 0,0 0.718644379997613,0.5221257045803078 l -18.20040644356593 24.602588008078122" fill="#f9ff18" stroke="none" /><path d="M 113.06298171725822 83.55741782278167 l 20.56939302007445 -25.891021084508004 a54.067278418592686,54.067278418592686 0 0,0 0.723720391063516,0.5851982248604204 l -21.01201680970246 25.533116762383454" fill="#d2ff1c" stroke="none" /><path d="M 113.6212207817346 84.01681056812373 l 19.667179219137047 -23.07753879679038 a51.321126881351574,51.321126881351574 0 0,0 0.6674341910349222,0.5787923534597518 l -20.061507208818732 22.735581449910953" fill="#fdff18" stroke="none" /><path d="M 114.42810811169701 84.74124197986012 l 35.24939232462923 -37.278757802101815 a72.30521847262125,72.30521847262125 0 0,0 0.8969867136372737,0.8629005078374155 l -35.88586228187892 36.6664742075021" fill="#3aff93" stroke="none" /><line stroke="#e1ed5e" stroke-width="0.3" x1="172.23445277983987" x2="176.4835382374775" y1="55.19839476539836" y2="52.563006222186495" /><path d="M 173.08426987136738 54.67131705675599 a86.0,86.0 0 0,1 12.851231095245387,41.99856678651699" fill="none" id="id147" stroke="none" /><text fill="#e1ed5e" style="font-size:6.75px; font-family:Arial;" text-anchor="middle"><textPath startOffset="22.20632615414155" xlink:href="#id147">March</textPath></text><line stroke="#e1ed5e" stroke-width="0.3" x1="184.98032266829074" x2="189.97916517819016" y1="98.17113171792111" y2="98.06355123074" /><path d="M 185.9800911702706 98.14961562048488 a86.0,86.0 0 0,1 -9.607161424134198,41.387399972396054" fill="none" id="id148" stroke="none" /><text fill="#e1ed5e" style="font-size:6.75px; font-family:Arial;" text-anchor="middle"><textPath startOffset="21.466115282336823" xlink:href="#id148">April</textPath></text><line stroke="#e1ed5e" stroke-width="0.3" x1="174.80103733775053" x2="179.2010983576182" y1="140.37084112569926" y2="142.7455964860345" /><path d="M 175.68104954172406 140.8457921977663 a86.0,86.0 0 0,1 -30.038265399797805,32.042727171017184" fill="none" id="id149" stroke="none" /><text fill="#e1ed5e" style="font-size:6.75px; font-family:Arial;" text-anchor="middle"><textPath startOffset="22.206326154141568" xlink:href="#id149">May</textPath></text><line stroke="#e1ed5e" stroke-width="0.3" x1="143.8653032363475" x2="146.44561519142675" y1="172.8068346515853" y2="177.08958963109032" /><path d="M 144.38136562736335 173.6633856474863 a86.0,86.0 0 0,1 -40.68145358897372,12.25698825130547" fill="none" id="id150" stroke="none" /><text fill="#e1ed5e" style="font-size:6.75px; font-family:Arial;" text-anchor="middle"><textPath startOffset="21.466115282336833" xlink:href="#id150">June</textPath></text><line stroke="#e1ed5e" stroke-width="0.3" x1="102.19456741930631" x2="102.32365962044197" y1="184.97166512339345" y2="189.96999836594603" /><path d="M 102.22038585953345 185.97133177190398 a86.0,86.0 0 0,1 -42.740103519485714,-10.115201625700543" fill="none" id="id151" stroke="none" /><text fill="#e1ed5e" style="font-size:6.75px; font-family:Arial;" text-anchor="middle"><textPath startOffset="22.20632615414155" xlink:href="#id151">July</textPath></text><line stroke="#e1ed5e" stroke-width="0.3" x1="58.666819895761336" x2="56.23545636021788" y1="174.27360380694188" y2="178.64263932499728" /><path d="M 58.180547188652646 175.14741091055294 a86.0,86.0 0 0,1 -31.652253787137756,-30.449443065178592" fill="none" id="id152" stroke="none" /><text fill="#e1ed5e" style="font-size:6.75px; font-family:Arial;" text-anchor="middle"><textPath startOffset="22.20632615414155" xlink:href="#id152">August</textPath></text><line stroke="#e1ed5e" stroke-width="0.3" x1="26.63291911575756" x2="22.317208475507996" y1="142.92168965132927" y2="145.44649492493687" /><path d="M 25.769776987707644 143.4266507060508 a86.0,86.0 0 0,1 -11.730757126820373,-40.83630448921669" fill="none" id="id153" stroke="none" /><text fill="#e1ed5e" style="font-size:6.75px; font-family:Arial;" text-anchor="middle"><textPath startOffset="21.46611528233685" xlink:href="#id153">September</textPath></text><line stroke="#e1ed5e" stroke-width="0.3" x1="15.007084014347285" x2="10.007500721073583" y1="101.09737516637583" y2="101.16192664675087" /><path d="M 14.007167355692545 101.11028546245083 a86.0,86.0 0 0,1 10.666146001902534,-42.60595125391555" fill="none" id="id154" stroke="none" /><text fill="#e1ed5e" style="font-size:6.75px; font-family:Arial;" text-anchor="middle"><textPath startOffset="22.20632615414155" xlink:href="#id154">October</textPath></text><line stroke="#e1ed5e" stroke-width="0.3" x1="26.266209847984243" x2="21.928928074336255" y1="57.711370442889674" y2="55.22380399835377" /><path d="M 25.398753493254645 57.213857153982495 a86.0,86.0 0 0,1 29.58750427330803,-30.492523968695096" fill="none" id="id155" stroke="none" /><text fill="#e1ed5e" style="font-size:6.75px; font-family:Arial;" text-anchor="middle"><textPath startOffset="21.46611528233685" xlink:href="#id155">November</textPath></text><line stroke="#e1ed5e" stroke-width="0.3" x1="56.762969772571076" x2="54.21961505331055" y1="26.818313649435495" y2="22.513508569990535" /><path d="M 56.25429882871897 25.957352633546506 a86.0,86.0 0 0,1 42.265352541879196,-11.944610805530505" fill="none" id="id156" stroke="none" /><text fill="#e1ed5e" style="font-size:6.75px; font-family:Arial;" text-anchor="middle"><textPath startOffset="22.20632615414155" xlink:href="#id156">December</textPath></text></svg>