<?xml version="1.0" encoding="utf-8" ?>
<svg baseProfile="full" height="200mm" version="1.1" viewBox="0,0,200,200" width="200mm" xmlns="http://www.w3.org/2000/svg" xmlns:ev="http://www.w3.org/2001/xml-events" xmlns:xlink="http://www.w3.org/1999/xlink"><defs /><rect fill="#1a1a1a" height="200" width="200" x="0" y="0" /><text alignment-baseline="middle" fill="#e1ed5e" style="dominant-baseline: central; font-size:9.0px; font-family:Arial;" text-anchor="middle" x="100.0" y="100.0">2016</text><line stroke="#e1ed5e" stroke-width="0.3" x1="100.0" x2="100.0" y1="15.0" y2="10.0" /><path d="M 100.0 14.0 a86.0,86.0 0 0,1 42.35913384403234,11.155469271406648" fill="none" id="id25" stroke="none" /><text fill="#e1ed5e" style="font-size:6.75px; font-family:Arial;" text-anchor="middle"><textPath startOffset="22.145653131862478" xlink:href="#id25">January</textPath></text><line stroke="#e1ed5e" stroke-width="0.3" x1="143.13028292997686" x2="145.6673583964461" y1="26.7553504044142" y2="22.446841604673864" /><path d="M 143.63769802327073 25.89364864446614 a86.0,86.0 0 0,1 29.32050498858742,28.57503671076993" fill="none" id="id26" stroke="none" /><text fill="#e1ed5e" style="font-size:6.75px; font-family:Arial;" text-anchor="middle"><textPath startOffset="20.669276256404974" xlink:href="#id26">February</textPath></text><line stroke="#e1ed5e" stroke-width="0.3" x1="172.87174338648825" x2="177.1583165268699" y1="56.24261187166439" y2="53.66864786411523" /><path d="M 173.72905801456457 55.72781907015455 a86.0,86.0 0 0,1 12.242430191666344,42.057860355516425" fill="none" id="id27" stroke="none" /><text fill="#e1ed5e" style="font-size:6.75px; font-family:Arial;" text-anchor="middle"><textPath startOffset="22.145653131862474" xlink:href="#id27">March</textPath></text><line stroke="#e1ed5e" stroke-width="0.3" x1="184.99686870605535" x2="189.99668451229388" y1="99.2704041080226" y2="99.22748670261217" /><path d="M 185.99683186730306 99.26182062694052 a86.0,86.0 0 0,1 -10.086455211305974,41.156179273409016" fill="none" id="id28" stroke="none" /><text fill="#e1ed5e" style="font-size:6.75px; font-family:Arial;" text-anchor="middle"><textPath startOffset="21.40746469413373" xlink:href="#id28">April</textPath></text><path d="M 119.16976305983485 108.57439118712176 l 9.940216879179088 4.446132575602448 a31.889261062393082,31.889261062393082 0 0,0 -0.22780402684055814,0.4977929107278366 l -9.862428387483474 -4.616114468544973" fill="#ff6409" stroke="none" /><line stroke="#e1ed5e" stroke-width="0.3" x1="174.33088141563837" x2="178.70328620479359" y1="141.23008692659167" y2="143.65538615756765" /><path d="M 175.20536237346943 141.71514677278685 a86.0,86.0 0 0,1 -30.301960400862466,31.631185727798858" fill="none" id="id29" stroke="none" /><text fill="#e1ed5e" style="font-size:6.75px; font-family:Arial;" text-anchor="middle"><textPath startOffset="22.145653131862474" xlink:href="#id29">May</textPath></text><path d="M 118.36410011445183 110.18625677009912 l 10.129323684493123 5.618565097915952 a32.58324100002899,32.58324100002899 0 0,0 -0.2755093552891718,0.48679863199941836 l -10.031380964182572 -5.791620500014493" fill="#ff6e0a" stroke="none" /><path d="M 118.00360718960297 110.81064883170644 l 10.580878716503438 6.3535136559218595 a33.341885195922906,33.341885195922906 0 0,0 -0.2988576628248942,0.4881615321991617 l -10.470253089223139 -6.534212304245578" fill="#ff780b" stroke="none" /><path d="M 117.81537515405839 111.11811171558189 l 7.1687484967444455 4.4738292603149565 a29.450213207962626,29.450213207962626 0 0,0 -0.27133786826601497,0.42658819693618055 l -7.090892936852541 -4.59623113192981" fill="#ff4006" stroke="none" /><path d="M 114.39649973595853 115.28858382429668 l 7.467839893249252 7.930587176631256 a31.89324770843632,31.89324770843632 0 0,0 -0.40180970665529936,0.3719090658095336 l -7.330600415279986 -8.05761398857317" fill="#ff6409" stroke="none" /><path d="M 113.59037401385872 116.0094264158162 l 9.291455482004721 10.94531119476907 a35.35726234782985,35.35726234782985 0 0,0 -0.4660856043643123,0.38882518806966127 l -9.102195543478514 -11.103198566750603" fill="#ff950d" stroke="none" /><path d="M 113.03279911837588 116.46651593811092 l 7.405199284600843 9.356227387318393 a32.93214010007675,32.93214010007675 0 0,0 -0.44629331306481823,0.3470403796201758 l -7.243496026900794 -9.481968818559363" fill="#ff730a" stroke="none" /><path d="M 111.8722381534696 117.32195027204791 l 4.870556773410689 7.10628789075884 a29.615198829357478,29.615198829357478 0 0,0 -0.4218102808860049,0.2838127817748265 l -4.747850204427681 -7.188850346590788" fill="#ff4206" stroke="none" /><path d="M 110.96478420261333 117.91015095944535 l 2.596998384587919 4.2420016892188 a25.97382940407966,25.97382940407966 0 0,0 -0.38226951693172856,0.2295418614221688 l -2.5237961110987537 -4.285957551176892" fill="#ff0b01" stroke="none" /><line stroke="#e1ed5e" stroke-width="0.3" x1="143.1302829299769" x2="145.66735839644613" y1="173.24464959558577" y2="177.55315839532614" /><path d="M 143.63769802327073 174.10635135553383 a86.0,86.0 0 0,1 -40.68552437913181,11.842963189579606" fill="none" id="id30" stroke="none" /><text fill="#e1ed5e" style="font-size:6.75px; font-family:Arial;" text-anchor="middle"><textPath startOffset="21.407464694133747" xlink:href="#id30">June</textPath></text><path d="M 109.3889696526874 118.78422872680471 l 6.471692423996765 12.947720062881324 a35.47502185343969,35.47502185343969 0 0,0 -0.5470582016400262,0.26759357985821075 l -6.2484739730946695 -13.056907392836758" fill="#ff960d" stroke="none" /><path d="M 108.07796709384702 119.3841803445677 l 2.9968437570241266 7.191334054194846 a28.79078673710409,28.79078673710409 0 0,0 -0.4578359423653968,0.18619789200031717 l -2.872953353468289 -7.241719202774455" fill="#ff3605" stroke="none" /><path d="M 107.407793817531 119.65005319985036 l 10.952911786053114 29.053899796707082 a52.04988518481441,52.04988518481441 0 0,0 -0.8387736096046824,0.30800928767192337 l -10.452549024794305 -29.23763993338773" fill="#94ff23" stroke="none" /><path d="M 105.69591212413111 120.21278271476187 l 2.768619409584353 9.82485356624731 a31.207497295288874,31.207497295288874 0 0,0 -0.516883237599127,0.14087882488530518 l -2.5995547710505305 -9.870932885276757" fill="#ff5a08" stroke="none" /><path d="M 103.94208987418118 120.62667999033965 l 1.7408312387842784 9.10876464658187 a30.273623174830156,30.273623174830156 0 0,0 -0.5112858395083822,0.0931733117858601 l -1.584210665724839 -9.137306132299093" fill="#ff4c07" stroke="none" /><path d="M 102.51750503828377 120.84855314841334 l 1.385317641202103 11.47241734607451 a32.55575461532206,32.55575461532206 0 0,0 -0.5554075273792369,0.062234571912084646 l -1.1881742122220669 -11.494507678493566" fill="#ff6d0a" stroke="none" /><path d="M 100.72087961077811 120.9876233191556 l 0.38625488777138983 11.24538961641389 a32.25202117236173,32.25202117236173 0 0,0 -0.5534856678489356,0.01425582745496149 l -0.19315590585171047 -11.250363161218896" fill="#ff6909" stroke="none" /><line stroke="#e1ed5e" stroke-width="0.3" x1="101.45913802915013" x2="101.54496967792366" y1="184.9874750549273" y2="189.98673829345242" /><path d="M 101.47630435890484 185.9873277026323 a86.0,86.0 0 0,1 -42.54439059252881,-10.42667462771756" fill="none" id="id31" stroke="none" /><text fill="#e1ed5e" style="font-size:6.75px; font-family:Arial;" text-anchor="middle"><textPath startOffset="22.145653131862474" xlink:href="#id31">July</textPath></text><path d="M 100.0 121.0 l 1.7689213901481399e-15 14.44433930974818 a35.44433930974818,35.44433930974818 0 0,0 -0.6084492165288699,-0.005222804741096338 l 0.24795629168001596 -14.442210903201518" fill="#ff960d" stroke="none" /><path d="M 98.19965949673042 120.92268563240118 l -0.7474609418840699 8.686629157727229 a29.71872834669822,29.71872834669822 0 0,0 -0.507907837108196,-0.048099400243933665 l 0.8964683423772811 -8.672518001978112" fill="#ff4406" stroke="none" /><path d="M 91.59046798132341 119.24265499422711 l -4.8498266655161295 11.097352516057851 a33.1108237354528,33.1108237354528 0 0,0 -0.5188727767498585,-0.2320851932449332 l 5.039612845121622 -11.012463571903064" fill="#ff750a" stroke="none" /><path d="M 89.97174638481275 118.45085714620012 l -6.895947100979829 12.68776595909375 a35.44068874577145,35.44068874577145 0 0,0 -0.5320420525169075,-0.29511475790544206 l 7.11273334165284 -12.567518285755162" fill="#ff960d" stroke="none" /><line stroke="#e1ed5e" stroke-width="0.3" x1="58.13341422392154" x2="55.67067388415222" y1="173.97424548756322" y2="178.32567169271397" /><path d="M 57.64086615596768 174.84453072859336 a86.0,86.0 0 0,1 -31.369924170532247,-30.572349798747897" fill="none" id="id32" stroke="none" /><text fill="#e1ed5e" style="font-size:6.75px; font-family:Arial;" text-anchor="middle"><textPath startOffset="22.145653131862474" xlink:href="#id32">August</textPath></text><path d="M 89.03521579738668 117.91015095944536 l -6.055063672992293 9.890491454131727 a32.596793405430816,32.596793405430816 0 0,0 -0.47472708141960407,-0.2962648094689641 l 6.22395488320161 -9.785090847821216" fill="#ff6e0a" stroke="none" /><path d="M 87.83215693770417 117.11559508785305 l -7.014960507106603 9.867420460817728 a33.10684341464899,33.10684341464899 0 0,0 -0.4603727125549294,-0.33327434095854797 l 7.183314230035487 -9.745545348486115" fill="#ff750a" stroke="none" /><path d="M 87.2517909369889 116.68781488649013 l -7.016982197221458 9.185454944317492 a32.55900608574152,32.55900608574152 0 0,0 -0.44123663545538655,-0.3431082765260378 l 7.173628777312073 -9.063645616170662" fill="#ff6d0a" stroke="none" /><path d="M 86.68645165197938 116.24036423190432 l -7.0372980517578165 8.584359374487073 a32.10021575194007,32.10021575194007 0 0,0 -0.42315064757512905,-0.3530073200814678 l 7.183623033494839 -8.462289870493734" fill="#ff6709" stroke="none" /><path d="M 82.18462484594161 111.11811171558189 l -10.702074623918792 6.678886087342244 a33.61514647650277,33.61514647650277 0 0,0 -0.30130702125723086,-0.4921623751219513 l 10.815149609631426 -6.4941865960957355" fill="#ff7c0b" stroke="none" /><line stroke="#e1ed5e" stroke-width="0.3" x1="26.387840678322732" x2="22.057713659400548" y1="142.50000000000003" y2="145.00000000000006" /><path d="M 25.521815274538298 143.00000000000003 a86.0,86.0 0 0,1 -11.493303480769221,-40.785679425670985" fill="none" id="id33" stroke="none" /><text fill="#e1ed5e" style="font-size:6.75px; font-family:Arial;" text-anchor="middle"><textPath startOffset="21.40746469413373" xlink:href="#id33">September</textPath></text><path d="M 81.4637452351635 109.86951160357371 l -10.370327749997449 5.521615415840189 a32.74869926599584,32.74869926599584 0 0,0 -0.2599497104384528,-0.4984878454198276 l 10.463585529410851 -5.3427813273158575" fill="#ff700a" stroke="none" /><path d="M 80.68587082218212 108.24405325689762 l -13.389500432891783 5.715181545890685 a35.55822866783245,35.55822866783245 0 0,0 -0.23480987287096164,-0.5634582153575093 l 13.485636150299229 -5.484490821091894" fill="#ff980e" stroke="none" /><path d="M 80.41425534168474 107.57618678355246 l -8.412428100406576 3.254107908775727 a30.01987609817712,30.01987609817712 0 0,0 -0.18179081501812108,-0.4822217348836558 l 8.467049599239132 -3.1092178936979264" fill="#ff4806" stroke="none" /><path d="M 80.16572619554312 106.89939002012753 l -12.161835073835661 4.230517555727388 a33.8766265439554,33.8766265439554 0 0,0 -0.18634496351311236,-0.5508957732964257 l 12.23266545892114 -4.021120107956801" fill="#ff800b" stroke="none" /><path d="M 79.83685265289637 105.86919833188381 l -9.28082526806354 2.70151297533657 a30.66601727767122,30.66601727767122 0 0,0 -0.14278901959418222,-0.5067078571812258 l 9.325832779732297 -2.5417971942523487" fill="#ff5207" stroke="none" /><path d="M 79.64726062577567 105.17358676015961 l -61.05821812267298 15.520760280478815 a84.0,84.0 0 0,0 -0.34324989393482586,-1.4005767015676016 l 61.3156555431241 -14.470327754303112" fill="#4dd2ff" stroke="none" /><path d="M 79.2786578344484 103.40968896794605 l -7.037658249695372 1.1580439868443246 a28.132299735356867,28.132299735356867 0 0,0 -0.07432085771602906,-0.477193220722898 l 7.056500599549669 -1.0370625841899765" fill="#ff2c04" stroke="none" /><path d="M 79.0935383218832 101.97986365728391 l -8.406851153554522 0.7961375448118021 a29.44446453650437,29.44446453650437 0 0,0 -0.04333436811562832,-0.5036110444193382 l 8.419279144367891 -0.6517054530168019" fill="#ff4006" stroke="none" /><line stroke="#e1ed5e" stroke-width="0.3" x1="15.003131293944662" x2="10.003315487706104" y1="100.72959589197737" y2="100.7725132973878" /><path d="M 14.003168132696942 100.73817937305945 a86.0,86.0 0 0,1 10.791469493833604,-42.45332614584628" fill="none" id="id34" stroke="none" /><text fill="#e1ed5e" style="font-size:6.75px; font-family:Arial;" text-anchor="middle"><textPath startOffset="22.145653131862435" xlink:href="#id34">October</textPath></text><line stroke="#e1ed5e" stroke-width="0.3" x1="26.387840678322718" x2="22.05771365940052" y1="57.49999999999999" y2="54.99999999999999" /><path d="M 25.521815274538284 56.99999999999999 a86.0,86.0 0 0,1 29.574782752854787,-30.34633250058573" fill="none" id="id35" stroke="none" /><text fill="#e1ed5e" style="font-size:6.75px; font-family:Arial;" text-anchor="middle"><textPath startOffset="21.40746469413373" xlink:href="#id35">November</textPath></text><line stroke="#e1ed5e" stroke-width="0.3" x1="56.869717070023135" x2="54.33264160355391" y1="26.7553504044142" y2="22.446841604673864" /><path d="M 56.362301976729285 25.89364864446614 a86.0,86.0 0 0,1 42.16139366436587,-11.88097634709845" fill="none" id="id36" stroke="none" /><text fill="#e1ed5e" style="font-size:6.75px; font-family:Arial;" text-anchor="middle"><textPath startOffset="22.145653131862474" xlink:href="#id36">December</textPath></text><path d="M 89.65649057296885 81.72400993836675 l -2.082668364754952 -3.679875443093638 a25.22835556620238,25.22835556620238 0 0,0 0.37873265311950666,-0.21007661839417965 l 2.0191915234793427 3.7150849769209633" fill="#ff0000" stroke="none" /><path d="M 99.63950707515114 79.00309439819443 l -0.10337692112993652 -6.021187393013704 a27.022074759550023,27.022074759550023 0 0,0 0.4638698459787872,-0.003981764730754132 l 1.4749829157018005e-15 6.022074759550023" fill="#ff1b02" stroke="none" /></svg>