<?xml version="1.0" encoding="utf-8" ?>
<svg baseProfile="full" height="200mm" version="1.1" viewBox="0,0,200,200" width="200mm" xmlns="http://www.w3.org/2000/svg" xmlns:ev="http://www.w3.org/2001/xml-events" xmlns:xlink="http://www.w3.org/1999/xlink"><defs /><rect fill="#1a1a1a" height="200" width="200" x="0" y="0" /><text alignment-baseline="middle" fill="#e1ed5e" style="dominant-baseline: central; font-size:9.0px; font-family:Arial;" text-anchor="middle" x="100.0" y="100.0">2026</text><line stroke="#e1ed5e" stroke-width="0.3" x1="100.0" x2="100.0" y1="15.0" y2="10.0" /><path d="M 100.0 14.0 a86.0,86.0 0 0,1 42.46469731375804,11.215312516191453" fill="none" id="id145" stroke="none" /><text fill="#e1ed5e" style="font-size:6.75px; font-family:Arial;" text-anchor="middle"><textPath startOffset="22.20632615414155" xlink:href="#id145">January</textPath></text><path d="M 102.16513564639614 79.11191278185805 l 1.5773759129645242 -15.217691187451377 a36.29922350472193,36.29922350472193 0 0,0 0.6209471295065963,0.0697706450726503 l -1.8390897459808457 15.188284588908125" fill="#ff0000" stroke="none" /><path d="M 102.88285421437855 79.19881850522331 l 4.129045843083065 -29.793054242508273 a51.07781741867787,51.07781741867787 0 0,0 0.8698577105200348,0.12819441499920298 l -4.6412725340317555 29.717565343348102" fill="#fdff18" stroke="none" /><path d="M 103.95276090670814 79.375362276772 l 5.619418555472913 -29.320891057469677 a50.85452256033579,50.85452256033579 0 0,0 0.8583119536140424,0.17216930331534444 l -6.123296918554081 29.219817798077123" fill="#fffd17" stroke="none" /><path d="M 105.36241919743992 79.69619591428918 l 7.522541947110307 -28.48270757974072 a50.459349422875135,50.459349422875135 0 0,0 0.8378705548645184,0.2290216733880473 l -8.011710391198536 28.348999365526378" fill="#fff717" stroke="none" /><path d="M 106.0581310904928 79.89281104454417 l 17.789927617382876 -59.04550937630876 a82.66728226652677,82.66728226652677 0 0,0 1.3589502398408042,0.4222324545493457 l -18.8036632299344 58.73053678687689" fill="#4be2ff" stroke="none" /><path d="M 107.08798089147638 80.2323363322302 l 10.285133797264395 -28.684200591853706 a51.47240293809024,51.47240293809024 0 0,0 0.8314451815026559,0.3062282772019584 l -10.777361304539628 28.502909046845424" fill="#f7ff18" stroke="none" /><path d="M 108.76106565485865 80.91482961587045 l 12.711788384788688 -27.691454072844216 a51.46975865687303,51.46975865687303 0 0,0 0.8020012615085712,0.37655034594112136 l -13.186567857596858 27.468538744263093" fill="#f7ff18" stroke="none" /><path d="M 109.41281617654863 81.2277094730956 l 13.504411640545673 -26.93229464555277 a51.12835257082896,51.12835257082896 0 0,0 0.7833338679299383,0.4012540320062115 l -13.966005996064366 26.695848088234058" fill="#fcff18" stroke="none" /><path d="M 110.05341064243156 81.56283822128135 l 14.63219590501392 -26.834292627024045 a51.56436516264428,51.56436516264428 0 0,0 0.7756162293891657,0.43162959191319683 l -15.09193622347512 26.57844763755067" fill="#f6ff19" stroke="none" /><line stroke="#e1ed5e" stroke-width="0.3" x1="143.23703022742887" x2="145.7803849466894" y1="26.81831364943548" y2="22.513508569990506" /><path d="M 143.74570117128098 25.957352633546492 a86.0,86.0 0 0,1 28.547481713284135,27.462654790039103" fill="none" id="id146" stroke="none" /><text fill="#e1ed5e" style="font-size:6.75px; font-family:Arial;" text-anchor="middle"><textPath startOffset="19.985693538727396" xlink:href="#id146">February</textPath></text><path d="M 110.68208982089419 81.91981866633111 l 16.617879417486776 -28.126918822711584 a53.6692130115425,53.6692130115425 0 0,0 0.7913344868866431,0.4767701740471949 l -17.099575970591058 27.836702039205775" fill="#d5ff1c" stroke="none" /><path d="M 110.99172775467656 82.1063720568725 l 15.5402038903893 -25.298172660495553 a50.68998950682057,50.68998950682057 0 0,0 0.7395448548257508,0.4631029202459098 l -15.973367897587314 25.0269253989267" fill="#fffb17" stroke="none" /><path d="M 111.60114157652 82.49532879139004 l 17.082853426310994 -25.775888567524056 a51.92281217208814,51.92281217208814 0 0,0 0.7407538466651655,0.5001603039222402 l -17.5240119673827 25.478016351303147" fill="#f0ff19" stroke="none" /><path d="M 112.19680574252982 82.90503203632743 l 17.398216527252472 -24.3852333501812 a50.95559286463799,50.95559286463799 0 0,0 0.7096286567253736,0.5155753982022983 l -17.815390500331635 24.082138717162227" fill="#ffff18" stroke="none" /><path d="M 113.06298171725822 83.55741782278167 l 20.1342629431755 -25.343315958523032 a53.367764952780696,53.367764952780696 0 0,0 0.7143570168778911,0.577627027448006 l -20.567523358617883 24.992982833810895" fill="#daff1c" stroke="none" /><path d="M 113.6212207817346 84.01681056812373 l 19.251134798299898 -22.589350777752294 a50.67970619097587,50.67970619097587 0 0,0 0.6590924782626423,0.5715585023442332 l -19.637121075209304 22.25462728198839" fill="#fffb17" stroke="none" /><path d="M 114.42810811169701 84.74124197986012 l 34.503717876292896 -36.49015364964602 a71.21989506820567,71.21989506820567 0 0,0 0.8835226692110892,0.8499481077669744 l -35.126723789116404 35.89082245511674" fill="#38ff84" stroke="none" /><path d="M 115.19652480421416 85.50635884689758 l 23.147618726609362 -22.076973761742792 a52.9875760755509,52.9875760755509 0 0,0 0.6238219207358228,0.6654497303154033 l -23.524207969315647 21.675254614549335" fill="#e0ff1b" stroke="none" /><path d="M 115.9244219780498 86.31012108654704 l 22.450594326158033 -19.30028721191906 a50.60625393494229,50.60625393494229 0 0,0 0.5621858063903736,0.6654506722348154 l -22.779490746035524 18.91097759005514" fill="#fff917" stroke="none" /><path d="M 116.38621287248628 86.86637796730983 l 33.60600769676495 -26.935363683580576 a64.06828961175236,64.06828961175236 0 0,0 0.6823148349996447,0.8664705502932004 l -34.064676612358554 26.352900739334334" fill="#43ff2d" stroke="none" /><path d="M 117.45458315368197 88.32363383020206 l 25.068664275034184 -16.76985929058324 a51.16067156348373,51.16067156348373 0 0,0 0.48335473216872876,0.7361824181550417 l -25.353615642560836 16.335858808450528" fill="#fcff18" stroke="none" /><line stroke="#e1ed5e" stroke-width="0.3" x1="172.23445277983987" x2="176.4835382374775" y1="55.19839476539836" y2="52.563006222186495" /><path d="M 173.08426987136738 54.67131705675599 a86.0,86.0 0 0,1 12.851231095245387,41.99856678651699" fill="none" id="id147" stroke="none" /><text fill="#e1ed5e" style="font-size:6.75px; font-family:Arial;" text-anchor="middle"><textPath startOffset="22.20632615414155" xlink:href="#id147">March</textPath></text><path d="M 117.84615892207809 88.93136811851018 l 25.350908816739175 -15.723264528736264 a50.831017838405046,50.831017838405046 0 0,0 0.45477834327940203,0.7475360204373903 l -25.617802958304804 15.284560735091793" fill="#fffd17" stroke="none" /><path d="M 118.03404312379186 89.2402003453031 l 26.357078877895006 -15.725641014745682 a51.691878279118576,51.691878279118576 0 0,0 0.4493262994433582,0.7680442970086425 l -26.62386485180869 15.269617305383143" fill="#f4ff19" stroke="none" /><path d="M 118.3937258080291 89.86733742301442 l 17.150492658276196 -9.447795240022769 a40.58060860440713,40.58060860440713 0 0,0 0.33177913457915154,0.6147363478573505 l -17.310579892073815 9.15117790883296" fill="#ff4f07" stroke="none" /><path d="M 118.89224826269711 90.83032412892265 l 56.676744788091334 -27.509027613232025 a84.0,84.0 0 0,0 0.6201672246329752,1.3062303374378386 l -57.14187020656606 26.529354860153646" fill="#4dd2ff" stroke="none" /><line stroke="#e1ed5e" stroke-width="0.3" x1="184.98032266829074" x2="189.97916517819016" y1="98.17113171792111" y2="98.06355123074" /><path d="M 185.9800911702706 98.14961562048488 a86.0,86.0 0 0,1 -9.607161424134198,41.387399972396054" fill="none" id="id148" stroke="none" /><text fill="#e1ed5e" style="font-size:6.75px; font-family:Arial;" text-anchor="middle"><textPath startOffset="21.466115282336823" xlink:href="#id148">April</textPath></text><line stroke="#e1ed5e" stroke-width="0.3" x1="174.80103733775053" x2="179.2010983576182" y1="140.37084112569926" y2="142.7455964860345" /><path d="M 175.68104954172406 140.8457921977663 a86.0,86.0 0 0,1 -30.038265399797805,32.042727171017184" fill="none" id="id149" stroke="none" /><text fill="#e1ed5e" style="font-size:6.75px; font-family:Arial;" text-anchor="middle"><textPath startOffset="22.206326154141568" xlink:href="#id149">May</textPath></text><line stroke="#e1ed5e" stroke-width="0.3" x1="143.8653032363475" x2="146.44561519142675" y1="172.8068346515853" y2="177.08958963109032" /><path d="M 144.38136562736335 173.6633856474863 a86.0,86.0 0 0,1 -40.68145358897372,12.25698825130547" fill="none" id="id150" stroke="none" /><text fill="#e1ed5e" style="font-size:6.75px; font-family:Arial;" text-anchor="middle"><textPath startOffset="21.466115282336833" xlink:href="#id150">June</textPath></text><line stroke="#e1ed5e" stroke-width="0.3" x1="102.19456741930631" x2="102.32365962044197" y1="184.97166512339345" y2="189.96999836594603" /><path d="M 102.22038585953345 185.97133177190398 a86.0,86.0 0 0,1 -42.740103519485714,-10.115201625700543" fill="none" id="id151" stroke="none" /><text fill="#e1ed5e" style="font-size:6.75px; font-family:Arial;" text-anchor="middle"><textPath startOffset="22.20632615414155" xlink:href="#id151">July</textPath></text><line stroke="#e1ed5e" stroke-width="0.3" x1="58.666819895761336" x2="56.23545636021788" y1="174.27360380694188" y2="178.64263932499728" /><path d="M 58.180547188652646 175.14741091055294 a86.0,86.0 0 0,1 -31.652253787137756,-30.449443065178592" fill="none" id="id152" stroke="none" /><text fill="#e1ed5e" style="font-size:6.75px; font-family:Arial;" text-anchor="middle"><textPath startOffset="22.20632615414155" xlink:href="#id152">August</textPath></text><line stroke="#e1ed5e" stroke-width="0.3" x1="26.63291911575756" x2="22.317208475507996" y1="142.92168965132927" y2="145.44649492493687" /><path d="M 25.769776987707644 143.4266507060508 a86.0,86.0 0 0,1 -11.730757126820373,-40.83630448921669" fill="none" id="id153" stroke="none" /><text fill="#e1ed5e" style="font-size:6.75px; font-family:Arial;" text-anchor="middle"><textPath startOffset="21.46611528233685" xlink:href="#id153">September</textPath></text><line stroke="#e1ed5e" stroke-width="0.3" x1="15.007084014347285" x2="10.007500721073583" y1="101.09737516637583" y2="101.16192664675087" /><path d="M 14.007167355692545 101.11028546245083 a86.0,86.0 0 0,1 10.666146001902534,-42.60595125391555" fill="none" id="id154" stroke="none" /><text fill="#e1ed5e" style="font-size:6.75px; font-family:Arial;" text-anchor="middle"><textPath startOffset="22.20632615414155" xlink:href="#id154">October</textPath></text><line stroke="#e1ed5e" stroke-width="0.3" x1="26.266209847984243" x2="21.928928074336255" y1="57.711370442889674" y2="55.22380399835377" /><path d="M 25.398753493254645 57.213857153982495 a86.0,86.0 0 0,1 29.58750427330803,-30.492523968695096" fill="none" id="id155" stroke="none" /><text fill="#e1ed5e" style="font-size:6.75px; font-family:Arial;" text-anchor="middle"><textPath startOffset="21.46611528233685" xlink:href="#id155">November</textPath></text><line stroke="#e1ed5e" stroke-width="0.3" x1="56.762969772571076" x2="54.21961505331055" y1="26.818313649435495" y2="22.513508569990535" /><path d="M 56.25429882871897 25.957352633546506 a86.0,86.0 0 0,1 42.265352541879196,-11.944610805530505" fill="none" id="id156" stroke="none" /><text fill="#e1ed5e" style="font-size:6.75px; font-family:Arial;" text-anchor="middle"><textPath startOffset="22.20632615414155" xlink:href="#id156">December</textPath></text></svg>