<?xml version="1.0" encoding="utf-8" ?>
<svg baseProfile="full" height="200mm" version="1.1" viewBox="0,0,200,200" width="200mm" xmlns="http://www.w3.org/2000/svg" xmlns:ev="http://www.w3.org/2001/xml-events" xmlns:xlink="http://www.w3.org/1999/xlink"><defs /><rect fill="#1a1a1a" height="200" width="200" x="0" y="0" /><text alignment-baseline="middle" fill="#e1ed5e" style="dominant-baseline: central; font-size:9.0px; font-family:Arial;" text-anchor="middle" x="100.0" y="100.0">2017</text><line stroke="#e1ed5e" stroke-width="0.3" x1="100.0" x2="100.0" y1="15.0" y2="10.0" /><path d="M 100.0 14.0 a86.0,86.0 0 0,1 42.46469731375804,11.215312516191453" fill="none" id="id13" stroke="none" /><text fill="#e1ed5e" style="font-size:6.75px; font-family:Arial;" text-anchor="middle"><textPath startOffset="22.20632615414155" xlink:href="#id13">January</textPath></text><line stroke="#e1ed5e" stroke-width="0.3" x1="143.23703022742887" x2="145.7803849466894" y1="26.818313649435467" y2="22.513508569990506" /><path d="M 143.74570117128098 25.957352633546478 a86.0,86.0 0 0,1 28.547481713284135,27.462654790039114" fill="none" id="id14" stroke="none" /><text fill="#e1ed5e" style="font-size:6.75px; font-family:Arial;" text-anchor="middle"><textPath startOffset="19.985693538727396" xlink:href="#id14">February</textPath></text><line stroke="#e1ed5e" stroke-width="0.3" x1="172.23445277983987" x2="176.4835382374775" y1="55.19839476539836" y2="52.563006222186495" /><path d="M 173.08426987136738 54.67131705675599 a86.0,86.0 0 0,1 12.851231095245387,41.99856678651699" fill="none" id="id15" stroke="none" /><text fill="#e1ed5e" style="font-size:6.75px; font-family:Arial;" text-anchor="middle"><textPath startOffset="22.20632615414155" xlink:href="#id15">March</textPath></text><line stroke="#e1ed5e" stroke-width="0.3" x1="184.98032266829074" x2="189.97916517819016" y1="98.17113171792111" y2="98.06355123074" /><path d="M 185.9800911702706 98.14961562048488 a86.0,86.0 0 0,1 -9.607161424134198,41.387399972396054" fill="none" id="id16" stroke="none" /><text fill="#e1ed5e" style="font-size:6.75px; font-family:Arial;" text-anchor="middle"><textPath startOffset="21.466115282336823" xlink:href="#id16">April</textPath></text><path d="M 118.81262510543309 109.33194174019688 l 28.75424098832619 14.26344809311841 a53.09754392971246,53.09754392971246 0 0,0 -0.4132033933369286,0.8152894956698549 l -28.50445892520299 -14.756291800490958" fill="#ebff1a" stroke="none" /><line stroke="#e1ed5e" stroke-width="0.3" x1="174.80103733775053" x2="179.2010983576182" y1="140.37084112569926" y2="142.7455964860345" /><path d="M 175.68104954172406 140.8457921977663 a86.0,86.0 0 0,1 -30.038265399797805,32.042727171017184" fill="none" id="id17" stroke="none" /><text fill="#e1ed5e" style="font-size:6.75px; font-family:Arial;" text-anchor="middle"><textPath startOffset="22.206326154141568" xlink:href="#id17">May</textPath></text><path d="M 118.48025628344425 109.97397251340804 l 34.93277677859924 18.853556469284605 a60.69578674121406,60.69578674121406 0 0,0 -0.504132240693715,0.9151464519670435 l -34.60306812845402 -19.452073439649453" fill="#79ff26" stroke="none" /><path d="M 117.75023020441432 111.22182372390056 l 35.43488947057354 22.4021930270958 a62.922424121405754,62.922424121405754 0 0,0 -0.586662125118944,0.9105126462417338 l -35.044022482077544 -23.00882727325899" fill="#5aff2a" stroke="none" /><path d="M 117.35343817320211 111.8261652097733 l 31.394199251040543 21.39477971256909 a58.99121405750799,58.99121405750799 0 0,0 -0.5790664452961333,0.8341884032653837 l -31.02127189858227 -21.93200937802149" fill="#91ff24" stroke="none" /><path d="M 116.498646956653 112.99209946851258 l 29.768724820350744 23.44181525508778 a58.89057507987221,58.89057507987221 0 0,0 -0.6340049606832331,0.7910186711715361 l -29.360801947612657 -23.950761759837565" fill="#93ff23" stroke="none" /><path d="M 115.56566222782051 114.09645910891815 l 32.738242860549825 29.648163696931906 a65.16793130990416,65.16793130990416 0 0,0 -0.7601485170404251,0.8249910840919369 l -32.22304793551368 -30.20730603582518" fill="#3cff2e" stroke="none" /><path d="M 114.81725581225074 114.88116024355365 l 26.68614991984735 26.801242974587094 a58.821385782747605,58.821385782747605 0 0,0 -0.7236432294426012,0.7082372067199788 l -26.220856738028953 -27.25663028422964" fill="#94ff23" stroke="none" /><path d="M 114.29624159901734 115.38237550388516 l 14.528898086701027 15.632707693095748 a42.34175319488818,42.34175319488818 0 0,0 -0.5381444287656432,0.4915821763961618 l -14.25765410846852 -15.880482636078492" fill="#ff5b08" stroke="none" /><path d="M 113.20401910651253 116.32954008644616 l 20.035411579550463 24.777990238998477 a52.864816293929714,52.864816293929714 0 0,0 -0.7125233405176428,0.566071634612096 l -19.60593074631547 -25.119195787615702" fill="#efff19" stroke="none" /><path d="M 111.45004920935366 117.60387380957326 l 20.63546708047555 31.725991028015873 a58.84654552715655,58.84654552715655 0 0,0 -0.8538863480380194,0.5449906675521323 l -20.0862989303906 -32.07649612439181" fill="#93ff23" stroke="none" /><line stroke="#e1ed5e" stroke-width="0.3" x1="143.8653032363475" x2="146.44561519142675" y1="172.8068346515853" y2="177.08958963109032" /><path d="M 144.38136562736335 173.6633856474863 a86.0,86.0 0 0,1 -40.68145358897372,12.25698825130547" fill="none" id="id18" stroke="none" /><text fill="#e1ed5e" style="font-size:6.75px; font-family:Arial;" text-anchor="middle"><textPath startOffset="21.466115282336833" xlink:href="#id18">June</textPath></text><path d="M 110.21172684928248 118.3499491758327 l 19.306036303715377 34.691956628750795 a60.70207667731629,60.70207667731629 0 0,0 -0.9174025909323931,0.500241039362133 l -18.706010900914332 -35.019138319872695" fill="#79ff26" stroke="none" /><path d="M 108.92500713936063 119.00905698771935 l 16.27459368942517 34.66268139214319 a59.293130990415335,59.293130990415335 0 0,0 -0.9276043410240993,0.42581765684428025 l -15.675521352633652 -34.93768611932155" fill="#8dff24" stroke="none" /><path d="M 104.83641907484287 120.43548508189849 l 11.612041325062021 49.06475092347195 a71.42012779552715,71.42012779552715 0 0,0 -1.19876933217667,0.2728359971455429 l -10.76575184349249 -49.257363654195174" fill="#38ff82" stroke="none" /><path d="M 102.70371172650421 120.8252237178851 l 6.092259380538486 46.9253668219797 a68.31918929712461,68.31918929712461 0 0,0 -1.1675182627666507,0.14137020232472447 l -5.283613694720455 -47.02328255302977" fill="#33ff52" stroke="none" /><line stroke="#e1ed5e" stroke-width="0.3" x1="102.19456741930631" x2="102.32365962044197" y1="184.97166512339345" y2="189.96999836594603" /><path d="M 102.22038585953345 185.97133177190398 a86.0,86.0 0 0,1 -42.740103519485714,-10.115201625700543" fill="none" id="id19" stroke="none" /><text fill="#e1ed5e" style="font-size:6.75px; font-family:Arial;" text-anchor="middle"><textPath startOffset="22.20632615414155" xlink:href="#id19">July</textPath></text><path d="M 93.76903079525671 120.05430185196036 l -11.66627051682817 37.547755853615485 a60.318390575079874,60.318390575079874 0 0,0 -0.9888730654032285,-0.31660592795995424 l 12.310864927322339 -37.34137707899582" fill="#7eff26" stroke="none" /><path d="M 93.42475214034765 119.94407469862007 l -13.8115654671751 41.8933094632855 a65.11132188498402,65.11132188498402 0 0,0 -1.0614083909379446,-0.3600873544208056 l 14.530643591050271 -41.64935912196657" fill="#3cff2e" stroke="none" /><path d="M 92.06813273071674 119.44442032107085 l -14.43748723904783 35.39249469583093 a59.22394169329073,59.22394169329073 0 0,0 -0.9406130874176533,-0.3931763468265592 l 15.044571785962944 -35.1387333059844" fill="#8eff24" stroke="none" /><line stroke="#e1ed5e" stroke-width="0.3" x1="58.666819895761336" x2="56.23545636021788" y1="174.27360380694188" y2="178.64263932499728" /><path d="M 58.180547188652646 175.14741091055294 a86.0,86.0 0 0,1 -31.652253787137756,-30.449443065178592" fill="none" id="id20" stroke="none" /><text fill="#e1ed5e" style="font-size:6.75px; font-family:Arial;" text-anchor="middle"><textPath startOffset="22.20632615414155" xlink:href="#id20">August</textPath></text><path d="M 85.18274418774928 114.88116024355367 l -32.55328615700652 32.693683222783385 a67.13668130990416,67.13668130990416 0 0,0 -0.8119042676813868,-0.8224547366458804 l 33.11123104974344 -32.12848799215684" fill="#31ff40" stroke="none" /><path d="M 83.72743513129214 113.27417163493433 l -40.229757515869 32.81699660785182 a72.91713258785943,72.91713258785943 0 0,0 -0.7850122658302763,-0.9794235027770934 l 40.788687693754135 -32.119645271496466" fill="#3bff98" stroke="none" /><line stroke="#e1ed5e" stroke-width="0.3" x1="26.63291911575756" x2="22.317208475507996" y1="142.92168965132927" y2="145.44649492493687" /><path d="M 25.769776987707644 143.4266507060508 a86.0,86.0 0 0,1 -11.730757126820373,-40.83630448921669" fill="none" id="id21" stroke="none" /><text fill="#e1ed5e" style="font-size:6.75px; font-family:Arial;" text-anchor="middle"><textPath startOffset="21.46611528233685" xlink:href="#id21">September</textPath></text><path d="M 80.32549172779594 107.34259656027581 l -35.38111451666728 13.204357951646157 a58.76477635782748,58.76477635782748 0 0,0 -0.3455249613164507,-0.950736296476892 l 35.60316373898896 -12.59337385816315" fill="#94ff23" stroke="none" /><path d="M 80.0844068197444 106.66101706037122 l -35.85641891169622 11.992623866780578 a58.80880591054313,58.80880591054313 0 0,0 -0.31282853946138406,-0.9627872458588818 l 36.05753970217385 -11.373637720943892" fill="#94ff23" stroke="none" /><path d="M 79.97269907076064 106.31721596034903 l -38.82289085883699 12.245913047737293 a61.70846645367412,61.70846645367412 0 0,0 -0.3108144600239188,-1.015759638962473 l 39.02793209136704 -11.575826436222773" fill="#6aff28" stroke="none" /><path d="M 79.86692584326677 105.97154293290107 l -42.591823912442116 12.632889697008874 a65.42581869009584,65.42581869009584 0 0,0 -0.31095135442982447,-1.0824624577554993 l 42.802967903758045 -11.897869763748778" fill="#38ff2e" stroke="none" /><path d="M 79.58551787078972 104.9243191809786 l -42.82638762968915 10.330450741885224 a65.0547124600639,65.0547124600639 0 0,0 -0.2532159704779088,-1.090847773541178 l 42.997864166097614 -9.591734310995472" fill="#3dff2e" stroke="none" /><path d="M 79.50377843672027 104.57218783832718 l -46.58306586127195 10.391501991980817 a68.72803514376997,68.72803514376997 0 0,0 -0.24763680217779874,-1.156876697238232 l 46.75503670217419 -9.588111475326421" fill="#34ff59" stroke="none" /><path d="M 79.35854240842038 103.8639653848113 l -48.29804314259785 9.041123478278505 a70.13698083067092,70.13698083067092 0 0,0 -0.21192575987115206,-1.188592207515229 l 48.44651534480819 -8.208412520030063" fill="#36ff6f" stroke="none" /><path d="M 79.29508885075956 103.50808413554451 l -44.570546055189 7.551697488665651 a66.20577076677316,66.20577076677316 0 0,0 -0.18070469673857045,-1.1252483190871976 l 44.69393250628886 -6.7833699398852385" fill="#2fff31" stroke="none" /><path d="M 79.1416061653843 102.43462659150553 l -50.01766205269567 5.838145115293518 a71.35722843450479,71.35722843450479 0 0,0 -0.13190111329005594,-1.2212404933080396 l 50.11074546748678 -4.976308300100696" fill="#38ff81" stroke="none" /><path d="M 79.07016306316243 101.71520430193888 l -50.18897998691741 4.1129968973610245 a71.35722843450479,71.35722843450479 0 0,0 -0.08978588282927424,-1.225057035989341 l 50.25234242841102 -3.248466724874923" fill="#38ff81" stroke="none" /><path d="M 79.0235259727143 100.99374915477108 l -31.458428151343707 1.4903260836478007 a52.493710063897765,52.493710063897765 0 0,0 -0.03499047522009625,-0.9029486887490574 l 31.479420759415007 -0.9486001478847464" fill="#f4ff19" stroke="none" /><line stroke="#e1ed5e" stroke-width="0.3" x1="15.007084014347285" x2="10.007500721073583" y1="101.09737516637583" y2="101.16192664675087" /><path d="M 14.007167355692545 101.11028546245083 a86.0,86.0 0 0,1 10.666146001902526,-42.60595125391555" fill="none" id="id22" stroke="none" /><text fill="#e1ed5e" style="font-size:6.75px; font-family:Arial;" text-anchor="middle"><textPath startOffset="22.20632615414155" xlink:href="#id22">October</textPath></text><path d="M 79.00175016825051 100.2711162175752 l -62.994749495248485 0.8133486527256131 a84.0,84.0 0 0,0 -0.006222810841987947,-1.4459620871852985 l 62.99941660337998 0.27112291266336075" fill="#4dd2ff" stroke="none" /><line stroke="#e1ed5e" stroke-width="0.3" x1="26.266209847984243" x2="21.928928074336255" y1="57.71137044288968" y2="55.22380399835378" /><path d="M 25.398753493254645 57.2138571539825 a86.0,86.0 0 0,1 29.58750427330803,-30.4925239686951" fill="none" id="id23" stroke="none" /><text fill="#e1ed5e" style="font-size:6.75px; font-family:Arial;" text-anchor="middle"><textPath startOffset="21.46611528233685" xlink:href="#id23">November</textPath></text><line stroke="#e1ed5e" stroke-width="0.3" x1="56.76296977257108" x2="54.21961505331056" y1="26.818313649435495" y2="22.513508569990535" /><path d="M 56.25429882871898 25.957352633546506 a86.0,86.0 0 0,1 42.26535254187918,-11.944610805530505" fill="none" id="id24" stroke="none" /><text fill="#e1ed5e" style="font-size:6.75px; font-family:Arial;" text-anchor="middle"><textPath startOffset="22.20632615414155" xlink:href="#id24">December</textPath></text><path d="M 91.56875222667455 80.76684994638697 l -6.65172922372381 -15.173757160907558 a37.56769169329073,37.56769169329073 0 0,0 0.5944930539050776,-0.2545309003557106 l 6.389552412028424 15.286007589226054" fill="#ff0000" stroke="none" /></svg>