<?xml version="1.0" encoding="utf-8" ?>
<svg baseProfile="full" height="200mm" version="1.1" viewBox="0,0,200,200" width="200mm" xmlns="http://www.w3.org/2000/svg" xmlns:ev="http://www.w3.org/2001/xml-events" xmlns:xlink="http://www.w3.org/1999/xlink"><defs /><rect fill="#1a1a1a" height="200" width="200" x="0" y="0" /><text alignment-baseline="middle" fill="#e1ed5e" style="dominant-baseline: central; font-size:9.0px; font-family:Arial;" text-anchor="middle" x="100.0" y="100.0">2023</text><line stroke="#e1ed5e" stroke-width="0.3" x1="100.0" x2="100.0" y1="15.0" y2="10.0" /><path d="M 100.0 14.0 a86.0,86.0 0 0,1 42.46469731375804,11.215312516191453" fill="none" id="id109" stroke="none" /><text fill="#e1ed5e" style="font-size:6.75px; font-family:Arial;" text-anchor="middle"><textPath startOffset="22.20632615414155" xlink:href="#id109">January</textPath></text><path d="M 100.72285384407766 79.0124445844662 l 0.5140859056813369 -14.92612444718876 a35.93497490226837,35.93497490226837 0 0,0 0.6180116963720718,0.026612883667917867 l -0.7709384344427402 14.915063836996648" fill="#ffb410" stroke="none" /><path d="M 101.80526077348638 79.07773832637324 l 1.9616604981213739 -22.734872911047688 a43.81934613855927,43.81934613855927 0 0,0 0.7509276963144103,0.07130963304696149 l -2.3527133215260285 22.69773773348555" fill="#e7ff1a" stroke="none" /><path d="M 103.2404852339499 79.25152402106235 l 3.4480345138129462 -22.07739153842472 a43.345025378131766,43.345025378131766 0 0,0 0.736185933883279,0.12147698697523156 l -3.8275496538351 22.014768288509863" fill="#ecff1a" stroke="none" /><path d="M 103.95276090670814 79.375362276772 l 3.1507268550417153 -16.439800302568422 a37.738999782048204,37.738999782048204 0 0,0 0.6369509140890819,0.12776636124317736 l -3.4332441785979224 16.383129985248036" fill="#ffcb12" stroke="none" /><path d="M 105.01212808612495 79.60689891045804 l 10.32688240995623 -42.0175129819697 a64.26795462578576,64.26795462578576 0 0,0 1.0720234879908037,0.27328265668751517 l -11.04861478663206 41.833527329113316" fill="#34ff5c" stroke="none" /><path d="M 106.0581310904928 79.89281104454417 l 4.406637041108935 -14.625811544873764 a36.275235296329676,36.275235296329676 0 0,0 0.5963210396501641,0.1852798497613881 l -4.657743453469817 14.547791560229856" fill="#ffb811" stroke="none" /><path d="M 106.74666289553966 80.11325718540242 l 4.295278684934761 -12.660941245603466 a34.36969903198565,34.36969903198565 0 0,0 0.5586188949783707,0.1948911636884218 l -4.512579583976406 12.585129228742838" fill="#ff9f0e" stroke="none" /><path d="M 107.76421540070413 80.48803036053334 l 7.734614415775211 -19.437580472059082 a41.919937733379854,41.919937733379854 0 0,0 0.6681561592958404,0.27255767377882 l -8.068054444659438 19.30156191209668" fill="#feff18" stroke="none" /><path d="M 108.76106565485865 80.91482961587045 l 8.693101594121138 -18.937116970278762 a41.837092274876824,41.837092274876824 0 0,0 0.6519051508670937,0.30607820942583336 l -9.01778495628783 18.784673778212927" fill="#ffff18" stroke="none" /><path d="M 110.05341064243156 81.56283822128135 l 7.917908188912092 -14.520818796744708 a37.539269893678366,37.539269893678366 0 0,0 0.5646548130112563,0.31422979210196944 l -8.166687090995383 14.382373607082558" fill="#ffc912" stroke="none" /><line stroke="#e1ed5e" stroke-width="0.3" x1="143.23703022742887" x2="145.7803849466894" y1="26.81831364943548" y2="22.513508569990506" /><path d="M 143.74570117128098 25.957352633546492 a86.0,86.0 0 0,1 28.547481713284135,27.462654790039103" fill="none" id="id110" stroke="none" /><text fill="#e1ed5e" style="font-size:6.75px; font-family:Arial;" text-anchor="middle"><textPath startOffset="19.985693538727396" xlink:href="#id110">February</textPath></text><path d="M 110.68208982089419 81.91981866633111 l 10.535745187068878 -17.832482843847572 a41.712299993553664,41.712299993553664 0 0,0 0.6150338277768576,0.37055099957508786 l -10.841141081063373 17.648485234813872" fill="#fffd18" stroke="none" /><path d="M 111.2981086023043 82.29822771554956 l 12.175499114134334 -19.07645964068502 a43.63082170626976,43.63082170626976 0 0,0 0.6295989366250816,0.4095086618147422 l -12.502065076543698 18.864052054710747" fill="#e9ff1a" stroke="none" /><path d="M 112.19680574252982 82.90503203632743 l 12.925503404632108 -18.11630612809085 a43.25464414430971,43.25464414430971 0 0,0 0.6023820604501686,0.437656185024541 l -13.235430781436065 17.891130708249637" fill="#eeff19" stroke="none" /><path d="M 112.77801427241765 83.33499621200491 l 13.68597690527553 -17.84916279684802 a43.49218923093345,43.49218923093345 0 0,0 0.590183715983888,0.4606477516644078 l -13.991193176418847 17.610936655960387" fill="#ebff1a" stroke="none" /><path d="M 113.34407831869373 83.78471172551755 l 13.554146008894755 -16.47055567268053 a42.33059019805374,42.33059019805374 0 0,0 0.5586478109268027,0.46785147580022896 l -13.835651356780675 16.23480303948648" fill="#f9ff18" stroke="none" /><path d="M 114.16331599549186 84.49514656593476 l 16.306003790712833 -17.85049482414904 a45.176970965977375,45.176970965977375 0 0,0 0.5696431307533292,0.5294212080841024 l -16.61085480526101 17.567169029990296" fill="#d6ff1c" stroke="none" /><path d="M 116.15771136456269 86.58626213691792 l 17.243793988394447 -14.315377166138267 a43.41156965772325,43.41156965772325 0 0,0 0.47236233943427514,0.5790603753947104 l -17.48765481990513 14.016432621135456" fill="#ecff1a" stroke="none" /><path d="M 116.60985879189232 87.15038557335679 l 17.825047732035415 -13.789701246886493 a43.53637475566387,43.53637475566387 0 0,0 0.4534501254515819,0.5966872122680338 l -18.05977379771111 13.480829258737424" fill="#eaff1a" stroke="none" /><path d="M 117.45458315368197 88.32363383020206 l 18.5912396196869 -12.436740507557039 a43.36753685699268,43.36753685699268 0 0,0 0.40972691565078806,0.6240422022840775 l -18.80256317069561 12.114880241295285" fill="#ecff1a" stroke="none" /><line stroke="#e1ed5e" stroke-width="0.3" x1="172.23445277983987" x2="176.4835382374775" y1="55.19839476539836" y2="52.563006222186495" /><path d="M 173.08426987136738 54.67131705675599 a86.0,86.0 0 0,1 12.851231095245387,41.99856678651699" fill="none" id="id111" stroke="none" /><text fill="#e1ed5e" style="font-size:6.75px; font-family:Arial;" text-anchor="middle"><textPath startOffset="22.20632615414155" xlink:href="#id111">March</textPath></text><path d="M 117.84615892207809 88.93136811851018 l 17.863605508868837 -11.07945268879174 a42.02052981396196,42.02052981396196 0 0,0 0.37595208093743665,0.6179663711173379 l -18.051673388092496 10.77031854446732" fill="#fdff18" stroke="none" /><path d="M 118.21658344932153 89.55222093294921 l 29.172353702866644 -16.7312551885114 a54.629765398352795,54.629765398352795 0 0,0 0.46082121420501154,0.8197495202578371 l -29.456032558364086 16.226622158318772" fill="#6cff28" stroke="none" /><path d="M 118.73160827565052 90.50648371742162 l 20.11513123580869 -10.194710625119516 a43.55106714467701,43.55106714467701 0 0,0 0.3331448981898176,0.6715997859734318 l -20.287636146951915 9.846951250647134" fill="#eaff1a" stroke="none" /><path d="M 119.04729006885535 91.15688171328212 l 18.737259921802423 -8.699180054406268 a41.65818585927049,41.65818585927049 0 0,0 0.29636364032787016,0.6529979969732689 l -18.88422587909364 8.375360048590936" fill="#fffd17" stroke="none" /><path d="M 119.196687751892 91.48605970444005 l 17.177157906165785 -7.618256792559808 a39.790758108462185,39.790758108462185 0 0,0 0.2723000763137474,0.6285061191487847 l -17.30574869232221 7.32145152882442" fill="#ffe515" stroke="none" /><path d="M 119.7369772167798 92.82701384747503 l 23.26941796908268 -8.456776893254084 a45.7584912311341,45.7584912311341 0 0,0 0.2626688164145029,0.7426001153670212 l -23.411539866306995 8.054979151460447" fill="#d0ff1d" stroke="none" /><path d="M 120.08093135843002 93.85539295169968 l 18.12759550735643 -5.546901641914082 a39.957263428654414,39.957263428654414 0 0,0 0.19558909752475798,0.6594292043047245 l -18.22039050199289 5.2340430508628275" fill="#ffe815" stroke="none" /><path d="M 120.37134235888165 94.90015583598534 l 43.58546224937661 -10.911360742580284 a65.9305053693652,65.9305053693652 0 0,0 0.26613068178809984,1.1032834890930359 l -43.766825731425534 10.159492021827841" fill="#36ff70" stroke="none" /><path d="M 120.73433829027371 96.67025291283417 l 2.0921471134607867 -0.3359798928445327 a23.118953051098142,23.118953051098142 0 0,0 0.0597174739464567,0.3934635400489646 l -2.097620480846543 0.299917240403486" fill="#ff0000" stroke="none" /><path d="M 120.91429891909075 98.10471618934814 l 21.26323437187173 -1.926904842615531 a42.35036529489935,42.35036529489935 0 0,0 0.059543637893564705,0.726583200805683 l -21.293252493584788 1.5606077246020793" fill="#f9ff18" stroke="none" /><path d="M 120.96714384426684 98.82574320788733 l 20.98550660080082 -1.1752851911994533 a42.01839153153513,42.01839153153513 0 0,0 0.03422776509222734,0.7224940237906446 l -21.002627974126547 0.8138800607858089" fill="#fdff18" stroke="none" /><line stroke="#e1ed5e" stroke-width="0.3" x1="184.98032266829074" x2="189.97916517819016" y1="98.17113171792111" y2="98.06355123074" /><path d="M 185.9800911702706 98.14961562048488 a86.0,86.0 0 0,1 -9.607161424134198,41.387399972396054" fill="none" id="id112" stroke="none" /><text fill="#e1ed5e" style="font-size:6.75px; font-family:Arial;" text-anchor="middle"><textPath startOffset="21.466115282336823" xlink:href="#id112">April</textPath></text><path d="M 120.99824983174949 100.27111621757518 l 22.332340850586842 0.28834116316952346 a43.334202213044634,43.334202213044634 0 0,0 -0.016050033733727254,0.7457820002097559 l -22.324068754168106 -0.6727129791693942" fill="#edff1a" stroke="none" /><path d="M 120.9764740272857 100.99374915477107 l 22.341673723567972 1.0584247548032477 a43.36673082352331,43.36673082352331 0 0,0 -0.041742851429603225,0.7453466535370459 l -22.32014452125084 -1.4428431246757167" fill="#ecff1a" stroke="none" /><path d="M 120.92983693683757 101.71520430193887 l 16.371565912879422 1.34165308444536 a37.42644829044785,37.42644829044785 0 0,0 -0.05814538025671546,0.6416294259564648 l -16.34604593634563 -1.6232638989503954" fill="#ffc712" stroke="none" /><path d="M 120.81339534386255 102.79330883721812 l 26.206347186824992 3.517082147279263 a47.441302912434566,47.441302912434566 0 0,0 -0.11558948973921852,0.8084326220173192 l -26.141923646069174 -3.9676602412769912" fill="#bcff1f" stroke="none" /><path d="M 120.76222939487914 103.15116336523771 l 20.392971665837052 3.09511970027486 a41.6265135038053,41.6265135038053 0 0,0 -0.1136170821949646,0.7074936792840187 l -20.3366728292808 -3.4456926092520836" fill="#fffc17" stroke="none" /><path d="M 120.5718875245553 104.21870165774334 l 21.762931535013358 4.462950482036543 a43.215830301899345,43.215830301899345 0 0,0 -0.15571273057688356,0.7274380378179708 l -21.682884765712032 -4.836902339270683" fill="#eeff19" stroke="none" /><path d="M 120.41448212921028 104.9243191809786 l 24.87180661779263 5.9995014136723865 a46.585167219417,46.585167219417 0 0,0 -0.19474526683511584,0.7779105352793603 l -24.764850036662455 -6.426739788349143" fill="#c6ff1e" stroke="none" /><path d="M 120.23288151984713 105.62410040840565 l 21.61475636648526 6.008217860075575 a43.434267864957086,43.434267864957086 0 0,0 -0.20643141639924742,0.7186148417433762 l -21.508132313199912 -6.3793901773235335" fill="#ebff1a" stroke="none" /><path d="M 120.02730092923936 106.31721596034902 l 21.935063860718028 6.918982043651039 a44.00042041124778,44.00042041124778 0 0,0 -0.2340565675466319,0.7203520447060219 l -21.812715042155148 -7.295532988334856" fill="#e5ff1a" stroke="none" /><path d="M 119.9155931802556 106.66101706037122 l 21.218689768921955 7.0968538707466955 a43.37405037923365,43.37405037923365 0 0,0 -0.2429136201775293,0.706020685581045 l -21.093385317801193 -7.4610472594170405" fill="#ecff1a" stroke="none" /><path d="M 119.41010516605496 108.01547362559984 l 21.275222068582973 8.78568044379979 a44.01788988869497,44.01788988869497 0 0,0 -0.2952322190860796,0.6978417557318266 l -21.120838868304585 -9.150596725197781" fill="#e4ff1a" stroke="none" /><path d="M 119.26925614724726 108.34839909993367 l 20.608787568587186 8.928750662380702 a43.459846692222044,43.459846692222044 0 0,0 -0.30330609471224956,0.6838751731055971 l -20.45204038914366 -9.282174171978987" fill="#ebff1a" stroke="none" /><path d="M 118.97047184881838 109.00673069616215 l 20.711167352053497 9.833171690703665 a43.92692126264716,43.92692126264716 0 0,0 -0.33017721277384365,0.680262853574125 l -20.53883688266494 -10.188223500243065" fill="#e5ff1a" stroke="none" /><path d="M 118.64920377521936 109.65438752849418 l 14.630723594805357 7.574086116975415 a37.47497658313826,37.47497658313826 0 0,0 -0.301490633240575,0.57030665837951 l -14.49818045333989 -7.824807790441059" fill="#ffc812" stroke="none" /><line stroke="#e1ed5e" stroke-width="0.3" x1="174.80103733775053" x2="179.2010983576182" y1="140.37084112569926" y2="142.7455964860345" /><path d="M 175.68104954172406 140.8457921977663 a86.0,86.0 0 0,1 -30.038265399797805,32.042727171017184" fill="none" id="id113" stroke="none" /><text fill="#e1ed5e" style="font-size:6.75px; font-family:Arial;" text-anchor="middle"><textPath startOffset="22.206326154141568" xlink:href="#id113">May</textPath></text><path d="M 118.30583269289576 110.29060199501025 l 20.116091855113428 11.30823702198349 a44.076684685385786,44.076684685385786 0 0,0 -0.3774811312803627,0.6581701703665579 l -19.918458727680687 -11.652827038208365" fill="#e4ff1b" stroke="none" /><path d="M 118.12598468904814 110.60418214915192 l 21.113520065044607 12.351969640291275 a45.46123225701679,45.46123225701679 0 0,0 -0.4009661727773407,0.6720423691059901 l -20.89777301656904 -12.713574103283369" fill="#d3ff1c" stroke="none" /><path d="M 117.35343817320211 111.8261652097733 l 17.362678590353767 11.832462446018473 a42.01118215066364,42.01118215066364 0 0,0 -0.4123879513135266,0.5940756012139184 l -17.156429731878102 -12.12957930941941" fill="#fdff18" stroke="none" /><path d="M 116.93607887273984 112.41649034213515 l 18.183453896854783 13.330988913872023 a43.54669068934113,43.54669068934113 0 0,0 -0.44840386829922646,0.6007102586997026 l -17.951288761860464 -13.642012052081041" fill="#eaff1a" stroke="none" /><path d="M 116.71984013943494 112.70617746262583 l 16.529262477774704 12.56134871012144 a41.760635815803916,41.760635815803916 0 0,0 -0.4398651405283235,0.5685849885505047 l -16.310590520028313 -12.844011692785196" fill="#fffe18" stroke="none" /><path d="M 116.27256486870786 113.27417163493432 l 17.22418641049848 14.050446781424652 a43.22808251427115,43.22808251427115 0 0,0 -0.47531129378462766,0.572543072757218 l -16.97977911682031 -14.344851111295641" fill="#eeff19" stroke="none" /><path d="M 115.80600337817218 113.82643327865902 l 15.217359431871502 13.31151207728484 a41.21792229341256,41.21792229341256 0 0,0 -0.47173156471924654,0.529995413754056 l -14.985969017503917 -13.571481660779762" fill="#fff717" stroke="none" /><path d="M 115.56566222782051 114.09645910891815 l 15.25367527291769 13.813919806193011 a41.579091081569956,41.579091081569956 0 0,0 -0.4849975101287429,0.5263690090731611 l -15.013631354793226 -14.074440070067507" fill="#fffc17" stroke="none" /><path d="M 115.07121518719521 114.62390073753431 l 17.18032509098379 16.670412149816453 a44.938801379280356,44.938801379280356 0 0,0 -0.5434585670969273,0.5505206592349853 l -16.890825898831324 -16.963673303032103" fill="#d9ff1c" stroke="none" /><path d="M 114.55890576462653 115.13401014063108 l 14.428037965047036 14.997972814891238 a41.81123417957367,41.81123417957367 0 0,0 -0.5229672828032506,0.4944982078624361 l -14.167734847852978 -15.244105659499596" fill="#ffff18" stroke="none" /><path d="M 114.0293411484842 115.62618273729858 l 42.088023445452606 46.878548211895726 a84.0,84.0 0 0,0 -1.0842305883736492,0.9567074329108447 l -41.27485050417237 -47.59607878657886" fill="#4dd2ff" stroke="none" /><path d="M 113.48314897796784 116.09983520530334 l 13.630823976364688 16.276169616650254 a42.230003760353114,42.230003760353114 0 0,0 -0.5613169295802178,0.4619256187825153 l -13.348636918239778 -16.508390354289947" fill="#faff18" stroke="none" /><line stroke="#e1ed5e" stroke-width="0.3" x1="143.8653032363475" x2="146.44561519142675" y1="172.8068346515853" y2="177.08958963109032" /><path d="M 144.38136562736335 173.6633856474863 a86.0,86.0 0 0,1 -40.68145358897372,12.25698825130547" fill="none" id="id114" stroke="none" /><text fill="#e1ed5e" style="font-size:6.75px; font-family:Arial;" text-anchor="middle"><textPath startOffset="21.466115282336833" xlink:href="#id114">June</textPath></text><line stroke="#e1ed5e" stroke-width="0.3" x1="102.19456741930631" x2="102.32365962044197" y1="184.97166512339345" y2="189.96999836594603" /><path d="M 102.22038585953345 185.97133177190398 a86.0,86.0 0 0,1 -42.740103519485714,-10.115201625700543" fill="none" id="id115" stroke="none" /><text fill="#e1ed5e" style="font-size:6.75px; font-family:Arial;" text-anchor="middle"><textPath startOffset="22.20632615414155" xlink:href="#id115">July</textPath></text><line stroke="#e1ed5e" stroke-width="0.3" x1="58.666819895761336" x2="56.23545636021788" y1="174.27360380694188" y2="178.64263932499728" /><path d="M 58.180547188652646 175.14741091055294 a86.0,86.0 0 0,1 -31.652253787137756,-30.449443065178592" fill="none" id="id116" stroke="none" /><text fill="#e1ed5e" style="font-size:6.75px; font-family:Arial;" text-anchor="middle"><textPath startOffset="22.20632615414155" xlink:href="#id116">August</textPath></text><line stroke="#e1ed5e" stroke-width="0.3" x1="26.63291911575756" x2="22.317208475507996" y1="142.92168965132927" y2="145.44649492493687" /><path d="M 25.769776987707644 143.4266507060508 a86.0,86.0 0 0,1 -11.730757126820373,-40.83630448921669" fill="none" id="id117" stroke="none" /><text fill="#e1ed5e" style="font-size:6.75px; font-family:Arial;" text-anchor="middle"><textPath startOffset="21.46611528233685" xlink:href="#id117">September</textPath></text><line stroke="#e1ed5e" stroke-width="0.3" x1="15.007084014347285" x2="10.007500721073583" y1="101.09737516637583" y2="101.16192664675087" /><path d="M 14.007167355692545 101.11028546245083 a86.0,86.0 0 0,1 10.666146001902534,-42.60595125391555" fill="none" id="id118" stroke="none" /><text fill="#e1ed5e" style="font-size:6.75px; font-family:Arial;" text-anchor="middle"><textPath startOffset="22.20632615414155" xlink:href="#id118">October</textPath></text><line stroke="#e1ed5e" stroke-width="0.3" x1="26.266209847984243" x2="21.928928074336255" y1="57.711370442889674" y2="55.22380399835377" /><path d="M 25.398753493254645 57.213857153982495 a86.0,86.0 0 0,1 29.58750427330803,-30.492523968695096" fill="none" id="id119" stroke="none" /><text fill="#e1ed5e" style="font-size:6.75px; font-family:Arial;" text-anchor="middle"><textPath startOffset="21.46611528233685" xlink:href="#id119">November</textPath></text><line stroke="#e1ed5e" stroke-width="0.3" x1="56.762969772571076" x2="54.21961505331055" y1="26.818313649435495" y2="22.513508569990535" /><path d="M 56.25429882871897 25.957352633546506 a86.0,86.0 0 0,1 42.265352541879196,-11.944610805530505" fill="none" id="id120" stroke="none" /><text fill="#e1ed5e" style="font-size:6.75px; font-family:Arial;" text-anchor="middle"><textPath startOffset="22.20632615414155" xlink:href="#id120">December</textPath></text></svg>