<?xml version="1.0" encoding="utf-8" ?>
<svg baseProfile="full" height="200mm" version="1.1" viewBox="0,0,200,200" width="200mm" xmlns="http://www.w3.org/2000/svg" xmlns:ev="http://www.w3.org/2001/xml-events" xmlns:xlink="http://www.w3.org/1999/xlink"><defs /><rect fill="#1a1a1a" height="200" width="200" x="0" y="0" /><text alignment-baseline="middle" fill="#e1ed5e" style="dominant-baseline: central; font-size:9.0px; font-family:Arial;" text-anchor="middle" x="100.0" y="100.0">2026</text><line stroke="#e1ed5e" stroke-width="0.3" x1="100.0" x2="100.0" y1="15.0" y2="10.0" /><path d="M 100.0 14.0 a86.0,86.0 0 0,1 42.46469731375804,11.215312516191453" fill="none" id="id145" stroke="none" /><text fill="#e1ed5e" style="font-size:6.75px; font-family:Arial;" text-anchor="middle"><textPath startOffset="22.20632615414155" xlink:href="#id145">January</textPath></text><path d="M 102.16513564639614 79.11191278185805 l 1.5042889044240566 -14.512586261832755 a35.590340815591325,35.590340815591325 0 0,0 0.6088207359236784,0.068408103460843 l -1.7538763438574603 14.484542204901311" fill="#ff0000" stroke="none" /><path d="M 102.88285421437855 79.19881850522331 l 3.9377283477941774 -28.412606378450015 a49.684175180014506,49.684175180014506 0 0,0 0.8461239155328506,0.12469667056664037 l -4.426221243755683 28.340615223722406" fill="#fff316" stroke="none" /><path d="M 103.95276090670814 79.375362276772 l 5.35904530609038 -27.962320663742858 a49.47122658922004,49.47122658922004 0 0,0 0.8349649746706036,0.1674861189762651 l -5.8395766902281085 27.865930588689384" fill="#ffef16" stroke="none" /><path d="M 105.36241919743992 79.69619591428918 l 7.173988325227504 -27.162974043158577 a49.094363622616676,49.094363622616676 0 0,0 0.8152051534488143,0.22282636299063666 l -7.6404913679000295 27.035461139341646" fill="#ffe915" stroke="none" /><path d="M 106.0581310904928 79.89281104454417 l 16.965639265431093 -56.30966206648641 a79.8099562806047,79.8099562806047 0 0,0 1.3119792529229914,0.4076383402709328 l -17.9324038910648 56.00928359133296" fill="#46fffa" stroke="none" /><path d="M 107.08798089147638 80.2323363322302 l 9.808576715656784 -27.355130966533235 a50.06047775558946,50.06047775558946 0 0,0 0.8086380397602252,0.2978282144208343 l -10.277997081189586 27.182239484306074" fill="#fff917" stroke="none" /><path d="M 108.76106565485865 80.91482961587045 l 12.122793346505407 -26.408382914165095 a50.057955995961635,50.057955995961635 0 0,0 0.7800025666516467,0.3662216637355017 l -12.57557412445665 26.195796267789593" fill="#fff917" stroke="none" /><path d="M 109.41281617654863 81.2277094730956 l 12.87869075765759 -25.684398799929962 a49.73236880845745,49.73236880845745 0 0,0 0.7619460995947277,0.39029838635948755 l -13.318897344841073 25.458907888257972" fill="#fff316" stroke="none" /><path d="M 110.05341064243156 81.56283822128135 l 13.95421964185058 -25.59093766116638 a50.14817895153507,50.14817895153507 0 0,0 0.7543143670330827,0.41977512857507365 l -14.392658097955698 25.346947135031122" fill="#fffa17" stroke="none" /><line stroke="#e1ed5e" stroke-width="0.3" x1="143.23703022742887" x2="145.7803849466894" y1="26.81831364943548" y2="22.513508569990506" /><path d="M 143.74570117128098 25.957352633546492 a86.0,86.0 0 0,1 28.547481713284135,27.462654790039103" fill="none" id="id146" stroke="none" /><text fill="#e1ed5e" style="font-size:6.75px; font-family:Arial;" text-anchor="middle"><textPath startOffset="19.985693538727396" xlink:href="#id146">February</textPath></text><path d="M 110.68208982089419 81.91981866633111 l 15.847897395491971 -26.823670599306766 a52.15549961528711,52.15549961528711 0 0,0 0.7690152922030621,0.46332310898151113 l -16.307274753912672 26.546900880866637" fill="#e5ff1a" stroke="none" /><path d="M 110.99172775467656 82.1063720568725 l 14.820155482700049 -24.125993127323337 a49.31431710126623,49.31431710126623 0 0,0 0.7194743939842353,0.4505347995082204 l -15.233249029056546 23.86731398649217" fill="#ffed16" stroke="none" /><path d="M 111.60114157652 82.49532879139004 l 16.29132704125427 -24.581574281126585 a50.490017478863024,50.490017478863024 0 0,0 0.7203129626666196,0.486358527800282 l -16.712044698327432 24.297503841027634" fill="#ffff18" stroke="none" /><path d="M 112.19680574252982 82.90503203632743 l 16.592077933740928 -23.255354452273828 a49.56761384610596,49.56761384610596 0 0,0 0.6902990869743086,0.5015316437301036 l -16.989922337069025 22.966303573727046" fill="#fff116" stroke="none" /><path d="M 113.06298171725822 83.55741782278167 l 19.20135086078022 -24.169044730795715 a51.86801901771459,51.86801901771459 0 0,0 0.6942820890034244,0.5613944985578425 l -19.614536348348135 23.834944134973743" fill="#eaff1a" stroke="none" /><path d="M 113.6212207817346 84.01681056812373 l 18.359142064131216 -21.5426832968762 a49.304510258269104,49.304510258269104 0 0,0 0.6412079764865487,0.5560492386408119 l -18.727243839264528 21.223469064815717" fill="#ffed16" stroke="none" /><path d="M 114.42810811169701 84.74124197986012 l 32.90500351633853 -34.799398675188236 a68.8929786562179,68.8929786562179 0 0,0 0.8546559684474662,0.8221783645034261 l -33.49914272839842 34.227837223922506" fill="#35ff65" stroke="none" /><path d="M 115.19652480421416 85.50635884689758 l 22.075084149620903 -21.05404704109845 a51.50544602233559,51.50544602233559 0 0,0 0.6063728263432284,0.6468362530203066 l -22.43422429793459 20.670941371200087" fill="#efff19" stroke="none" /><path d="M 115.9244219780498 86.31012108654704 l 21.410356063504032 -18.40601702261465 a49.2344613797183,49.2344613797183 0 0,0 0.5469465376460334,0.6474121847543142 l -21.724013214637182 18.034745888231228" fill="#ffec16" stroke="none" /><path d="M 116.38621287248628 86.86637796730983 l 32.04888833710111 -25.68732563545125 a62.07273964499674,62.07273964499674 0 0,0 0.6610626156169902,0.8394823898738976 l -32.486305033312064 25.131850851624314" fill="#59ff2a" stroke="none" /><path d="M 117.45458315368197 88.32363383020206 l 23.907118910413956 -15.992835349036048 a49.76319031501981,49.76319031501981 0 0,0 0.47015163780113595,0.7160731996209595 l -24.17886718357302 15.578944085437415" fill="#fff417" stroke="none" /><line stroke="#e1ed5e" stroke-width="0.3" x1="172.23445277983987" x2="176.4835382374775" y1="55.19839476539836" y2="52.563006222186495" /><path d="M 173.08426987136738 54.67131705675599 a86.0,86.0 0 0,1 12.851231095245387,41.99856678651699" fill="none" id="id147" stroke="none" /><text fill="#e1ed5e" style="font-size:6.75px; font-family:Arial;" text-anchor="middle"><textPath startOffset="22.20632615414155" xlink:href="#id147">March</textPath></text><path d="M 117.84615892207809 88.93136811851018 l 24.176285777317045 -14.99473408811603 a49.448810948083775,49.448810948083775 0 0,0 0.44241192241315,0.727208876064703 l -24.43081349801642 14.576357438844246" fill="#ffef16" stroke="none" /><path d="M 118.03404312379186 89.2402003453031 l 25.13583539800055 -14.997000460707442 a50.26978380469929,50.26978380469929 0 0,0 0.436964890476956,0.7469146420754718 l -25.390259962947834 14.562106406278074" fill="#fffc17" stroke="none" /><path d="M 118.3937258080291 89.86733742301442 l 16.35583223961108 -9.010035866546357 a39.673349848560996,39.673349848560996 0 0,0 0.32436156408906036,0.6009927162729319 l -16.508501902918606 8.727162166940966" fill="#ff4b06" stroke="none" /><path d="M 118.89224826269711 90.83032412892265 l 54.05065312767791 -26.23440910309539 a81.08092313303061,81.08092313303061 0 0,0 0.5986158460725142,1.2608376379027384 l -54.494227167592186 25.300129049552112" fill="#48f5ff" stroke="none" /><path d="M 119.34039704204932 91.81776055985345 l 26.748124446790616 -11.316187476536296 a50.043385829223055,50.043385829223055 0 0,0 0.3288048552009224,0.7962270374362018 l -26.938950988877735 10.854085868646791" fill="#fff817" stroke="none" /><path d="M 119.97218684219823 93.5106431181261 l 27.643752853265724 -8.981999779820638 a50.066361861387726,50.066361861387726 0 0,0 0.25925915714774,0.821922377111814 l -27.79426749418167 8.504827236282406" fill="#fff917" stroke="none" /><path d="M 120.08093135843002 93.85539295169968 l 27.333423234811804 -8.363812517704421 a49.58442557695815,49.58442557695815 0 0,0 0.24271364497214173,0.8183097514298777 l -27.47334277689565 7.892073379528013" fill="#fff116" stroke="none" /><path d="M 120.28053869075195 94.5502522615342 l 33.06953696664067 -8.886383002155794 a55.24269379077845,55.24269379077845 0 0,0 0.23886853493182558,0.9204579057001765 l -33.2176018334428 8.315828670906768" fill="#b7ff1f" stroke="none" /><path d="M 120.6074358757038 95.95851677861258 l 27.5177637165547 -5.396720922552012 a49.04196706146067,49.04196706146067 0 0,0 0.15533290176807532,0.8297945724426607 l -27.606582342232635 4.922248272646788" fill="#ffe915" stroke="none" /><path d="M 120.83666639777658 97.38593545837742 l 29.08605611740707 -3.6489919500881154 a50.3140546959434,50.3140546959434 0 0,0 0.10041163196500512,0.8602655423259202 l -29.144558102375665 3.1477826694373423" fill="#fffd17" stroke="none" /><path d="M 120.87857604477298 97.74499172005257 l 28.840353768139426 -3.114926822801654 a50.008081194433444,50.008081194433444 0 0,0 0.08506820949436426,0.8566252603884332 l -28.88969910331602 2.6180260317087862" fill="#fff817" stroke="none" /><path d="M 120.98425023603335 99.18683210126433 l 28.70718004497453 -1.1124418081763738 a49.72872626677282,49.72872626677282 0 0,0 0.025783884091629117,0.8556415871769333 l -28.722075623521803 0.6181300735744415" fill="#fff316" stroke="none" /><line stroke="#e1ed5e" stroke-width="0.3" x1="184.98032266829074" x2="189.97916517819016" y1="98.17113171792111" y2="98.06355123074" /><path d="M 185.9800911702706 98.14961562048488 a86.0,86.0 0 0,1 -9.607161424134198,41.387399972396054" fill="none" id="id148" stroke="none" /><text fill="#e1ed5e" style="font-size:6.75px; font-family:Arial;" text-anchor="middle"><textPath startOffset="21.466115282336823" xlink:href="#id148">April</textPath></text><path d="M 120.92983693683757 101.71520430193887 l 30.79588372175657 2.5237287992721082 a51.89912071979115,51.89912071979115 0 0,0 -0.08062998887371384,0.8897452084328248 l -30.747879136605782 -3.0534553962535034" fill="#e9ff1a" stroke="none" /><path d="M 120.8583938346157 102.4346265915055 l 29.125848014408337 3.399617661756214 a50.3235813434263,50.3235813434263 0 0,0 -0.1078326290356026,0.8595321508838619 l -29.063013876125886 -3.9004675669274707" fill="#fffd17" stroke="none" /><path d="M 120.70491114924044 103.5080841355445 l 28.321995672804537 4.798665543192656 a49.725644116116584,49.725644116116584 0 0,0 -0.15025090600680882,0.8426868737447124 l -28.235198324458537 -5.285471167670587" fill="#fff316" stroke="none" /><path d="M 120.5718875245553 104.21870165774334 l 28.422203173672088 5.828575307072138 a50.01368510471751,50.01368510471751 0 0,0 -0.18020636001816442,0.8418641202185253 l -28.31766277492948 -6.316953246706833" fill="#fff817" stroke="none" /><path d="M 120.49622156327973 104.57218783832717 l 28.123769866255003 6.273700650307915 a49.81502648514741,49.81502648514741 0 0,0 -0.19389771776430817,0.8353062933538933 l -28.011611582560143 -6.756875601010374" fill="#fff517" stroke="none" /><path d="M 119.9155931802556 106.66101706037122 l 27.175865575687133 9.089305178691333 a49.65559523756577,49.65559523756577 0 0,0 -0.27809301404330367,0.8082684712642342 l -27.0153817307006 -9.555746353044867" fill="#fff216" stroke="none" /><path d="M 119.79798401119884 107.00284435728193 l 27.435392065616156 9.704310318052606 a50.10110610514893,50.10110610514893 0 0,0 -0.2945843381328005,0.8105695796025677 l -27.26428346647813 -10.175127694661304" fill="#fff917" stroke="none" /><path d="M 119.12269723197855 108.67885076344098 l 26.417189371793153 11.98946159979705 a50.010602954061284,50.010602954061284 0 0,0 -0.3625182474644305,0.7808320539010823 l -26.206896507488892 -12.442413720976962" fill="#fff817" stroke="none" /><path d="M 118.97047184881838 109.00673069616215 l 25.984154213172946 12.33666095554567 a49.76403090156243,49.76403090156243 0 0,0 -0.3740519150255406,0.7706577354701625 l -25.76794904153269 -12.782107646981107" fill="#fff417" stroke="none" /><path d="M 118.64920377521936 109.65438752849418 l 25.81383964159478 13.36340223969857 a50.06776283895874,50.06776283895874 0 0,0 -0.4028010928777613,0.7619478681695063 l -25.579986040492123 -13.80576512295421" fill="#fff917" stroke="none" /><line stroke="#e1ed5e" stroke-width="0.3" x1="174.80103733775053" x2="179.2010983576182" y1="140.37084112569926" y2="142.7455964860345" /><path d="M 175.68104954172406 140.8457921977663 a86.0,86.0 0 0,1 -30.038265399797805,32.042727171017184" fill="none" id="id149" stroke="none" /><text fill="#e1ed5e" style="font-size:6.75px; font-family:Arial;" text-anchor="middle"><textPath startOffset="22.206326154141568" xlink:href="#id149">May</textPath></text><path d="M 118.30583269289576 110.29060199501025 l 27.839898355763506 15.650165625728945 a52.937245099914165,52.937245099914165 0 0,0 -0.453364660019609,0.7904794989651065 l -27.566381699591517 -16.127064970552368" fill="#d9ff1c" stroke="none" /><path d="M 118.12598468904814 110.60418214915192 l 25.379587088795898 14.847732080589616 a50.403717260488435,50.403717260488435 0 0,0 -0.4445586844067532,0.7451059260334696 l -25.120247528690918 -15.28240010050919" fill="#fffe18" stroke="none" /><path d="M 117.75023020441432 111.22182372390056 l 24.653338726958502 15.586018784744397 a50.166952050986694,50.166952050986694 0 0,0 -0.46773548717999547,0.7259358631462391 l -24.381398376401453 -16.008076247812088" fill="#fffa17" stroke="none" /><path d="M 117.55443506779139 111.5257021239791 l 24.211118568344922 15.89627576333003 a49.963249912160926,49.963249912160926 0 0,0 -0.4782122893301148,0.7148624878530628 l -23.933903173604087 -16.3106751653889" fill="#fff717" stroke="none" /><path d="M 116.498646956653 112.99209946851258 l 22.823655392417592 17.972819339210695 a50.05067091259234,50.05067091259234 0 0,0 -0.5388361991892507,0.6722810083417606 l -22.51090128117349 -18.363028181130705" fill="#fff817" stroke="none" /><path d="M 116.0416608686014 113.55231037782055 l 22.672420455540184 19.15410639501427 a50.680270233007036,50.680270233007036 0 0,0 -0.5687231093992953,0.6615534615023596 l -22.33935483657011 -19.541536955678158" fill="#fcff18" stroke="none" /><path d="M 115.56566222782051 114.09645910891815 l 21.80028998546946 19.742616269385472 a50.411282539371925,50.411282539371925 0 0,0 -0.5880202255029379,0.6381798193784479 l -21.457223351970796 -20.114947343565255" fill="#fffe18" stroke="none" /><path d="M 114.81725581225074 114.88116024355365 l 20.899406427035533 20.989542191660988 a50.62002819745334,50.62002819745334 0 0,0 -0.6227469855024147,0.6094889961801229 l -20.535009489157325 -21.34618129076368" fill="#fdff18" stroke="none" /><path d="M 114.55890576462653 115.13401014063108 l 20.64612294295441 21.461683936615774 a50.78030003157759,50.78030003157759 0 0,0 -0.6351507208180368,0.600574650642565 l -20.273636387745565 -21.81389322400426" fill="#faff18" stroke="none" /><path d="M 112.63410532772338 116.77436683061366 l 17.254898581327012 22.90941787489204 a49.68053263832985,49.68053263832985 0 0,0 -0.6875194982052244,0.5086104885023863 l -16.857994112703224 -23.203038312134193" fill="#fff316" stroke="none" /><path d="M 112.34349029814194 116.9893568818739 l 16.97311577161724 23.361489682118094 a49.87638930275792,49.87638930275792 0 0,0 -0.6989170646367563,0.4986587682193155 l -16.5684713791316 -23.650192712181628" fill="#fff617" stroke="none" /><line stroke="#e1ed5e" stroke-width="0.3" x1="143.8653032363475" x2="146.44561519142675" y1="172.8068346515853" y2="177.08958963109032" /><path d="M 144.38136562736335 173.6633856474863 a86.0,86.0 0 0,1 -40.68145358897372,12.25698825130547" fill="none" id="id150" stroke="none" /><text fill="#e1ed5e" style="font-size:6.75px; font-family:Arial;" text-anchor="middle"><textPath startOffset="21.466115282336833" xlink:href="#id150">June</textPath></text><path d="M 110.8373102113329 117.98757091392108 l 15.218978127975372 25.26018384415161 a50.49057786989144,50.49057786989144 0 0,0 -0.7482995258787414,0.44210854973472635 l -14.781910731068248 -25.518410966180085" fill="#ffff18" stroke="none" /><path d="M 110.21172684928248 118.3499491758327 l 11.195916354065615 20.118487216333378 a44.02394559759477,44.02394559759477 0 0,0 -0.6653426697243909,0.36279787295633675 l -10.847950872472573 -20.308225741049487" fill="#ff960d" stroke="none" /><path d="M 109.89434966115114 118.52300852407294 l 13.920905472739625 26.061040853125625 a50.546056581703674,50.546056581703674 0 0,0 -0.770969607834771,0.4033348605452051 l -13.47024496237836 -26.29680513261555" fill="#feff18" stroke="none" /><path d="M 108.2653958097858 119.30500536409082 l 11.569377897695714 27.021924601575446 a50.39447080851973,50.39447080851973 0 0,0 -0.8003806808649231,0.3345591895143331 l -11.10252575733333 -27.21706883410975" fill="#fffe18" stroke="none" /><path d="M 107.93186726928326 119.44442032107085 l 11.159463415043925 27.356647537463683 a50.54521599516107,50.54521599516107 0 0,0 -0.8084320361755309,0.3216917913300056 l -10.686910302826528 -27.544686173199757" fill="#feff18" stroke="none" /><path d="M 107.2578585660854 119.70592522655815 l 9.801755053305637 26.61289833781621 a49.36054936110976,49.36054936110976 0 0,0 -0.7998299725788616,0.2867905715794013 l -9.342205520097043 -26.777676450435568" fill="#ffee16" stroke="none" /><path d="M 105.88484417918355 120.15858648285463 l 7.958253051288718 27.26106715863845 a49.3989361465556,49.3989361465556 0 0,0 -0.8183023911513078,0.2312604295410157 l -7.487819492032804 -27.394016381517986" fill="#ffee16" stroke="none" /><path d="M 105.18746579009965 120.34920634021253 l 7.264200926013338 28.495749084712248 a50.40707960665887,50.40707960665887 0 0,0 -0.8426304629335746,0.20709806669176425 l -6.772617178336552 -28.61656840971804" fill="#fffe18" stroke="none" /><path d="M 104.13013068566511 120.58985236759428 l 12.390392056995317 61.76955710278282 a84.0,84.0 0 0,0 -1.4201295417131825,0.2721712066061275 l -11.32529490071043 -61.973685507737414" fill="#4dd2ff" stroke="none" /><path d="M 103.41894727170886 120.7198165907248 l 4.764641803678682 28.875117528027552 a50.26558087198623,50.26558087198623 0 0,0 -0.8549077515409144,0.13351900872477787 l -4.266898188529251 -28.952854844099438" fill="#fffc17" stroke="none" /><path d="M 102.70371172650421 120.8252237178851 l 3.798950483155425 29.261253309416475 a50.50682920971522,50.50682920971522 0 0,0 -0.8631198072378247,0.10451178852700843 l -3.29470325286622 -29.322310626668834" fill="#feff18" stroke="none" /><path d="M 101.26447882468166 120.96189622390904 l 1.78456500582911 29.58362427811078 a50.637400319333935,50.637400319333935 0 0,0 -0.8705097952286966,0.04499541309611956 l -1.275067142186934 -29.6099594979691" fill="#fcff18" stroke="none" /><path d="M 100.90346689309514 120.98055641714683 l 1.285385911201172 29.84958478707854 a50.877247679491916,50.877247679491916 0 0,0 -0.8752816261623072,0.03014646897149858 l -0.7713839333642126 -29.867288054476134" fill="#f9ff18" stroke="none" /><line stroke="#e1ed5e" stroke-width="0.3" x1="102.19456741930631" x2="102.32365962044197" y1="184.97166512339345" y2="189.96999836594603" /><path d="M 102.22038585953345 185.97133177190398 a86.0,86.0 0 0,1 -42.740103519485714,-10.115201625700543" fill="none" id="id151" stroke="none" /><text fill="#e1ed5e" style="font-size:6.75px; font-family:Arial;" text-anchor="middle"><textPath startOffset="22.20632615414155" xlink:href="#id151">July</textPath></text><line stroke="#e1ed5e" stroke-width="0.3" x1="58.666819895761336" x2="56.23545636021788" y1="174.27360380694188" y2="178.64263932499728" /><path d="M 58.180547188652646 175.14741091055294 a86.0,86.0 0 0,1 -31.652253787137756,-30.449443065178592" fill="none" id="id152" stroke="none" /><text fill="#e1ed5e" style="font-size:6.75px; font-family:Arial;" text-anchor="middle"><textPath startOffset="22.20632615414155" xlink:href="#id152">August</textPath></text><line stroke="#e1ed5e" stroke-width="0.3" x1="26.63291911575756" x2="22.317208475507996" y1="142.92168965132927" y2="145.44649492493687" /><path d="M 25.769776987707644 143.4266507060508 a86.0,86.0 0 0,1 -11.730757126820373,-40.83630448921669" fill="none" id="id153" stroke="none" /><text fill="#e1ed5e" style="font-size:6.75px; font-family:Arial;" text-anchor="middle"><textPath startOffset="21.46611528233685" xlink:href="#id153">September</textPath></text><line stroke="#e1ed5e" stroke-width="0.3" x1="15.007084014347285" x2="10.007500721073583" y1="101.09737516637583" y2="101.16192664675087" /><path d="M 14.007167355692545 101.11028546245083 a86.0,86.0 0 0,1 10.666146001902534,-42.60595125391555" fill="none" id="id154" stroke="none" /><text fill="#e1ed5e" style="font-size:6.75px; font-family:Arial;" text-anchor="middle"><textPath startOffset="22.20632615414155" xlink:href="#id154">October</textPath></text><line stroke="#e1ed5e" stroke-width="0.3" x1="26.266209847984243" x2="21.928928074336255" y1="57.711370442889674" y2="55.22380399835377" /><path d="M 25.398753493254645 57.213857153982495 a86.0,86.0 0 0,1 29.58750427330803,-30.492523968695096" fill="none" id="id155" stroke="none" /><text fill="#e1ed5e" style="font-size:6.75px; font-family:Arial;" text-anchor="middle"><textPath startOffset="21.46611528233685" xlink:href="#id155">November</textPath></text><line stroke="#e1ed5e" stroke-width="0.3" x1="56.762969772571076" x2="54.21961505331055" y1="26.818313649435495" y2="22.513508569990535" /><path d="M 56.25429882871897 25.957352633546506 a86.0,86.0 0 0,1 42.265352541879196,-11.944610805530505" fill="none" id="id156" stroke="none" /><text fill="#e1ed5e" style="font-size:6.75px; font-family:Arial;" text-anchor="middle"><textPath startOffset="22.20632615414155" xlink:href="#id156">December</textPath></text></svg>