<?xml version="1.0" encoding="utf-8" ?>
<svg baseProfile="full" height="200mm" version="1.1" viewBox="0,0,200,200" width="200mm" xmlns="http://www.w3.org/2000/svg" xmlns:ev="http://www.w3.org/2001/xml-events" xmlns:xlink="http://www.w3.org/1999/xlink"><defs /><rect fill="#1a1a1a" height="200" width="200" x="0" y="0" /><text alignment-baseline="middle" fill="#e1ed5e" style="dominant-baseline: central; font-size:9.0px; font-family:Arial;" text-anchor="middle" x="100.0" y="100.0">2016</text><line stroke="#e1ed5e" stroke-width="0.3" x1="100.0" x2="100.0" y1="15.0" y2="10.0" /><path d="M 100.0 14.0 a86.0,86.0 0 0,1 42.35913384403234,11.155469271406648" fill="none" id="id1" stroke="none" /><text fill="#e1ed5e" style="font-size:6.75px; font-family:Arial;" text-anchor="middle"><textPath startOffset="22.145653131862478" xlink:href="#id1">January</textPath></text><line stroke="#e1ed5e" stroke-width="0.3" x1="143.13028292997686" x2="145.6673583964461" y1="26.7553504044142" y2="22.446841604673864" /><path d="M 143.63769802327073 25.89364864446614 a86.0,86.0 0 0,1 29.32050498858742,28.57503671076993" fill="none" id="id2" stroke="none" /><text fill="#e1ed5e" style="font-size:6.75px; font-family:Arial;" text-anchor="middle"><textPath startOffset="20.669276256404974" xlink:href="#id2">February</textPath></text><line stroke="#e1ed5e" stroke-width="0.3" x1="172.87174338648825" x2="177.1583165268699" y1="56.24261187166439" y2="53.66864786411523" /><path d="M 173.72905801456457 55.72781907015455 a86.0,86.0 0 0,1 12.242430191666344,42.057860355516425" fill="none" id="id3" stroke="none" /><text fill="#e1ed5e" style="font-size:6.75px; font-family:Arial;" text-anchor="middle"><textPath startOffset="22.145653131862474" xlink:href="#id3">March</textPath></text><line stroke="#e1ed5e" stroke-width="0.3" x1="184.99686870605535" x2="189.99668451229388" y1="99.2704041080226" y2="99.22748670261217" /><path d="M 185.99683186730306 99.26182062694052 a86.0,86.0 0 0,1 -10.086455211305974,41.156179273409016" fill="none" id="id4" stroke="none" /><text fill="#e1ed5e" style="font-size:6.75px; font-family:Arial;" text-anchor="middle"><textPath startOffset="21.40746469413373" xlink:href="#id4">April</textPath></text><path d="M 119.16976305983485 108.57439118712176 l 10.018960219333097 4.481353470078484 a31.9755224386069,31.9755224386069 0 0,0 -0.2284202433412751,0.4991394549912753 l -9.940555511136766 -4.652681907284449" fill="#ff8e0d" stroke="none" /><line stroke="#e1ed5e" stroke-width="0.3" x1="174.33088141563837" x2="178.70328620479359" y1="141.23008692659167" y2="143.65538615756765" /><path d="M 175.20536237346943 141.71514677278685 a86.0,86.0 0 0,1 -30.301960400862466,31.631185727798858" fill="none" id="id5" stroke="none" /><text fill="#e1ed5e" style="font-size:6.75px; font-family:Arial;" text-anchor="middle"><textPath startOffset="22.145653131862474" xlink:href="#id5">May</textPath></text><path d="M 118.36410011445183 110.18625677009912 l 10.218694390399676 5.668137521961536 a32.685439572915264,32.685439572915264 0 0,0 -0.2763735008456972,0.48832549439697076 l -10.1198875245326 -5.8427197864576295" fill="#ff980e" stroke="none" /><path d="M 118.00360718960297 110.81064883170644 l 10.654963033344387 6.397999159569533 a33.428299581511055,33.428299581511055 0 0,0 -0.2996322321439224,0.4894267329706501 l -10.54356283674506 -6.57996300866474" fill="#ffa10e" stroke="none" /><path d="M 117.81537515405839 111.11811171558189 l 7.19170686758425 4.488156981712761 a29.477275550656323,29.477275550656323 0 0,0 -0.2715872056247953,0.4269801966780178 l -7.113601970333565 -4.6109508530694505" fill="#ff6d0a" stroke="none" /><path d="M 114.39649973595853 115.28858382429668 l 7.521551545402294 7.987627089897963 a31.971596245643358,31.971596245643358 0 0,0 -0.4027967871508271,0.3728226927799379 l -7.383324986937499 -8.11556752881028" fill="#ff8e0d" stroke="none" /><path d="M 113.59037401385872 116.0094264158162 l 9.424812485390937 11.102405409436617 a35.563327101327786,35.563327101327786 0 0,0 -0.4688019859163518,0.3910912901718304 l -9.23283616531269 -11.262558883520319" fill="#ffbd11" stroke="none" /><path d="M 113.03279911837588 116.46651593811092 l 7.447064397249182 9.409122589524241 a32.99959816166657,32.99959816166657 0 0,0 -0.4472074984687538,0.3477512557196771 l -7.2844469541451975 -9.535574896864711" fill="#ff9c0e" stroke="none" /><path d="M 111.8722381534696 117.32195027204791 l 4.938879711150813 7.205973098777413 a29.73605065813614,29.73605065813614 0 0,0 -0.42353157758019366,0.2849709470097074 l -4.814451845473616 -7.289693719844242" fill="#ff700a" stroke="none" /><path d="M 110.96478420261333 117.91015095944535 l 3.627625672442359 5.925453909281402 a27.94770984212648,27.94770984212648 0 0,0 -0.4113200781637443,0.24698588875157396 l -3.5253728377211777 -5.9868537985689" fill="#ff5808" stroke="none" /><line stroke="#e1ed5e" stroke-width="0.3" x1="143.1302829299769" x2="145.66735839644613" y1="173.24464959558577" y2="177.55315839532614" /><path d="M 143.63769802327073 174.10635135553383 a86.0,86.0 0 0,1 -40.68552437913181,11.842963189579606" fill="none" id="id6" stroke="none" /><text fill="#e1ed5e" style="font-size:6.75px; font-family:Arial;" text-anchor="middle"><textPath startOffset="21.407464694133747" xlink:href="#id6">June</textPath></text><path d="M 109.3889696526874 118.78422872680471 l 6.528142881404938 13.060658792359948 a35.60128273716002,35.60128273716002 0 0,0 -0.5490052632167853,0.2685459852439035 l -6.302977368926084 -13.170798527701075" fill="#ffbd11" stroke="none" /><path d="M 108.07796709384702 119.3841803445677 l 3.040499416833609 7.296091745452672 a28.90427678297187,28.90427678297187 0 0,0 -0.45964068019953197,0.18693186316604316 l -2.914804275443636 -7.347210865198006" fill="#ff6509" stroke="none" /><path d="M 107.407793817531 119.65005319985036 l 10.962105722165012 29.07828780454921 a52.075948634082245,52.075948634082245 0 0,0 -0.8391936169369466,0.3081635201820386 l -10.461322953573937 -29.26218217373997" fill="#80ff26" stroke="none" /><path d="M 105.69591212413111 120.21278271476187 l 2.7946488567281027 9.917222891446873 a31.303464083066896,31.303464083066896 0 0,0 -0.518472715393496,0.14131204412625423 l -2.6239947403999113 -9.963735429717268" fill="#ff850c" stroke="none" /><path d="M 103.94208987418118 120.62667999033965 l 1.7637560776909782 9.228717090856572 a30.395746625184188,30.395746625184188 0 0,0 -0.5133483607493098,0.09354917186215456 l -1.6050729833906112 -9.25763443665009" fill="#ff790b" stroke="none" /><path d="M 102.51750503828377 120.84855314841334 l 1.3994891704290628 11.58977793752897 a32.6739677307838,32.6739677307838 0 0,0 -0.5574242661997065,0.0624605517034329 l -1.2003290026285571 -11.612094249739373" fill="#ff970e" stroke="none" /><path d="M 100.72087961077811 120.9876233191556 l 0.38748022728526405 11.281064039397652 a32.2877166330276,32.2877166330276 0 0,0 -0.5540982473142733,0.014271605329019632 l -0.193768665900247 -11.286053362076718" fill="#ff920d" stroke="none" /><line stroke="#e1ed5e" stroke-width="0.3" x1="101.45913802915013" x2="101.54496967792366" y1="184.9874750549273" y2="189.98673829345242" /><path d="M 101.47630435890484 185.9873277026323 a86.0,86.0 0 0,1 -42.54439059252881,-10.42667462771756" fill="none" id="id7" stroke="none" /><text fill="#e1ed5e" style="font-size:6.75px; font-family:Arial;" text-anchor="middle"><textPath startOffset="22.145653131862474" xlink:href="#id7">July</textPath></text><path d="M 100.0 121.0 l 1.787808525421858e-15 14.598564473173816 a35.598564473173816,35.598564473173816 0 0,0 -0.611096696540708,-0.0052455301728697055 l 0.250603771691854 -14.596413341195381" fill="#ffbd11" stroke="none" /><path d="M 98.19965949673042 120.92268563240118 l -0.7532395123521165 8.753784905813797 a29.786132251464345,29.786132251464345 0 0,0 -0.5090598033391539,-0.048208492643700154 l 0.9033988790762856 -8.739564657664912" fill="#ff710a" stroke="none" /><path d="M 91.59046798132341 119.24265499422711 l -4.888563839873082 11.185990751805882 a33.20755690201776,33.20755690201776 0 0,0 -0.5203886619220425,-0.23276322940117009 l 5.0798659046507595 -11.100423771494857" fill="#ff9e0e" stroke="none" /><path d="M 89.97174638481275 118.45085714620012 l -6.964471355568283 12.81384286948886 a35.584184253720935,35.584184253720935 0 0,0 -0.5341962331290296,-0.2963096455779928 l 7.183411776853415 -12.69240030847772" fill="#ffbd11" stroke="none" /><line stroke="#e1ed5e" stroke-width="0.3" x1="58.13341422392154" x2="55.67067388415222" y1="173.97424548756322" y2="178.32567169271397" /><path d="M 57.64086615596768 174.84453072859336 a86.0,86.0 0 0,1 -31.369924170532247,-30.572349798747897" fill="none" id="id8" stroke="none" /><text fill="#e1ed5e" style="font-size:6.75px; font-family:Arial;" text-anchor="middle"><textPath startOffset="22.145653131862474" xlink:href="#id8">August</textPath></text><path d="M 89.03521579738668 117.91015095944536 l -6.111817723553214 9.983194930490509 a32.70549003272014,32.70549003272014 0 0,0 -0.4763100970245875,-0.2972527282858016 l 6.282291949367514 -9.876806405363158" fill="#ff980e" stroke="none" /><path d="M 87.83215693770417 117.11559508785305 l -7.0944319903777515 9.97920705452511 a33.2440001103879,33.2440001103879 0 0,0 -0.462279967779221,-0.33465504665760626 l 7.264692968530926 -9.85595123649444" fill="#ff9f0e" stroke="none" /><path d="M 87.2517909369889 116.68781488649013 l -7.085510605601172 9.275160830677999 a32.67189226205546,32.67189226205546 0 0,0 -0.4427664584633437,-0.34429787615007706 l 7.243687008699744 -9.152161902907128" fill="#ff970e" stroke="none" /><path d="M 86.68645165197938 116.24036423190432 l -7.116672332758982 8.681183091230933 a32.225416025935566,32.225416025935566 0 0,0 -0.4248010594423632,-0.3543841523600466 l 7.264647726363237 -8.557736754959016" fill="#ff920d" stroke="none" /><path d="M 82.18462484594161 111.11811171558189 l -10.811348345734544 6.747080971604796 a33.74395365223087,33.74395365223087 0 0,0 -0.3024615753943761,-0.4940482525368662 l 10.925577885584325 -6.560495602943373" fill="#ffa50f" stroke="none" /><line stroke="#e1ed5e" stroke-width="0.3" x1="26.387840678322732" x2="22.057713659400548" y1="142.50000000000003" y2="145.00000000000006" /><path d="M 25.521815274538298 143.00000000000003 a86.0,86.0 0 0,1 -11.493303480769221,-40.785679425670985" fill="none" id="id9" stroke="none" /><text fill="#e1ed5e" style="font-size:6.75px; font-family:Arial;" text-anchor="middle"><textPath startOffset="21.40746469413373" xlink:href="#id9">September</textPath></text><path d="M 81.4637452351635 109.86951160357371 l -10.501368394810921 5.591387178309691 a32.89715717057229,32.89715717057229 0 0,0 -0.26112812638082333,-0.5007476133692893 l 10.595804590166695 -5.410293321835899" fill="#ff9a0e" stroke="none" /><path d="M 80.68587082218212 108.24405325689762 l -13.503909872494889 5.764016132451443 a35.682624554882054,35.682624554882054 0 0,0 -0.23563132499380632,-0.5654294014131913 l 13.60086704202518 -5.53135422159697" fill="#ffbe11" stroke="none" /><path d="M 80.41425534168474 107.57618678355246 l -8.347396934890794 3.2289524569256742 a29.95014913605972,29.95014913605972 0 0,0 -0.18136857072801793,-0.48110168173851764 l 8.401596189433247 -3.0851824949930116" fill="#ff730a" stroke="none" /><path d="M 80.16572619554312 106.89939002012753 l -12.39681665000849 4.312256345740278 a34.125418768378594,34.125418768378594 0 0,0 -0.18771349346169894,-0.554941588917586 l 12.469015565042557 -4.0988130823485305" fill="#ffaa0f" stroke="none" /><path d="M 79.83685265289637 105.86919833188381 l -9.389880097892021 2.733257246917521 a30.779598326650017,30.779598326650017 0 0,0 -0.14331788274851073,-0.5085846059426747 l 9.435416472715106 -2.5716647170718505" fill="#ff7e0b" stroke="none" /><path d="M 79.64726062577567 105.17358676015961 l -61.05821812267298 15.520760280478815 a84.0,84.0 0 0,0 -0.34324989393482586,-1.4005767015676016 l 61.3156555431241 -14.470327754303112" fill="#4dd2ff" stroke="none" /><path d="M 79.2786578344484 103.40968896794605 l -7.182688498764921 1.1819086591382364 a28.279280331793508,28.279280331793508 0 0,0 -0.07470915601007345,-0.47968637431706446 l 7.201919146913261 -1.058434102889722" fill="#ff5c08" stroke="none" /><path d="M 79.0935383218832 101.97986365728391 l -8.66913440816471 0.8209760417182587 a29.707921281678004,29.707921281678004 0 0,0 -0.04372210590463601,-0.5081171452666374 l 8.681950136767089 -0.6720378490759592" fill="#ff700a" stroke="none" /><line stroke="#e1ed5e" stroke-width="0.3" x1="15.003131293944662" x2="10.003315487706104" y1="100.72959589197737" y2="100.7725132973878" /><path d="M 14.003168132696942 100.73817937305945 a86.0,86.0 0 0,1 10.791469493833604,-42.45332614584628" fill="none" id="id10" stroke="none" /><text fill="#e1ed5e" style="font-size:6.75px; font-family:Arial;" text-anchor="middle"><textPath startOffset="22.145653131862435" xlink:href="#id10">October</textPath></text><path d="M 79.13060592940154 97.66154086499901 l -0.7394961915129608 -0.08286209070047697 a21.74412414511117,21.74412414511117 0 0,0 0.04474931817440371,-0.37058854863319374 l 0.7379647870788887 0.09554431625710695" fill="#ff0000" stroke="none" /><line stroke="#e1ed5e" stroke-width="0.3" x1="26.387840678322718" x2="22.05771365940052" y1="57.49999999999999" y2="54.99999999999999" /><path d="M 25.521815274538284 56.99999999999999 a86.0,86.0 0 0,1 29.574782752854787,-30.34633250058573" fill="none" id="id11" stroke="none" /><text fill="#e1ed5e" style="font-size:6.75px; font-family:Arial;" text-anchor="middle"><textPath startOffset="21.40746469413373" xlink:href="#id11">November</textPath></text><line stroke="#e1ed5e" stroke-width="0.3" x1="56.869717070023135" x2="54.33264160355391" y1="26.7553504044142" y2="22.446841604673864" /><path d="M 56.362301976729285 25.89364864446614 a86.0,86.0 0 0,1 42.16139366436587,-11.88097634709845" fill="none" id="id12" stroke="none" /><text fill="#e1ed5e" style="font-size:6.75px; font-family:Arial;" text-anchor="middle"><textPath startOffset="22.145653131862474" xlink:href="#id12">December</textPath></text><path d="M 89.65649057296885 81.72400993836675 l -2.1309322124494585 -3.7651530374172655 a25.32634366286674,25.32634366286674 0 0,0 0.3802036682130762,-0.21089256566970116 l 2.0659843560802797 3.801178518520113" fill="#ff3304" stroke="none" /><path d="M 99.63950707515114 79.00309439819443 l -0.10425345375160626 -6.072241023877108 a27.073135914391777,27.073135914391777 0 0,0 0.4647463786004569,-0.003989288709104041 l 1.4874892916693448e-15 6.073135914391777" fill="#ff4c07" stroke="none" /></svg>