<?xml version="1.0" encoding="utf-8" ?>
<svg baseProfile="full" height="200mm" version="1.1" viewBox="0,0,200,200" width="200mm" xmlns="http://www.w3.org/2000/svg" xmlns:ev="http://www.w3.org/2001/xml-events" xmlns:xlink="http://www.w3.org/1999/xlink"><defs /><rect fill="#1a1a1a" height="200" width="200" x="0" y="0" /><text alignment-baseline="middle" fill="#e1ed5e" style="dominant-baseline: central; font-size:9.0px; font-family:Arial;" text-anchor="middle" x="100.0" y="100.0">2024</text><line stroke="#e1ed5e" stroke-width="0.3" x1="100.0" x2="100.0" y1="15.0" y2="10.0" /><path d="M 100.0 14.0 a86.0,86.0 0 0,1 42.35913384403234,11.155469271406648" fill="none" id="id121" stroke="none" /><text fill="#e1ed5e" style="font-size:6.75px; font-family:Arial;" text-anchor="middle"><textPath startOffset="22.145653131862478" xlink:href="#id121">January</textPath></text><path d="M 100.36049292484886 79.00309439819443 l 0.4008151177062696 -23.34547118721868 a44.348911702943234,44.348911702943234 0 0,0 0.7610836815806202,0.019602815887838652 l -0.8015121133576312 23.335150653980797" fill="#ffa40f" stroke="none" /><path d="M 101.80034050326958 79.07731436759882 l 5.401021509808744 -62.76805689720356 a84.0,84.0 0 0,0 1.4356017464599482,0.1359529779792652 l -6.477722819653705 62.666092163719114" fill="#4dd2ff" stroke="none" /><path d="M 103.23170211078529 79.25015418208739 l 4.530953863694394 -29.091974091909194 a50.44269857671411,50.44269857671411 0 0,0 0.8544572709738127,0.14060061877961574 l -5.029688637721277 29.00990747463391" fill="#f9ff18" stroke="none" /><path d="M 103.94208987418118 79.37332000966035 l 6.570219869563745 -34.37816666820978 a56.00037332088931,56.00037332088931 0 0,0 0.9426823228815623,0.18856286593453378 l -7.159398677976265 34.26031440561239" fill="#a7ff21" stroke="none" /><path d="M 105.3480935250658 79.69241777938227 l 6.552586652967028 -24.881238817006846 a46.72960234658845,46.72960234658845 0 0,0 0.773972610622347,0.21094967672844406 l -6.978740664524068 24.76508864613426" fill="#ffcb12" stroke="none" /><path d="M 105.69591212413111 79.78721728523813 l 3.79619889077036 -13.471370633700998 a34.99603346555115,34.99603346555115 0 0,0 0.5768345995456586,0.1679081450502121 l -4.026893502697623 13.404218794348271" fill="#ff0000" stroke="none" /><path d="M 106.72888874123014 80.10723608172694 l 12.474876608132986 -36.879756051637344 a59.93249225025833,59.93249225025833 0 0,0 0.9717460799128397,0.33802372962816196 l -13.106128460090844 36.660173889440586" fill="#72ff27" stroke="none" /><path d="M 108.73861861582097 80.90454125486305 l 7.149961577970588 -15.623956410486393 a38.1822572580914,38.1822572580914 0 0,0 0.5936637106965944,0.2778645924440416 l -7.417114002538687 15.498915586471817" fill="#ff3a05" stroke="none" /><path d="M 109.06512990194946 81.05736502329252 l 15.308137199378152 -31.988119119927678 a56.46235792140263,56.46235792140263 0 0,0 0.87070266263538,0.4259043037618024 l -15.855000111275599 31.720621066068652" fill="#a1ff22" stroke="none" /><path d="M 109.71004243097381 81.37971332152246 l 11.807989000673896 -22.643375850501517 a46.537248758374716,46.537248758374716 0 0,0 0.705174906544661,0.3754659186004615 l -12.194952723005116 22.437339464178482" fill="#ffc812" stroke="none" /><path d="M 110.02825361518725 81.54914285379988 l 12.214507165739976 -22.473317436347838 a46.57819739342022,46.57819739342022 0 0,0 0.699240353975624,0.38785683726508713 l -12.5984917078717 22.260327683649603" fill="#ffc812" stroke="none" /><path d="M 110.34350942703115 81.72400993836675 l 11.24798469888454 -19.87411120185154 a43.836318789373685,43.836318789373685 0 0,0 0.6517156622531072,0.3762682130369267 l -11.587492828998045 19.678096091538443" fill="#ff9b0e" stroke="none" /><line stroke="#e1ed5e" stroke-width="0.3" x1="143.13028292997686" x2="145.6673583964461" y1="26.7553504044142" y2="22.446841604673864" /><path d="M 143.63769802327073 25.89364864446614 a86.0,86.0 0 0,1 29.32050498858742,28.57503671076993" fill="none" id="id122" stroke="none" /><text fill="#e1ed5e" style="font-size:6.75px; font-family:Arial;" text-anchor="middle"><textPath startOffset="20.669276256404974" xlink:href="#id122">February</textPath></text><path d="M 110.65571695917076 81.90426304109057 l 11.682005887990591 -19.838599928236082 a44.02258258058065,44.02258258058065 0 0,0 0.6479018213048939,0.3890464279622386 l -12.020840465852919 19.63513949973792" fill="#ff9e0e" stroke="none" /><path d="M 111.27062007382361 82.28071324371311 l 29.04499765046543 -45.66356055241214 a75.11813606213127,75.11813606213127 0 0,0 1.0821102588984637,0.7014107961327357 l -29.8245935416209 45.15823591457551" fill="#3fffbe" stroke="none" /><path d="M 112.45986205192187 83.09580414077388 l 14.271673264931744 -19.362265738092617 a45.053648211726276,45.053648211726276 0 0,0 0.618623085738908,0.46422629644562896 l -14.601949339581418 19.114420414382973" fill="#ffaf10" stroke="none" /><path d="M 112.7482090630111 83.31218511350987 l 16.634965953729953 -21.775704423013458 a48.40261657944735,48.40261657944735 0 0,0 0.6559477777211833,0.5100689594206558 l -17.006323676086364 21.486934411972012" fill="#ffe515" stroke="none" /><path d="M 113.03279911837588 83.53348406188908 l 11.313004830527534 -14.293612036661392 a39.228862371254294,39.228862371254294 0 0,0 0.5244510900271043,0.4224606741810821 l -11.556706690909897 14.097303068686902" fill="#ff4c07" stroke="none" /><path d="M 113.31354834802062 83.75963576809568 l 26.73471095804567 -32.61200036561982 a63.16974434185527,63.16974434185527 0 0,0 0.8327145970598617,0.6946801333882643 l -27.290599889267426 32.14825804831968" fill="#48ff2c" stroke="none" /><path d="M 113.86319453409587 84.22622945171908 l 16.795116236685274 -19.1097592403841 a46.44128195726809,46.44128195726809 0 0,0 0.5943046029083091,0.5314308405846443 l -17.12068586641696 18.81863286991607" fill="#ffc612" stroke="none" /><path d="M 114.13192950727249 84.46653392183569 l 15.353405671577294 -16.876082353864714 a43.815109496350125,43.815109496350125 0 0,0 0.5520082637787153,0.5109306079487144 l -15.640843706669973 16.610033999783624" fill="#ff9b0e" stroke="none" /><path d="M 114.39649973595853 84.71141617570332 l 16.19854551638068 -17.20229399513703 a44.628622379254026,44.628622379254026 0 0,0 0.5532408725355668,0.529992241074232 l -16.49145887478156 16.921689623757217" fill="#ffa90f" stroke="none" /><path d="M 114.65682725009322 84.96080404539774 l 17.232190232955997 -17.681745252115203 a45.68992700243325,45.68992700243325 0 0,0 0.5569995467283387,0.5522388954481383 l -17.5331816998143 17.383326346438405" fill="#ffba11" stroke="none" /><path d="M 115.16444852881244 85.47280134310134 l 41.18708903511021 -39.456299605988725 a78.03661877937402,78.03661877937402 0 0,0 0.9183950041080815,0.9753036683667868 l -41.85833987295455 38.743454477677446" fill="#44ffe4" stroke="none" /><path d="M 115.8921839302757 86.27271002978787 l 15.892925540805436 -13.727930555724548 a42.000979967334416,42.000979967334416 0 0,0 0.4666217602099044,0.5496792602235442 l -16.126241864522452 13.45308451305145" fill="#ff7c0b" stroke="none" /><path d="M 116.1254893667686 86.54754324733833 l 19.65792882273351 -16.399343382390438 a46.60024665844472,46.60024665844472 0 0,0 0.507173076097717,0.6186686876505576 l -19.936548718069854 16.059472413041384" fill="#ffc912" stroke="none" /><path d="M 116.35404254752997 86.82634096563983 l 21.275409552741646 -17.137963928467272 a48.31945935135496,48.31945935135496 0 0,0 0.5147945290547015,0.650426070450164 l -21.566470512437906 16.77021791410243" fill="#ffe415" stroke="none" /><path d="M 116.57777611688842 87.10902102172516 l 18.688664505412977 -14.532418556785824 a44.67398086730442,44.67398086730442 0 0,0 0.46556249412005263,0.6094362495599849 l -18.935378976887336 14.209461393984958" fill="#ffa90f" stroke="none" /><path d="M 117.01052211995028 87.68569379921539 l 27.64338836651591 -20.011681380035085 a55.12659244691843,55.12659244691843 0 0,0 0.5483387062692177,0.7713070607051659 l -27.982842171315088 19.534197092620413" fill="#b4ff20" stroke="none" /><path d="M 117.42321728460499 88.27688183743584 l 20.989572906851944 -14.122721386606365 a46.29848671710943,46.29848671710943 0 0,0 0.4380179916972908,0.6632150669980158 l -21.22891533746996 13.76032644126929" fill="#ffc412" stroke="none" /><path d="M 117.81537515405839 88.88188828441811 l 19.280225240056556 -12.03228650908869 a43.726702443251895,43.726702443251895 0 0,0 0.39194124802601127,0.6402065731221765 l -19.48393445253797 11.699542819841959" fill="#ff9a0e" stroke="none" /><line stroke="#e1ed5e" stroke-width="0.3" x1="172.87174338648825" x2="177.1583165268699" y1="56.24261187166439" y2="53.66864786411523" /><path d="M 173.72905801456457 55.72781907015455 a86.0,86.0 0 0,1 12.242430191666344,42.057860355516425" fill="none" id="id123" stroke="none" /><text fill="#e1ed5e" style="font-size:6.75px; font-family:Arial;" text-anchor="middle"><textPath startOffset="22.145653131862474" xlink:href="#id123">March</textPath></text><path d="M 118.53625476483649 90.13048839642627 l 24.137662453664568 -12.851945697331898 a48.34591846938435,48.34591846938435 0 0,0 0.38375592889721755,0.7359025937763017 l -24.35472645153673 12.435696860451097" fill="#ffe415" stroke="none" /><line stroke="#e1ed5e" stroke-width="0.3" x1="184.99686870605535" x2="189.99668451229388" y1="99.2704041080226" y2="99.22748670261217" /><path d="M 185.99683186730306 99.26182062694052 a86.0,86.0 0 0,1 -10.086455211305974,41.156179273409016" fill="none" id="id124" stroke="none" /><text fill="#e1ed5e" style="font-size:6.75px; font-family:Arial;" text-anchor="middle"><textPath startOffset="21.40746469413373" xlink:href="#id124">April</textPath></text><line stroke="#e1ed5e" stroke-width="0.3" x1="174.33088141563837" x2="178.70328620479359" y1="141.23008692659167" y2="143.65538615756765" /><path d="M 175.20536237346943 141.71514677278685 a86.0,86.0 0 0,1 -30.301960400862466,31.631185727798858" fill="none" id="id125" stroke="none" /><text fill="#e1ed5e" style="font-size:6.75px; font-family:Arial;" text-anchor="middle"><textPath startOffset="22.145653131862474" xlink:href="#id125">May</textPath></text><line stroke="#e1ed5e" stroke-width="0.3" x1="143.1302829299769" x2="145.66735839644613" y1="173.24464959558577" y2="177.55315839532614" /><path d="M 143.63769802327073 174.10635135553383 a86.0,86.0 0 0,1 -40.68552437913181,11.842963189579606" fill="none" id="id126" stroke="none" /><text fill="#e1ed5e" style="font-size:6.75px; font-family:Arial;" text-anchor="middle"><textPath startOffset="21.407464694133747" xlink:href="#id126">June</textPath></text><line stroke="#e1ed5e" stroke-width="0.3" x1="101.45913802915013" x2="101.54496967792366" y1="184.9874750549273" y2="189.98673829345242" /><path d="M 101.47630435890484 185.9873277026323 a86.0,86.0 0 0,1 -42.54439059252881,-10.42667462771756" fill="none" id="id127" stroke="none" /><text fill="#e1ed5e" style="font-size:6.75px; font-family:Arial;" text-anchor="middle"><textPath startOffset="22.145653131862474" xlink:href="#id127">July</textPath></text><line stroke="#e1ed5e" stroke-width="0.3" x1="58.13341422392154" x2="55.67067388415222" y1="173.97424548756322" y2="178.32567169271397" /><path d="M 57.64086615596768 174.84453072859336 a86.0,86.0 0 0,1 -31.369924170532247,-30.572349798747897" fill="none" id="id128" stroke="none" /><text fill="#e1ed5e" style="font-size:6.75px; font-family:Arial;" text-anchor="middle"><textPath startOffset="22.145653131862474" xlink:href="#id128">August</textPath></text><line stroke="#e1ed5e" stroke-width="0.3" x1="26.387840678322732" x2="22.057713659400548" y1="142.50000000000003" y2="145.00000000000006" /><path d="M 25.521815274538298 143.00000000000003 a86.0,86.0 0 0,1 -11.493303480769221,-40.785679425670985" fill="none" id="id129" stroke="none" /><text fill="#e1ed5e" style="font-size:6.75px; font-family:Arial;" text-anchor="middle"><textPath startOffset="21.40746469413373" xlink:href="#id129">September</textPath></text><line stroke="#e1ed5e" stroke-width="0.3" x1="15.003131293944662" x2="10.003315487706104" y1="100.72959589197737" y2="100.7725132973878" /><path d="M 14.003168132696942 100.73817937305945 a86.0,86.0 0 0,1 10.791469493833604,-42.45332614584628" fill="none" id="id130" stroke="none" /><text fill="#e1ed5e" style="font-size:6.75px; font-family:Arial;" text-anchor="middle"><textPath startOffset="22.145653131862435" xlink:href="#id130">October</textPath></text><line stroke="#e1ed5e" stroke-width="0.3" x1="26.387840678322718" x2="22.05771365940052" y1="57.49999999999999" y2="54.99999999999999" /><path d="M 25.521815274538284 56.99999999999999 a86.0,86.0 0 0,1 29.574782752854787,-30.34633250058573" fill="none" id="id131" stroke="none" /><text fill="#e1ed5e" style="font-size:6.75px; font-family:Arial;" text-anchor="middle"><textPath startOffset="21.40746469413373" xlink:href="#id131">November</textPath></text><line stroke="#e1ed5e" stroke-width="0.3" x1="56.869717070023135" x2="54.33264160355391" y1="26.7553504044142" y2="22.446841604673864" /><path d="M 56.362301976729285 25.89364864446614 a86.0,86.0 0 0,1 42.16139366436587,-11.88097634709845" fill="none" id="id132" stroke="none" /><text fill="#e1ed5e" style="font-size:6.75px; font-family:Arial;" text-anchor="middle"><textPath startOffset="22.145653131862474" xlink:href="#id132">December</textPath></text></svg>