<?xml version="1.0" encoding="utf-8" ?>
<svg baseProfile="full" height="200mm" version="1.1" viewBox="0,0,200,200" width="200mm" xmlns="http://www.w3.org/2000/svg" xmlns:ev="http://www.w3.org/2001/xml-events" xmlns:xlink="http://www.w3.org/1999/xlink"><defs /><rect fill="#1a1a1a" height="200" width="200" x="0" y="0" /><text alignment-baseline="middle" fill="#e1ed5e" style="dominant-baseline: central; font-size:9.0px; font-family:Arial;" text-anchor="middle" x="100.0" y="100.0">2025</text><line stroke="#e1ed5e" stroke-width="0.3" x1="100.0" x2="100.0" y1="15.0" y2="10.0" /><path d="M 100.0 14.0 a86.0,86.0 0 0,1 42.46469731375804,11.215312516191453" fill="none" id="id133" stroke="none" /><text fill="#e1ed5e" style="font-size:6.75px; font-family:Arial;" text-anchor="middle"><textPath startOffset="22.20632615414155" xlink:href="#id133">January</textPath></text><path d="M 100.36148047927253 79.00311137660856 l 0.2875028168052691 -16.699835729774968 a37.70231035728709,37.70231035728709 0 0,0 0.6487909883209629,0.016756357108467967 l -0.5749204403210999 16.69241258052414" fill="#ff700a" stroke="none" /><path d="M 100.72285384407766 79.0124445844662 l 0.5500156372168916 -15.969319054018147 a36.97878807201003,36.97878807201003 0 0,0 0.6359632533018313,0.02738591547141641 l -0.8248197229080545 15.957485412022535" fill="#ff6409" stroke="none" /><path d="M 101.08401301168833 79.027996857942 l 0.9512560354858985 -18.403602493701214 a39.42817063061914,39.42817063061914 0 0,0 0.6774847765883237,0.040867731854480616 l -1.2679028609138343 18.38450149246643" fill="#ff8b0c" stroke="none" /><path d="M 102.52436894288641 79.15227682838746 l 2.0511939613285577 -16.939965925965428 a38.06369954728049,38.06369954728049 0 0,0 0.6497750317239344,0.08435944778604404 l -2.3424837215603382 16.902148155015247" fill="#ff750a" stroke="none" /><path d="M 102.88285421437855 79.19881850522331 l 2.90891585208639 -20.989228761720607 a42.189844630066524,42.189844630066524 0 0,0 0.7184951024098711,0.10588750116172525 l -3.269779934924917 20.936046776397916" fill="#ffb510" stroke="none" /><path d="M 103.95276090670814 79.375362276772 l 2.806645914055526 -14.644461570275206 a35.91098641841484,35.91098641841484 0 0,0 0.6060980883740985,0.12157757465306653 l -3.05831041189675 14.593980039544931" fill="#ff5307" stroke="none" /><path d="M 104.66035177308747 79.52364482259891 l 4.452505241375249 -19.563132396599944 a41.06342323960127,41.06342323960127 0 0,0 0.687863791805922,0.1627951355326886 l -4.788592720143695 19.48359134892639" fill="#ffa40f" stroke="none" /><path d="M 105.36241919743992 79.69619591428918 l 4.743001975713211 -17.958495848104434 a39.57427362962018,39.57427362962018 0 0,0 0.6571253689089045,0.17961718637742322 l -5.051425233845826 17.874192120900716" fill="#ff8d0d" stroke="none" /><path d="M 106.0581310904928 79.89281104454417 l 13.35855954673351 -44.33761451620056 a67.30631894407958,67.30631894407958 0 0,0 1.106434562309236,0.3437746043569536 l -14.119779481753463 44.101099776961085" fill="#35ff63" stroke="none" /><path d="M 106.74666289553966 80.11325718540242 l 5.007932284983635 -14.761588495881625 a36.58794023252354,36.58794023252354 0 0,0 0.5946724969341741,0.20746955747976992 l -5.261286785981083 14.673198085229648" fill="#ff5e08" stroke="none" /><path d="M 108.43124777332544 80.76684994638697 l 10.163348998878352 -23.184375741049656 a46.31420434015601,46.31420434015601 0 0,0 0.7273929885889004,0.3263600309831486 l -10.560924105934031 23.005995379549976" fill="#fff216" stroke="none" /><path d="M 109.73455568895987 81.39251694778311 l 6.966407150997446 -13.316201287341773 a36.02837467321304,36.02837467321304 0 0,0 0.547039320480377,0.2922094598292187 l -7.194591518006134 13.1943131010108" fill="#ff5507" stroke="none" /><line stroke="#e1ed5e" stroke-width="0.3" x1="143.23703022742887" x2="145.7803849466894" y1="26.81831364943548" y2="22.513508569990506" /><path d="M 143.74570117128098 25.957352633546492 a86.0,86.0 0 0,1 28.547481713284135,27.462654790039103" fill="none" id="id134" stroke="none" /><text fill="#e1ed5e" style="font-size:6.75px; font-family:Arial;" text-anchor="middle"><textPath startOffset="19.985693538727396" xlink:href="#id134">February</textPath></text><path d="M 111.90073688211348 82.69761687909136 l 8.443252717910001 -12.275575433610285 a35.89893515271313,35.89893515271313 0 0,0 0.5061217533725805,0.35457063234796543 l -8.653305610866232 12.128419958498384" fill="#ff5307" stroke="none" /><path d="M 112.48926042617603 83.11751280151076 l 6.053017968740746 -8.182229762405525 a31.177814618801676,31.177814618801676 0 0,0 0.4287006613612904,0.3228884502405447 l -6.192964783860419 8.076824722659133" fill="#ff0400" stroke="none" /><path d="M 113.06298171725822 83.55741782278167 l 39.188945151774654 -49.32774653165496 a84.0,84.0 0 0,0 1.1243864057420354,0.9091756109434814 l -40.032234956081176 48.64586482344735" fill="#4dd2ff" stroke="none" /><path d="M 113.89432698308785 84.25364557470407 l 6.562317399594523 -7.4370335282218445 a30.918340453569684,30.918340453569684 0 0,0 0.3960330411322218,0.3555623746069242 l -6.689361428322735 7.322972144845623" fill="#ff0000" stroke="none" /><path d="M 114.94478906791727 85.2469230424477 l 23.178732875831386 -22.881395538046476 a53.5701077599949,53.5701077599949 0 0,0 0.6421671676412432,0.6618097143419686 l -23.569164307175736 22.479021628154396" fill="#a9ff21" stroke="none" /><path d="M 115.4437574822437 85.77008943001954 l 11.606643472418444 -10.694385664891124 a36.78239707538948,36.78239707538948 0 0,0 0.42502297922520904,0.46932098923310966 l -11.789010092259689 10.493011888388466" fill="#ff6109" stroke="none" /><path d="M 115.9244219780498 86.31012108654704 l 11.704445076897285 -10.06205663682792 a36.434993304852384,36.434993304852384 0 0,0 0.4047570112233335,0.4791046343551622 l -11.875912701607737 9.859093052843651" fill="#ff5c08" stroke="none" /><path d="M 116.15771136456269 86.58626213691792 l 11.475023520833807 -9.526284633277434 a35.913962039575765,35.913962039575765 0 0,0 0.39078068959779394,0.47905091901804325 l -11.63730270250801 9.327349544651291" fill="#ff5307" stroke="none" /><path d="M 117.04232023915458 87.72973835380427 l 12.574517339982533 -9.053498330686509 a36.49465450912878,36.49465450912878 0 0,0 0.36266542098440463,0.5129645186019831 l -12.72849538077082 8.835707311752733" fill="#ff5c08" stroke="none" /><path d="M 117.45458315368197 88.32363383020206 l 14.587964011330364 -9.758721131773141 a38.55110629343876,38.55110629343876 0 0,0 0.3642223428234536,0.5547356159787524 l -14.753782989511743 9.506167451816715" fill="#ff7d0b" stroke="none" /><line stroke="#e1ed5e" stroke-width="0.3" x1="172.23445277983987" x2="176.4835382374775" y1="55.19839476539836" y2="52.563006222186495" /><path d="M 173.08426987136738 54.67131705675599 a86.0,86.0 0 0,1 12.851231095245387,41.99856678651699" fill="none" id="id135" stroke="none" /><text fill="#e1ed5e" style="font-size:6.75px; font-family:Arial;" text-anchor="middle"><textPath startOffset="22.20632615414155" xlink:href="#id135">March</textPath></text><path d="M 118.03404312379186 89.2402003453031 l 20.95839276648599 -12.504578463291503 a45.40530085655381,45.40530085655381 0 0,0 0.3946808761489552,0.6746375550242905 l -21.170533317105274 12.141961495913318" fill="#ffe515" stroke="none" /><path d="M 118.3937258080291 89.86733742301442 l 14.310922563429134 -7.883544150543947 a37.33868945142299,37.33868945142299 0 0,0 0.30527383640982236,0.5656260558067322 l -14.444504499057421 7.636037111404756" fill="#ff6a09" stroke="none" /><path d="M 118.56541770881063 90.18545643968196 l 18.025082200809802 -9.52889707158087 a41.38880741354758,41.38880741354758 0 0,0 0.3275442554706786,0.6327112463267638 l -18.186435889440595 9.217213102993762" fill="#ffa90f" stroke="none" /><path d="M 119.34039704204932 91.81776055985345 l 14.463060416320513 -6.118810441499633 a36.70413823885737,36.70413823885737 0 0,0 0.24116071802349318,0.5839898073904553 l -14.566242821230203 5.868946063655875" fill="#ff6008" stroke="none" /><path d="M 119.7369772167798 92.82701384747503 l 14.018375898597862 -5.094681677802438 a35.91544985015622,35.91544985015622 0 0,0 0.2061665157507676,0.5828605027090062 l -14.103995495158438 4.852623548666816" fill="#ff5307" stroke="none" /><path d="M 120.37134235888165 94.90015583598534 l 15.713761331559283 -3.933846508967663 a37.19868647580182,37.19868647580182 0 0,0 0.15015373745378321,0.6224841804984895 l -15.779147869273887 3.6627770968097675" fill="#ff6809" stroke="none" /><path d="M 120.45610955862082 95.25157060432595 l 15.167552990619864 -3.520808992282258 a36.57083041084827,36.57083041084827 0 0,0 0.13706331549192088,0.6144279679349206 l -15.225910693113821 3.2592028547973735" fill="#ff5e08" stroke="none" /><path d="M 120.67395015179393 96.31383870115 l 14.983110210118587 -2.6714856419517314 a36.21940955174392,36.21940955174392 0 0,0 0.10415346284126042,0.614719633478601 l -15.026875534480071 2.4131802201572925" fill="#ff5808" stroke="none" /><path d="M 120.78858239683441 97.02765380044208 l 19.207644484958 -2.7463041008519204 a40.40298412293566,40.40298412293566 0 0,0 0.09251129174445084,0.6893165779571635 l -19.252071775760285 2.415269180830093" fill="#ff9a0e" stroke="none" /><path d="M 120.87857604477298 97.74499172005257 l 15.961245152466468 -1.7239077942814756 a37.05407128738124,37.05407128738124 0 0,0 0.063032282455279,0.6347264823377738 l -15.988554560603976 1.4489057812392667" fill="#ff6509" stroke="none" /><path d="M 120.98425023603335 99.18683210126433 l 16.66019858693681 -0.6456050859608526 a37.67270292673596,37.67270292673596 0 0,0 0.019532947626095983,0.6482034378390148 l -16.668843229018552 0.35873150069683885" fill="#ff6f0a" stroke="none" /><line stroke="#e1ed5e" stroke-width="0.3" x1="184.98032266829074" x2="189.97916517819016" y1="98.17113171792111" y2="98.06355123074" /><path d="M 185.9800911702706 98.14961562048488 a86.0,86.0 0 0,1 -9.607161424134198,41.387399972396054" fill="none" id="id136" stroke="none" /><text fill="#e1ed5e" style="font-size:6.75px; font-family:Arial;" text-anchor="middle"><textPath startOffset="21.466115282336823" xlink:href="#id136">April</textPath></text><path d="M 120.99513854157772 99.54816195383933 l 16.090218894624364 -0.3462788803820962 a37.09394461093754,37.09394461093754 0 0,0 0.008243675022623766,0.6384817153508293 l -16.093795576764702 0.0692609069708041" fill="#ff6609" stroke="none" /><path d="M 120.99824983174949 100.27111621757518 l 24.259705130561688 0.3132260806108912 a45.261727135539545,45.261727135539545 0 0,0 -0.016763946496596363,0.7789547210339478 l -24.250719121380083 -0.7307706174349539" fill="#ffe315" stroke="none" /><path d="M 120.95626037817324 101.35467743843564 l 45.26499979833215 2.9260694833445107 a66.35947629067569,66.35947629067569 0 0,0 -0.08349741565866399,1.1392558976568687 l -45.20792582400915 -3.70479851749815" fill="#33ff56" stroke="none" /><path d="M 120.89721153311464 102.0752229133903 l 16.001548899367545 1.589053203250679 a37.08025675359731,37.08025675359731 0 0,0 -0.06854143937736787,0.6346086029856751 l -15.971825158489125 -1.8642581281211457" fill="#ff6609" stroke="none" /><path d="M 120.8583938346157 102.4346265915055 l 15.437903949221726 1.801937952169058 a36.5427107908776,36.5427107908776 0 0,0 -0.07830318255325756,0.6241534081380107 l -15.40459925742162 -2.0674091145944637" fill="#ff5d08" stroke="none" /><path d="M 120.64145759157962 103.86396538481128 l 31.032747598645184 5.809156741220914 a52.57178686050713,52.57178686050713 0 0,0 -0.1741629874035515,0.8880533205845088 l -30.92815467826597 -6.3424737888733675" fill="#b6ff1f" stroke="none" /><path d="M 120.5718875245553 104.21870165774334 l 14.74138607193986 3.023033729155662 a36.04816255393313,36.04816255393313 0 0,0 -0.12988661294575643,0.6067870142026143 l -14.687165420269661 -3.276334562774445" fill="#ff5507" stroke="none" /><path d="M 120.41448212921028 104.9243191809786 l 21.708945455079295 5.236565680512838 a43.331590469510516,43.331590469510516 0 0,0 -0.1811439703249045,0.7235801167757362 l -21.61559017045933 -5.609473636685969" fill="#ffc612" stroke="none" /><path d="M 120.02730092923936 106.31721596034902 l 60.06047744789283 18.944889681368622 a83.97753406023509,83.97753406023509 0 0,0 -0.44671149024168144,1.3748365993838567 l -59.7254737066349 -19.975925180730272" fill="#4dd2ff" stroke="none" /><path d="M 119.54520255179757 107.68017299344265 l 12.006257604136515 4.717788682887001 a33.89991285680886,33.89991285680886 0 0,0 -0.21808521923128987,0.5412696290934069 l -11.923269770647833 -4.923757679823221" fill="#ff3204" stroke="none" /><path d="M 119.12269723197855 108.67885076344098 l 14.101781736664265 6.400104425983421 a36.48617398882017,36.48617398882017 0 0,0 -0.26448199121412996,0.5696706796527256 l -13.989525128610303 -6.641895172914976" fill="#ff5c08" stroke="none" /><path d="M 118.97047184881838 109.00673069616215 l 16.154207478196675 7.669635079483215 a38.882441709706896,38.882441709706896 0 0,0 -0.29226032374978256,0.6021428315730047 l -16.01979389783218 -7.946566867021495" fill="#ff820c" stroke="none" /><line stroke="#e1ed5e" stroke-width="0.3" x1="174.80103733775053" x2="179.2010983576182" y1="140.37084112569926" y2="142.7455964860345" /><path d="M 175.68104954172406 140.8457921977663 a86.0,86.0 0 0,1 -30.038265399797805,32.042727171017184" fill="none" id="id137" stroke="none" /><text fill="#e1ed5e" style="font-size:6.75px; font-family:Arial;" text-anchor="middle"><textPath startOffset="22.206326154141568" xlink:href="#id137">May</textPath></text><path d="M 117.75023020441432 111.22182372390056 l 12.844321963329456 8.120273104382715 a36.195902144572685,36.195902144572685 0 0,0 -0.3374753145517869,0.5237691825282094 l -12.702641785400617 -8.340163886832377" fill="#ff5808" stroke="none" /><path d="M 117.55443506779139 111.5257021239791 l 12.657495519949642 8.310522237551806 a36.14189462050203,36.14189462050203 0 0,0 -0.34592421825208924,0.5171097706725994 l -12.512568196286832 -8.527168922430212" fill="#ff5708" stroke="none" /><path d="M 117.35343817320211 111.8261652097733 l 12.603794018475869 8.589338253593127 a36.25229016557206,36.25229016557206 0 0,0 -0.35585781942981126,0.512639730018962 l -12.454075291883921 -8.805019245799107" fill="#ff5908" stroke="none" /><path d="M 116.71984013943494 112.70617746262583 l 11.966400497676734 9.093819500924559 a36.02971370273545,36.02971370273545 0 0,0 -0.3795012880299917,0.49055657206720693 l -11.808092392428673 -9.298454067105018" fill="#ff5507" stroke="none" /><path d="M 116.0416608686014 113.55231037782055 l 11.884037696340021 10.039868609724655 a36.55729133456609,36.55729133456609 0 0,0 -0.41023807299017906,0.477199559401352 l -11.709457113779063 -10.242945268287535" fill="#ff5d08" stroke="none" /><path d="M 115.56566222782051 114.09645910891815 l 11.402710245575076 10.326437536355144 a36.38366383982656,36.38366383982656 0 0,0 -0.4243956737067466,0.46059768464514 l -11.223268163872607 -10.521186475801617" fill="#ff5b08" stroke="none" /><path d="M 113.75828350139079 115.86535959552629 l 10.023826817895685 11.55897223466277 a36.299900104146744,36.299900104146744 0 0,0 -0.4755883674026289,0.4053067243698059 l -9.823372973916008 -11.729803349255523" fill="#ff5908" stroke="none" /><path d="M 113.48314897796784 116.09983520530334 l 9.759752937929928 11.653836518598599 a36.20081191948819,36.20081191948819 0 0,0 -0.481177522745931,0.39597634282093686 l -9.557705286639306 -11.820107980276713" fill="#ff5808" stroke="none" /><path d="M 112.92097659922987 116.55440617244103 l 19.37418725468916 24.822285112270137 a52.48817190588535,52.48817190588535 0 0,0 -0.7170166006520672,0.5497777542236483 l -18.9440419255436 -25.152102208321157" fill="#b7ff1f" stroke="none" /><path d="M 112.63410532772338 116.77436683061366 l 9.076698878845892 12.051179933626278 a36.08699441008311,36.08699441008311 0 0,0 -0.4994010927614956,0.3694449894310207 l -8.867912815665832 -12.205634871797068" fill="#ff5607" stroke="none" /><path d="M 112.04921762599082 117.19931262002967 l 8.783780368171662 12.538157183914311 a36.30882696762949,36.30882696762949 0 0,0 -0.5149682923679733,0.35419988722228385 l -8.566655191180807 -12.68749786050169" fill="#ff5908" stroke="none" /><line stroke="#e1ed5e" stroke-width="0.3" x1="143.8653032363475" x2="146.44561519142675" y1="172.8068346515853" y2="177.08958963109032" /><path d="M 144.38136562736335 173.6633856474863 a86.0,86.0 0 0,1 -40.68145358897372,12.25698825130547" fill="none" id="id138" stroke="none" /><text fill="#e1ed5e" style="font-size:6.75px; font-family:Arial;" text-anchor="middle"><textPath startOffset="21.466115282336833" xlink:href="#id138">June</textPath></text><path d="M 109.57404056367764 118.69057910512821 l 6.9382915344854785 13.545032101882859 a36.2186656464537,36.2186656464537 0 0,0 -0.5573295367902933,0.2794565997180467 l -6.704108090012425 -13.662456542510208" fill="#ff5808" stroke="none" /><path d="M 108.92500713936063 119.00905698771935 l 10.423858473299035 22.201407422634006 a45.52670619991923,45.52670619991923 0 0,0 -0.7122371444746342,0.3269531400023657 l -10.040153333056981 -22.377547632970447" fill="#ffe615" stroke="none" /><path d="M 107.59598834532513 119.57807347666477 l 6.511861971993959 16.783821454394296 a39.00280558566601,39.00280558566601 0 0,0 -0.6280004782100557,0.23745604499420336 l -6.221991273023629 -16.89342574949513" fill="#ff840c" stroke="none" /><path d="M 106.2309692047433 120.05430185196036 l 5.741707430166659 18.479618525887 a40.351059533677656,40.351059533677656 0 0,0 -0.6650719767836829,0.20038073093630795 l -5.42276047894273 -18.57571462592903" fill="#ff990e" stroke="none" /><path d="M 105.88484417918355 120.15858648285463 l 4.319563266241102 14.796702685637468 a36.414312737784016,36.414312737784016 0 0,0 -0.6032097350650715,0.1704730964285754 l -4.0642223630714245 -14.868864575404562" fill="#ff5b08" stroke="none" /><path d="M 105.18746579009965 120.34920634021253 l 3.737186382509537 14.66010185062985 a36.12895066845204,36.12895066845204 0 0,0 -0.6039499741826027,0.14843620962421566 l -3.484283123583723 -14.722259318568096" fill="#ff5708" stroke="none" /><path d="M 103.41894727170886 120.7198165907248 l 2.5119078055040536 15.22289315589246 a36.42874450041447,36.42874450041447 0 0,0 -0.6195733842531673,0.09676462045013956 l -2.249498557642369 -15.263876083689706" fill="#ff5b08" stroke="none" /><path d="M 102.34483914955558 120.86867818915974 l 1.1644537634448442 10.36344469943366 a31.42865948266701,31.42865948266701 0 0,0 -0.5381295943975848,0.05577933273847222 l -0.9858915724416568 -10.381953400627891" fill="#ff0901" stroke="none" /><path d="M 100.90346689309514 120.98055641714683 l 0.7687792953105066 17.85280401624845 a38.869348976598864,38.869348976598864 0 0,0 -0.6687002251857549,0.023031387826777376 l -0.46135871845009946 -17.86339220250132" fill="#ff820c" stroke="none" /><line stroke="#e1ed5e" stroke-width="0.3" x1="102.19456741930631" x2="102.32365962044197" y1="184.97166512339345" y2="189.96999836594603" /><path d="M 102.22038585953345 185.97133177190398 a86.0,86.0 0 0,1 -42.740103519485714,-10.115201625700543" fill="none" id="id139" stroke="none" /><text fill="#e1ed5e" style="font-size:6.75px; font-family:Arial;" text-anchor="middle"><textPath startOffset="22.20632615414155" xlink:href="#id139">July</textPath></text><path d="M 100.54218724476979 120.99299961872073 l 0.3870603933823519 14.986628271101456 a35.9916257518757,35.9916257518757 0 0,0 -0.6194678272869044,0.010664700428620421 l -0.12903287620277953 -14.991070448809236" fill="#ff5407" stroke="none" /><path d="M 100.18074693466247 120.99922214144158 l 0.13101389958919815 15.221226220117236 a36.22179004867266,36.22179004867266 0 0,0 -0.6235216685032967,0.0 l 0.1310138995891877 -15.221226220117236" fill="#ff5808" stroke="none" /><path d="M 98.73552117531835 120.96189622390904 l -1.0942476003084725 18.1398883027579 a39.17286233501244,39.17286233501244 0 0,0 -0.6727234726136153,-0.046394949347972315 l 1.4063338337010178 -18.118365008893644" fill="#ff870c" stroke="none" /><path d="M 98.37488393609728 120.93702456842531 l -1.1646049144775303 15.004074015715679 a36.049204021339456,36.049204021339456 0 0,0 -0.6182536032942796,-0.053345522367720825 l 1.4227028355133515 -14.981804241069295" fill="#ff5507" stroke="none" /><path d="M 96.93821686468263 120.77559828337769 l -2.1766345963004157 14.769460795841814 a35.92898892643839,35.92898892643839 0 0,0 -0.6110736333966914,-0.09543713417256318 l 2.4305440933056244 -14.729805354322144" fill="#ff5307" stroke="none" /><path d="M 95.86986931433489 120.58985236759428 l -3.005037521348303 14.980949425739333 a36.27936831813641,36.27936831813641 0 0,0 -0.6112357278526119,-0.12809038970518177 l 3.2624647106303017 -14.927003055307608" fill="#ff5908" stroke="none" /><path d="M 94.81253420990036 120.34920634021253 l -3.676912739458215 14.423662546939736 a35.88494973325682,35.88494973325682 0 0,0 -0.5972444233810741,-0.15773768048503498 l 3.924647605650778 -14.35823351715112" fill="#ff5307" stroke="none" /><path d="M 93.08242187328487 119.8279376855182 l -4.952777549302858 14.19620607370622 a36.03536738294119,36.03536738294119 0 0,0 -0.5839109831398307,-0.2093697039962455 l 5.196408093072415 -14.108848828670016" fill="#ff5507" stroke="none" /><path d="M 92.06813273071674 119.44442032107085 l -6.553721698269331 16.065992412904595 a38.35129333248315,38.35129333248315 0 0,0 -0.609107185312753,-0.25460685286078705 l 6.829300343079546 -15.950800517023836" fill="#ff7a0b" stroke="none" /><path d="M 91.7346041902142 119.30500536409082 l -10.343998186486372 24.159876317095613 a47.28113243639609,47.28113243639609 0 0,0 -0.7454193061171385,-0.32676991794764343 l 10.758338167261254 -23.978241845853514" fill="#feff18" stroke="none" /><path d="M 90.7491055286396 118.85261126421891 l -6.7679448787157215 13.792551006943379 a36.36357839699037,36.36357839699037 0 0,0 -0.5595594410313822,-0.2805747199965814 l 7.004358227429864 -13.674008446037496" fill="#ff5a08" stroke="none" /><path d="M 90.10565033884886 118.52300852407294 l -7.0907858564080035 13.274514380295356 a36.04965036451359,36.04965036451359 0 0,0 -0.5448255555146648,-0.2970823331605258 l 7.318234223791309 -13.150491395375065" fill="#ff5507" stroke="none" /><line stroke="#e1ed5e" stroke-width="0.3" x1="58.666819895761336" x2="56.23545636021788" y1="174.27360380694188" y2="178.64263932499728" /><path d="M 58.180547188652646 175.14741091055294 a86.0,86.0 0 0,1 -31.652253787137756,-30.449443065178592" fill="none" id="id140" stroke="none" /><text fill="#e1ed5e" style="font-size:6.75px; font-family:Arial;" text-anchor="middle"><textPath startOffset="22.20632615414155" xlink:href="#id140">August</textPath></text><path d="M 89.1626897886671 117.98757091392108 l -7.724636502593536 12.82121155204757 a35.96841590682055,35.96841590682055 0 0,0 -0.5275723926088733,-0.32407805330876516 l 7.944188095134718 -12.686345031910427" fill="#ff5407" stroke="none" /><path d="M 87.95078237400918 117.19931262002967 l -8.589144873352366 12.260330288736467 a35.969606155284914,35.969606155284914 0 0,0 -0.5040415295018484,-0.35962024816693133 l 8.7989137307031 -12.110665778725316" fill="#ff5407" stroke="none" /><path d="M 86.24171649860922 115.8653595955263 l -9.945944407942852 11.46916216206594 a36.18102403876809,36.18102403876809 0 0,0 -0.467006821208508,-0.4120792217644689 l 10.141893582057946 -11.296259798529181" fill="#ff5708" stroke="none" /><path d="M 85.44109423537348 115.13401014063109 l -8.37523625277462 8.706073961110206 a33.080575570150266,33.080575570150266 0 0,0 -0.4069699178087838,-0.3983057203892691 l 8.523856122959197 -8.560618137798368" fill="#ff2503" stroke="none" /><path d="M 84.43433777217949 114.09645910891817 l -11.210492562853576 10.152362789978367 a36.12433845565262,36.12433845565262 0 0,0 -0.4134364314344915,-0.46450021352617277 l 11.383587843936406 -9.957888406711332" fill="#ff5608" stroke="none" /><path d="M 84.19399662182784 113.82643327865904 l -11.578885440708087 10.128726608288279 a36.38381262088461,36.38381262088461 0 0,0 -0.4082913321183188,-0.474935059961915 l 11.751519282397183 -9.927914449164833" fill="#ff5b08" stroke="none" /><path d="M 83.28015986056508 112.70617746262583 l -13.224294625363884 10.049751249212688 a37.60961975812451,37.60961975812451 0 0,0 -0.38726935888458786,-0.518810592880044 l 13.395325250943555 -9.820627776823336" fill="#ff6e0a" stroke="none" /><path d="M 82.6465618267979 111.8261652097733 l -12.662193298179089 8.629136679876664 a36.32296116814385,36.32296116814385 0 0,0 -0.3476572570039782,-0.5197004284648877 l 12.808853660593797 -8.409899337205957" fill="#ff5a08" stroke="none" /><path d="M 82.05923443525364 110.91462005526583 l -12.761919736141962 7.763966626345974 a35.93806457097919,35.93806457097919 0 0,0 -0.31697223090176974,-0.5312636912000246 l 12.893672842741964 -7.543140841259838" fill="#ff5307" stroke="none" /><line stroke="#e1ed5e" stroke-width="0.3" x1="26.63291911575756" x2="22.317208475507996" y1="142.92168965132927" y2="145.44649492493687" /><path d="M 25.769776987707644 143.4266507060508 a86.0,86.0 0 0,1 -11.730757126820373,-40.83630448921669" fill="none" id="id141" stroke="none" /><text fill="#e1ed5e" style="font-size:6.75px; font-family:Arial;" text-anchor="middle"><textPath startOffset="21.46611528233685" xlink:href="#id141">September</textPath></text><path d="M 81.87401531095188 110.60418214915194 l -13.085145868533305 7.655157643490034 a36.15989712852558,36.15989712852558 0 0,0 -0.30968025323336723,-0.5399536245386102 l 13.214978117919049 -7.428784173093116" fill="#ff5708" stroke="none" /><path d="M 80.73074385275274 108.34839909993369 l -16.388703923629915 7.1004007648036405 a38.860719675232204,38.860719675232204 0 0,0 -0.2606425826865372,-0.6160820728967198 l 16.50849748750876 -6.817244166240762" fill="#ff820c" stroke="none" /><path d="M 80.58989483394504 108.01547362559985 l -13.89333761912426 5.737304373414615 a36.03135029437395,36.03135029437395 0 0,0 -0.23179720140696294,-0.575301644341948 l 13.990037434788611 -5.497303361229862" fill="#ff5507" stroke="none" /><path d="M 79.76711848015287 105.62410040840567 l -17.49898341116239 4.8641633003614855 a39.162447660949226,39.162447660949226 0 0,0 -0.1749478357256288,-0.6510459789274182 l 17.58011932322979 -4.562226388258528" fill="#ff870c" stroke="none" /><path d="M 79.50377843672027 104.57218783832718 l -15.218495697923746 3.3948608885230644 a36.592552445322966,36.592552445322966 0 0,0 -0.1318481264905561,-0.6159505524624252 l 15.274677863138743 -3.132396516644475" fill="#ff5e08" stroke="none" /><path d="M 79.29508885075956 103.50808413554451 l -15.155759669828072 2.567877721213965 a36.37176135518289,36.37176135518289 0 0,0 -0.09927455007947071,-0.6181827181098324 l 15.197715974268833 -2.306615773410919" fill="#ff5a08" stroke="none" /><path d="M 79.1416061653843 102.43462659150553 l -15.29766281232862 1.7855687722691211 a36.401517566792066,36.401517566792066 0 0,0 -0.06728681589580467,-0.6229923477371803 l 15.326131929725475 -1.5219801026471589" fill="#ff5b08" stroke="none" /><path d="M 79.04373962182676 101.35467743843564 l -18.512127960583857 1.1966811651069305 a39.550766222448935,39.550766222448935 0 0,0 -0.038069776692849944,-0.6797614366803258 l 18.529984088164237 -0.877848012091167" fill="#ff8d0d" stroke="none" /><line stroke="#e1ed5e" stroke-width="0.3" x1="15.007084014347285" x2="10.007500721073583" y1="101.09737516637583" y2="101.16192664675087" /><path d="M 14.007167355692545 101.11028546245083 a86.0,86.0 0 0,1 10.666146001902534,-42.60595125391555" fill="none" id="id142" stroke="none" /><text fill="#e1ed5e" style="font-size:6.75px; font-family:Arial;" text-anchor="middle"><textPath startOffset="22.20632615414155" xlink:href="#id142">October</textPath></text><line stroke="#e1ed5e" stroke-width="0.3" x1="26.266209847984243" x2="21.928928074336255" y1="57.711370442889674" y2="55.22380399835377" /><path d="M 25.398753493254645 57.213857153982495 a86.0,86.0 0 0,1 29.58750427330803,-30.492523968695096" fill="none" id="id143" stroke="none" /><text fill="#e1ed5e" style="font-size:6.75px; font-family:Arial;" text-anchor="middle"><textPath startOffset="21.46611528233685" xlink:href="#id143">November</textPath></text><line stroke="#e1ed5e" stroke-width="0.3" x1="56.762969772571076" x2="54.21961505331055" y1="26.818313649435495" y2="22.513508569990535" /><path d="M 56.25429882871897 25.957352633546506 a86.0,86.0 0 0,1 42.265352541879196,-11.944610805530505" fill="none" id="id144" stroke="none" /><text fill="#e1ed5e" style="font-size:6.75px; font-family:Arial;" text-anchor="middle"><textPath startOffset="22.20632615414155" xlink:href="#id144">December</textPath></text></svg>